<svg xmlns="http://www.w3.org/2000/svg" width="472" height="139" viewBox="0 0 472 139" fill="none">
<rect width="100" height="100" rx="6" fill="#99C169"/>
<rect x="124" width="100" height="100" rx="6" fill="#679632"/>
<rect x="248" width="100" height="100" rx="6" fill="#517D2E"/>
<rect x="372" width="100" height="100" rx="6" fill="#000201"/>
<path d="M9.45109 138.29C8.87109 138.29 8.25242 138.261 7.59509 138.203C6.93775 138.145 6.29975 138.077 5.68109 138C5.08175 137.903 4.55975 137.816 4.11509 137.739L4.37609 135.709C4.76275 135.748 5.23642 135.796 5.79709 135.854C6.37709 135.912 6.98609 135.96 7.62409 135.999C8.26209 136.038 8.87109 136.057 9.45109 136.057C11.1138 136.057 12.3608 135.545 13.1921 134.52C14.0234 133.476 14.4488 131.891 14.4681 129.764C14.0041 129.919 13.4918 130.083 12.9311 130.257C12.3704 130.431 11.8098 130.576 11.2491 130.692C10.6884 130.789 10.1761 130.837 9.71209 130.837C7.68209 130.837 6.12575 130.363 5.04309 129.416C3.97975 128.449 3.44809 126.951 3.44809 124.921C3.44809 123.606 3.71875 122.475 4.26009 121.528C4.80142 120.581 5.57475 119.856 6.58009 119.353C7.58542 118.831 8.76475 118.57 10.1181 118.57C11.7421 118.57 13.0664 118.976 14.0911 119.788C15.1158 120.581 15.8698 121.721 16.3531 123.21C16.8364 124.679 17.0781 126.439 17.0781 128.488C17.0781 130.344 16.9041 131.9 16.5561 133.157C16.2081 134.414 15.7054 135.419 15.0481 136.173C14.4101 136.927 13.6174 137.468 12.6701 137.797C11.7228 138.126 10.6498 138.29 9.45109 138.29ZM9.94409 128.604C10.4081 128.604 10.9204 128.546 11.4811 128.43C12.0418 128.314 12.5928 128.179 13.1341 128.024C13.6754 127.869 14.1298 127.724 14.4971 127.589C14.4971 126.255 14.3521 125.085 14.0621 124.08C13.7721 123.055 13.3081 122.253 12.6701 121.673C12.0321 121.093 11.1814 120.803 10.1181 120.803C8.84209 120.803 7.83675 121.18 7.10209 121.934C6.36742 122.669 6.00009 123.664 6.00009 124.921C6.00009 126.197 6.33842 127.135 7.01509 127.734C7.69175 128.314 8.66809 128.604 9.94409 128.604ZM26.0503 138.29C25.4703 138.29 24.8516 138.261 24.1943 138.203C23.537 138.145 22.899 138.077 22.2803 138C21.681 137.903 21.159 137.816 20.7143 137.739L20.9753 135.709C21.362 135.748 21.8356 135.796 22.3963 135.854C22.9763 135.912 23.5853 135.96 24.2233 135.999C24.8613 136.038 25.4703 136.057 26.0503 136.057C27.713 136.057 28.96 135.545 29.7913 134.52C30.6226 133.476 31.048 131.891 31.0673 129.764C30.6033 129.919 30.091 130.083 29.5303 130.257C28.9696 130.431 28.409 130.576 27.8483 130.692C27.2876 130.789 26.7753 130.837 26.3113 130.837C24.2813 130.837 22.725 130.363 21.6423 129.416C20.579 128.449 20.0473 126.951 20.0473 124.921C20.0473 123.606 20.318 122.475 20.8593 121.528C21.4006 120.581 22.174 119.856 23.1793 119.353C24.1846 118.831 25.364 118.57 26.7173 118.57C28.3413 118.57 29.6656 118.976 30.6903 119.788C31.715 120.581 32.469 121.721 32.9523 123.21C33.4356 124.679 33.6773 126.439 33.6773 128.488C33.6773 130.344 33.5033 131.9 33.1553 133.157C32.8073 134.414 32.3046 135.419 31.6473 136.173C31.0093 136.927 30.2166 137.468 29.2693 137.797C28.322 138.126 27.249 138.29 26.0503 138.29ZM26.5433 128.604C27.0073 128.604 27.5196 128.546 28.0803 128.43C28.641 128.314 29.192 128.179 29.7333 128.024C30.2746 127.869 30.729 127.724 31.0963 127.589C31.0963 126.255 30.9513 125.085 30.6613 124.08C30.3713 123.055 29.9073 122.253 29.2693 121.673C28.6313 121.093 27.7806 120.803 26.7173 120.803C25.4413 120.803 24.436 121.18 23.7013 121.934C22.9666 122.669 22.5993 123.664 22.5993 124.921C22.5993 126.197 22.9376 127.135 23.6143 127.734C24.291 128.314 25.2673 128.604 26.5433 128.604ZM42.9395 138.29C41.3929 138.29 40.1749 138.039 39.2855 137.536C38.4155 137.014 37.7969 136.183 37.4295 135.042C37.0815 133.901 36.9075 132.393 36.9075 130.518C36.9075 128.759 37.1105 127.338 37.5165 126.255C37.9225 125.172 38.5702 124.399 39.4595 123.935C40.3682 123.452 41.5379 123.21 42.9685 123.21C43.3165 123.21 43.7322 123.239 44.2155 123.297C44.6989 123.336 45.1919 123.394 45.6945 123.471C46.2165 123.529 46.6612 123.587 47.0285 123.645L46.9415 125.675C46.5935 125.636 46.2069 125.598 45.7815 125.559C45.3562 125.52 44.9309 125.491 44.5055 125.472C44.0995 125.433 43.7612 125.414 43.4905 125.414C42.4272 125.414 41.5959 125.588 40.9965 125.936C40.4165 126.265 40.0105 126.796 39.7785 127.531C39.5465 128.266 39.4305 129.261 39.4305 130.518C39.4305 131.891 39.5272 132.983 39.7205 133.795C39.9332 134.607 40.3295 135.197 40.9095 135.564C41.4895 135.912 42.3499 136.086 43.4905 136.086C43.7612 136.086 44.1092 136.076 44.5345 136.057C44.9599 136.018 45.3852 135.98 45.8105 135.941C46.2552 135.902 46.6515 135.873 46.9995 135.854L47.0575 137.855C46.6709 137.932 46.2165 138 45.6945 138.058C45.1919 138.116 44.6892 138.164 44.1865 138.203C43.7032 138.261 43.2875 138.29 42.9395 138.29ZM57.4763 138V121.673L52.6623 124.834L51.5603 122.92L57.6793 118.86H60.0283V138H57.4763ZM73.4956 138.29C71.0789 138.29 69.3196 137.41 68.2176 135.651C67.1156 133.892 66.5646 131.465 66.5646 128.372C66.5646 126.613 66.7386 125.114 67.0866 123.877C67.4539 122.62 67.9662 121.605 68.6236 120.832C69.2809 120.059 70.0736 119.488 71.0016 119.121C71.9296 118.754 72.9639 118.57 74.1046 118.57C74.7039 118.57 75.3322 118.599 75.9896 118.657C76.6662 118.715 77.3042 118.792 77.9036 118.889C78.5222 118.966 79.0346 119.044 79.4406 119.121L79.2086 121.122C78.8412 121.083 78.3676 121.045 77.7876 121.006C77.2076 120.948 76.5986 120.9 75.9606 120.861C75.3419 120.822 74.7329 120.803 74.1336 120.803C72.5289 120.803 71.3012 121.344 70.4506 122.427C69.6192 123.51 69.1939 125.056 69.1746 127.067C69.3486 127.009 69.5999 126.932 69.9286 126.835C70.2766 126.719 70.6632 126.593 71.0886 126.458C71.5332 126.323 71.9876 126.216 72.4516 126.139C72.9349 126.042 73.3892 125.994 73.8146 125.994C75.9219 125.994 77.5169 126.477 78.5996 127.444C79.6822 128.411 80.2236 129.919 80.2236 131.968C80.2236 133.321 79.9529 134.472 79.4116 135.419C78.8896 136.366 78.1259 137.082 77.1206 137.565C76.1346 138.048 74.9262 138.29 73.4956 138.29ZM73.4956 136.086C74.8296 136.086 75.8542 135.728 76.5696 135.013C77.3042 134.298 77.6716 133.283 77.6716 131.968C77.6716 130.692 77.3042 129.745 76.5696 129.126C75.8542 128.507 74.8682 128.198 73.6116 128.198C73.1089 128.198 72.5676 128.256 71.9876 128.372C71.4269 128.488 70.8952 128.623 70.3926 128.778C69.8899 128.933 69.4742 129.087 69.1456 129.242C69.1649 130.537 69.3099 131.707 69.5806 132.751C69.8706 133.776 70.3346 134.588 70.9726 135.187C71.6106 135.786 72.4516 136.086 73.4956 136.086ZM88.9638 138.29C88.3838 138.29 87.7651 138.261 87.1078 138.203C86.4504 138.145 85.8124 138.077 85.1938 138C84.5944 137.903 84.0724 137.816 83.6278 137.739L83.8888 135.709C84.2754 135.748 84.7491 135.796 85.3098 135.854C85.8898 135.912 86.4988 135.96 87.1368 135.999C87.7748 136.038 88.3838 136.057 88.9638 136.057C90.6264 136.057 91.8734 135.545 92.7048 134.52C93.5361 133.476 93.9614 131.891 93.9808 129.764C93.5168 129.919 93.0044 130.083 92.4438 130.257C91.8831 130.431 91.3224 130.576 90.7618 130.692C90.2011 130.789 89.6888 130.837 89.2248 130.837C87.1948 130.837 85.6384 130.363 84.5558 129.416C83.4924 128.449 82.9608 126.951 82.9608 124.921C82.9608 123.606 83.2314 122.475 83.7728 121.528C84.3141 120.581 85.0874 119.856 86.0928 119.353C87.0981 118.831 88.2774 118.57 89.6308 118.57C91.2548 118.57 92.5791 118.976 93.6038 119.788C94.6284 120.581 95.3824 121.721 95.8658 123.21C96.3491 124.679 96.5908 126.439 96.5908 128.488C96.5908 130.344 96.4168 131.9 96.0688 133.157C95.7208 134.414 95.2181 135.419 94.5608 136.173C93.9228 136.927 93.1301 137.468 92.1828 137.797C91.2354 138.126 90.1624 138.29 88.9638 138.29ZM89.4568 128.604C89.9208 128.604 90.4331 128.546 90.9938 128.43C91.5544 128.314 92.1054 128.179 92.6468 128.024C93.1881 127.869 93.6424 127.724 94.0098 127.589C94.0098 126.255 93.8648 125.085 93.5748 124.08C93.2848 123.055 92.8208 122.253 92.1828 121.673C91.5448 121.093 90.6941 120.803 89.6308 120.803C88.3548 120.803 87.3494 121.18 86.6148 121.934C85.8801 122.669 85.5128 123.664 85.5128 124.921C85.5128 126.197 85.8511 127.135 86.5278 127.734C87.2044 128.314 88.1808 128.604 89.4568 128.604Z" fill="#263238"/>
<path d="M133.099 138.29C130.682 138.29 128.923 137.41 127.821 135.651C126.719 133.892 126.168 131.465 126.168 128.372C126.168 126.613 126.342 125.114 126.69 123.877C127.057 122.62 127.569 121.605 128.227 120.832C128.884 120.059 129.677 119.488 130.605 119.121C131.533 118.754 132.567 118.57 133.708 118.57C134.307 118.57 134.935 118.599 135.593 118.657C136.269 118.715 136.907 118.792 137.507 118.889C138.125 118.966 138.638 119.044 139.044 119.121L138.812 121.122C138.444 121.083 137.971 121.045 137.391 121.006C136.811 120.948 136.202 120.9 135.564 120.861C134.945 120.822 134.336 120.803 133.737 120.803C132.132 120.803 130.904 121.344 130.054 122.427C129.222 123.51 128.797 125.056 128.778 127.067C128.952 127.009 129.203 126.932 129.532 126.835C129.88 126.719 130.266 126.593 130.692 126.458C131.136 126.323 131.591 126.216 132.055 126.139C132.538 126.042 132.992 125.994 133.418 125.994C135.525 125.994 137.12 126.477 138.203 127.444C139.285 128.411 139.827 129.919 139.827 131.968C139.827 133.321 139.556 134.472 139.015 135.419C138.493 136.366 137.729 137.082 136.724 137.565C135.738 138.048 134.529 138.29 133.099 138.29ZM133.099 136.086C134.433 136.086 135.457 135.728 136.173 135.013C136.907 134.298 137.275 133.283 137.275 131.968C137.275 130.692 136.907 129.745 136.173 129.126C135.457 128.507 134.471 128.198 133.215 128.198C132.712 128.198 132.171 128.256 131.591 128.372C131.03 128.488 130.498 128.623 129.996 128.778C129.493 128.933 129.077 129.087 128.749 129.242C128.768 130.537 128.913 131.707 129.184 132.751C129.474 133.776 129.938 134.588 130.576 135.187C131.214 135.786 132.055 136.086 133.099 136.086ZM148.335 138.29L145.928 137.594L152.975 121.934V121.151H143.608V118.86H155.585V122.05L148.335 138.29ZM165.166 138.29C164.586 138.29 163.967 138.261 163.31 138.203C162.653 138.145 162.015 138.077 161.396 138C160.797 137.903 160.275 137.816 159.83 137.739L160.091 135.709C160.478 135.748 160.951 135.796 161.512 135.854C162.092 135.912 162.701 135.96 163.339 135.999C163.977 136.038 164.586 136.057 165.166 136.057C166.829 136.057 168.076 135.545 168.907 134.52C169.738 133.476 170.164 131.891 170.183 129.764C169.719 129.919 169.207 130.083 168.646 130.257C168.085 130.431 167.525 130.576 166.964 130.692C166.403 130.789 165.891 130.837 165.427 130.837C163.397 130.837 161.841 130.363 160.758 129.416C159.695 128.449 159.163 126.951 159.163 124.921C159.163 123.606 159.434 122.475 159.975 121.528C160.516 120.581 161.29 119.856 162.295 119.353C163.3 118.831 164.48 118.57 165.833 118.57C167.457 118.57 168.781 118.976 169.806 119.788C170.831 120.581 171.585 121.721 172.068 123.21C172.551 124.679 172.793 126.439 172.793 128.488C172.793 130.344 172.619 131.9 172.271 133.157C171.923 134.414 171.42 135.419 170.763 136.173C170.125 136.927 169.332 137.468 168.385 137.797C167.438 138.126 166.365 138.29 165.166 138.29ZM165.659 128.604C166.123 128.604 166.635 128.546 167.196 128.43C167.757 128.314 168.308 128.179 168.849 128.024C169.39 127.869 169.845 127.724 170.212 127.589C170.212 126.255 170.067 125.085 169.777 124.08C169.487 123.055 169.023 122.253 168.385 121.673C167.747 121.093 166.896 120.803 165.833 120.803C164.557 120.803 163.552 121.18 162.817 121.934C162.082 122.669 161.715 123.664 161.715 124.921C161.715 126.197 162.053 127.135 162.73 127.734C163.407 128.314 164.383 128.604 165.659 128.604ZM182.896 138.29C180.48 138.29 178.72 137.41 177.618 135.651C176.516 133.892 175.965 131.465 175.965 128.372C175.965 126.613 176.139 125.114 176.487 123.877C176.855 122.62 177.367 121.605 178.024 120.832C178.682 120.059 179.474 119.488 180.402 119.121C181.33 118.754 182.365 118.57 183.505 118.57C184.105 118.57 184.733 118.599 185.39 118.657C186.067 118.715 186.705 118.792 187.304 118.889C187.923 118.966 188.435 119.044 188.841 119.121L188.609 121.122C188.242 121.083 187.768 121.045 187.188 121.006C186.608 120.948 185.999 120.9 185.361 120.861C184.743 120.822 184.134 120.803 183.534 120.803C181.93 120.803 180.702 121.344 179.851 122.427C179.02 123.51 178.595 125.056 178.575 127.067C178.749 127.009 179.001 126.932 179.329 126.835C179.677 126.719 180.064 126.593 180.489 126.458C180.934 126.323 181.388 126.216 181.852 126.139C182.336 126.042 182.79 125.994 183.215 125.994C185.323 125.994 186.918 126.477 188 127.444C189.083 128.411 189.624 129.919 189.624 131.968C189.624 133.321 189.354 134.472 188.812 135.419C188.29 136.366 187.527 137.082 186.521 137.565C185.535 138.048 184.327 138.29 182.896 138.29ZM182.896 136.086C184.23 136.086 185.255 135.728 185.97 135.013C186.705 134.298 187.072 133.283 187.072 131.968C187.072 130.692 186.705 129.745 185.97 129.126C185.255 128.507 184.269 128.198 183.012 128.198C182.51 128.198 181.968 128.256 181.388 128.372C180.828 128.488 180.296 128.623 179.793 128.778C179.291 128.933 178.875 129.087 178.546 129.242C178.566 130.537 178.711 131.707 178.981 132.751C179.271 133.776 179.735 134.588 180.373 135.187C181.011 135.786 181.852 136.086 182.896 136.086ZM199.206 138.29C198.49 138.29 197.736 138.242 196.944 138.145C196.151 138.068 195.407 137.971 194.711 137.855C194.015 137.739 193.435 137.623 192.971 137.507L193.174 135.448C193.618 135.525 194.16 135.612 194.798 135.709C195.455 135.806 196.151 135.893 196.886 135.97C197.62 136.028 198.307 136.057 198.945 136.057C200.298 136.057 201.294 135.767 201.932 135.187C202.589 134.607 202.918 133.737 202.918 132.577C202.918 131.746 202.753 131.088 202.425 130.605C202.096 130.122 201.642 129.764 201.062 129.532C200.501 129.3 199.873 129.174 199.177 129.155H195.291V127.009H199.148C199.631 127.009 200.124 126.883 200.627 126.632C201.149 126.361 201.584 125.984 201.932 125.501C202.299 124.998 202.483 124.399 202.483 123.703C202.483 122.659 202.193 121.915 201.613 121.47C201.033 121.006 200.066 120.774 198.713 120.774C198.094 120.774 197.446 120.813 196.77 120.89C196.112 120.948 195.484 121.025 194.885 121.122C194.305 121.199 193.821 121.286 193.435 121.383L193.232 119.353C193.638 119.237 194.14 119.121 194.74 119.005C195.358 118.87 196.016 118.763 196.712 118.686C197.427 118.589 198.133 118.541 198.829 118.541C200.375 118.541 201.603 118.725 202.512 119.092C203.42 119.44 204.078 119.981 204.484 120.716C204.89 121.451 205.093 122.398 205.093 123.558C205.093 124.273 204.977 124.892 204.745 125.414C204.532 125.917 204.261 126.342 203.933 126.69C203.623 127.019 203.314 127.28 203.005 127.473C202.715 127.666 202.483 127.811 202.309 127.908C202.966 128.14 203.536 128.42 204.02 128.749C204.503 129.078 204.88 129.532 205.151 130.112C205.421 130.692 205.557 131.485 205.557 132.49C205.557 133.805 205.334 134.897 204.89 135.767C204.445 136.618 203.749 137.256 202.802 137.681C201.874 138.087 200.675 138.29 199.206 138.29ZM209.773 138V135.883L215.109 130.286C215.921 129.435 216.617 128.681 217.197 128.024C217.777 127.367 218.221 126.719 218.531 126.081C218.84 125.443 218.995 124.757 218.995 124.022C218.995 122.804 218.656 121.973 217.98 121.528C217.322 121.064 216.317 120.832 214.964 120.832C214.461 120.832 213.9 120.871 213.282 120.948C212.682 121.006 212.093 121.083 211.513 121.18C210.952 121.257 210.478 121.344 210.092 121.441L209.889 119.353C210.314 119.237 210.826 119.121 211.426 119.005C212.025 118.889 212.682 118.792 213.398 118.715C214.113 118.618 214.809 118.57 215.486 118.57C217.516 118.57 219.043 118.986 220.068 119.817C221.112 120.629 221.634 121.934 221.634 123.732C221.634 124.679 221.479 125.54 221.17 126.313C220.88 127.067 220.435 127.802 219.836 128.517C219.256 129.232 218.502 130.035 217.574 130.924L212.731 135.796H222.069V138H209.773Z" fill="#263238"/>
<path d="M258.248 138.261C257.533 138.261 256.769 138.213 255.957 138.116C255.165 138.019 254.401 137.913 253.666 137.797C252.932 137.662 252.323 137.536 251.839 137.42L252.1 135.39C252.584 135.467 253.164 135.564 253.84 135.68C254.536 135.777 255.242 135.864 255.957 135.941C256.692 135.999 257.369 136.028 257.987 136.028C259.263 136.028 260.269 135.67 261.003 134.955C261.738 134.24 262.105 133.196 262.105 131.823C262.105 130.895 261.941 130.17 261.612 129.648C261.303 129.107 260.858 128.73 260.278 128.517C259.718 128.285 259.051 128.169 258.277 128.169C257.717 128.169 257.146 128.227 256.566 128.343C256.006 128.459 255.493 128.604 255.029 128.778C254.565 128.933 254.179 129.097 253.869 129.271L252.158 128.952L252.68 118.86H263.961V121.151H254.739L254.246 127.009C254.575 126.854 254.971 126.7 255.435 126.545C255.919 126.371 256.431 126.226 256.972 126.11C257.514 125.975 258.055 125.907 258.596 125.907C259.853 125.907 260.936 126.1 261.844 126.487C262.753 126.854 263.459 127.454 263.961 128.285C264.464 129.116 264.715 130.218 264.715 131.591C264.715 133.08 264.454 134.317 263.932 135.303C263.43 136.289 262.695 137.033 261.728 137.536C260.762 138.019 259.602 138.261 258.248 138.261ZM275.544 138V121.673L270.73 124.834L269.628 122.92L275.747 118.86H278.096V138H275.544ZM290.2 138.29L287.793 137.594L294.84 121.934V121.151H285.473V118.86H297.45V122.05L290.2 138.29ZM306.509 138.29C305.91 138.29 305.349 138.222 304.827 138.087C304.305 137.971 303.822 137.758 303.377 137.449C302.952 137.12 302.575 136.676 302.246 136.115C301.917 135.554 301.666 134.849 301.492 133.998C301.318 133.128 301.231 132.084 301.231 130.866C301.231 129.145 301.434 127.724 301.84 126.603C302.246 125.462 302.894 124.612 303.783 124.051C304.692 123.49 305.881 123.21 307.35 123.21C307.891 123.21 308.5 123.249 309.177 123.326C309.873 123.403 310.414 123.481 310.801 123.558V117.236H313.266V138H310.83V137.072C310.521 137.227 310.124 137.401 309.641 137.594C309.158 137.787 308.645 137.952 308.104 138.087C307.563 138.222 307.031 138.29 306.509 138.29ZM306.886 136.086C307.369 136.086 307.853 136.038 308.336 135.941C308.839 135.825 309.303 135.69 309.728 135.535C310.153 135.38 310.511 135.235 310.801 135.1V125.646C310.569 125.607 310.26 125.569 309.873 125.53C309.486 125.472 309.08 125.433 308.655 125.414C308.249 125.375 307.872 125.356 307.524 125.356C306.577 125.356 305.832 125.559 305.291 125.965C304.75 126.371 304.363 126.99 304.131 127.821C303.899 128.633 303.783 129.648 303.783 130.866C303.783 131.968 303.86 132.867 304.015 133.563C304.189 134.24 304.421 134.762 304.711 135.129C305.001 135.496 305.33 135.748 305.697 135.883C306.084 136.018 306.48 136.086 306.886 136.086ZM317.675 138V135.883L323.011 130.286C323.823 129.435 324.519 128.681 325.099 128.024C325.679 127.367 326.123 126.719 326.433 126.081C326.742 125.443 326.897 124.757 326.897 124.022C326.897 122.804 326.558 121.973 325.882 121.528C325.224 121.064 324.219 120.832 322.866 120.832C322.363 120.832 321.802 120.871 321.184 120.948C320.584 121.006 319.995 121.083 319.415 121.18C318.854 121.257 318.38 121.344 317.994 121.441L317.791 119.353C318.216 119.237 318.728 119.121 319.328 119.005C319.927 118.889 320.584 118.792 321.3 118.715C322.015 118.618 322.711 118.57 323.388 118.57C325.418 118.57 326.945 118.986 327.97 119.817C329.014 120.629 329.536 121.934 329.536 123.732C329.536 124.679 329.381 125.54 329.072 126.313C328.782 127.067 328.337 127.802 327.738 128.517C327.158 129.232 326.404 130.035 325.476 130.924L320.633 135.796H329.971V138H317.675ZM339.552 138.29C338.082 138.29 336.922 138.01 336.072 137.449C335.221 136.888 334.602 136.057 334.216 134.955C333.848 133.853 333.665 132.48 333.665 130.837C333.665 129.02 333.916 127.55 334.419 126.429C334.921 125.308 335.627 124.496 336.536 123.993C337.464 123.471 338.566 123.21 339.842 123.21C341.814 123.21 343.293 123.751 344.279 124.834C345.284 125.897 345.787 127.608 345.787 129.967L345.671 131.765H336.188C336.207 133.196 336.478 134.288 337 135.042C337.522 135.777 338.469 136.144 339.842 136.144C340.383 136.144 340.982 136.134 341.64 136.115C342.297 136.076 342.945 136.038 343.583 135.999C344.24 135.96 344.791 135.922 345.236 135.883L345.294 137.797C344.83 137.874 344.259 137.952 343.583 138.029C342.906 138.106 342.21 138.164 341.495 138.203C340.799 138.261 340.151 138.29 339.552 138.29ZM336.188 129.822H343.293C343.293 128.121 343.022 126.932 342.481 126.255C341.939 125.559 341.06 125.211 339.842 125.211C338.662 125.211 337.754 125.569 337.116 126.284C336.497 126.999 336.188 128.179 336.188 129.822Z" fill="#263238"/>
<path d="M374.777 138V135.883L380.113 130.286C380.925 129.435 381.621 128.681 382.201 128.024C382.781 127.367 383.225 126.719 383.535 126.081C383.844 125.443 383.999 124.757 383.999 124.022C383.999 122.804 383.66 121.973 382.984 121.528C382.326 121.064 381.321 120.832 379.968 120.832C379.465 120.832 378.904 120.871 378.286 120.948C377.686 121.006 377.097 121.083 376.517 121.18C375.956 121.257 375.482 121.344 375.096 121.441L374.893 119.353C375.318 119.237 375.83 119.121 376.43 119.005C377.029 118.889 377.686 118.792 378.402 118.715C379.117 118.618 379.813 118.57 380.49 118.57C382.52 118.57 384.047 118.986 385.072 119.817C386.116 120.629 386.638 121.934 386.638 123.732C386.638 124.679 386.483 125.54 386.174 126.313C385.884 127.067 385.439 127.802 384.84 128.517C384.26 129.232 383.506 130.035 382.578 130.924L377.735 135.796H387.073V138H374.777ZM397.698 138.29C395.281 138.29 393.522 137.41 392.42 135.651C391.318 133.892 390.767 131.465 390.767 128.372C390.767 126.613 390.941 125.114 391.289 123.877C391.656 122.62 392.169 121.605 392.826 120.832C393.483 120.059 394.276 119.488 395.204 119.121C396.132 118.754 397.166 118.57 398.307 118.57C398.906 118.57 399.535 118.599 400.192 118.657C400.869 118.715 401.507 118.792 402.106 118.889C402.725 118.966 403.237 119.044 403.643 119.121L403.411 121.122C403.044 121.083 402.57 121.045 401.99 121.006C401.41 120.948 400.801 120.9 400.163 120.861C399.544 120.822 398.935 120.803 398.336 120.803C396.731 120.803 395.504 121.344 394.653 122.427C393.822 123.51 393.396 125.056 393.377 127.067C393.551 127.009 393.802 126.932 394.131 126.835C394.479 126.719 394.866 126.593 395.291 126.458C395.736 126.323 396.19 126.216 396.654 126.139C397.137 126.042 397.592 125.994 398.017 125.994C400.124 125.994 401.719 126.477 402.802 127.444C403.885 128.411 404.426 129.919 404.426 131.968C404.426 133.321 404.155 134.472 403.614 135.419C403.092 136.366 402.328 137.082 401.323 137.565C400.337 138.048 399.129 138.29 397.698 138.29ZM397.698 136.086C399.032 136.086 400.057 135.728 400.772 135.013C401.507 134.298 401.874 133.283 401.874 131.968C401.874 130.692 401.507 129.745 400.772 129.126C400.057 128.507 399.071 128.198 397.814 128.198C397.311 128.198 396.77 128.256 396.19 128.372C395.629 128.488 395.098 128.623 394.595 128.778C394.092 128.933 393.677 129.087 393.348 129.242C393.367 130.537 393.512 131.707 393.783 132.751C394.073 133.776 394.537 134.588 395.175 135.187C395.813 135.786 396.654 136.086 397.698 136.086ZM414.007 138.29C413.292 138.29 412.538 138.242 411.745 138.145C410.952 138.068 410.208 137.971 409.512 137.855C408.816 137.739 408.236 137.623 407.772 137.507L407.975 135.448C408.42 135.525 408.961 135.612 409.599 135.709C410.256 135.806 410.952 135.893 411.687 135.97C412.422 136.028 413.108 136.057 413.746 136.057C415.099 136.057 416.095 135.767 416.733 135.187C417.39 134.607 417.719 133.737 417.719 132.577C417.719 131.746 417.555 131.088 417.226 130.605C416.897 130.122 416.443 129.764 415.863 129.532C415.302 129.3 414.674 129.174 413.978 129.155H410.092V127.009H413.949C414.432 127.009 414.925 126.883 415.428 126.632C415.95 126.361 416.385 125.984 416.733 125.501C417.1 124.998 417.284 124.399 417.284 123.703C417.284 122.659 416.994 121.915 416.414 121.47C415.834 121.006 414.867 120.774 413.514 120.774C412.895 120.774 412.248 120.813 411.571 120.89C410.914 120.948 410.285 121.025 409.686 121.122C409.106 121.199 408.623 121.286 408.236 121.383L408.033 119.353C408.439 119.237 408.942 119.121 409.541 119.005C410.16 118.87 410.817 118.763 411.513 118.686C412.228 118.589 412.934 118.541 413.63 118.541C415.177 118.541 416.404 118.725 417.313 119.092C418.222 119.44 418.879 119.981 419.285 120.716C419.691 121.451 419.894 122.398 419.894 123.558C419.894 124.273 419.778 124.892 419.546 125.414C419.333 125.917 419.063 126.342 418.734 126.69C418.425 127.019 418.115 127.28 417.806 127.473C417.516 127.666 417.284 127.811 417.11 127.908C417.767 128.14 418.338 128.42 418.821 128.749C419.304 129.078 419.681 129.532 419.952 130.112C420.223 130.692 420.358 131.485 420.358 132.49C420.358 133.805 420.136 134.897 419.691 135.767C419.246 136.618 418.55 137.256 417.603 137.681C416.675 138.087 415.476 138.29 414.007 138.29ZM424.574 138V135.883L429.91 130.286C430.722 129.435 431.418 128.681 431.998 128.024C432.578 127.367 433.023 126.719 433.332 126.081C433.642 125.443 433.796 124.757 433.796 124.022C433.796 122.804 433.458 121.973 432.781 121.528C432.124 121.064 431.119 120.832 429.765 120.832C429.263 120.832 428.702 120.871 428.083 120.948C427.484 121.006 426.894 121.083 426.314 121.18C425.754 121.257 425.28 121.344 424.893 121.441L424.69 119.353C425.116 119.237 425.628 119.121 426.227 119.005C426.827 118.889 427.484 118.792 428.199 118.715C428.915 118.618 429.611 118.57 430.287 118.57C432.317 118.57 433.845 118.986 434.869 119.817C435.913 120.629 436.435 121.934 436.435 123.732C436.435 124.679 436.281 125.54 435.971 126.313C435.681 127.067 435.237 127.802 434.637 128.517C434.057 129.232 433.303 130.035 432.375 130.924L427.532 135.796H436.87V138H424.574ZM447.206 138.29C446.49 138.29 445.736 138.242 444.944 138.145C444.151 138.068 443.407 137.971 442.711 137.855C442.015 137.739 441.435 137.623 440.971 137.507L441.174 135.448C441.618 135.525 442.16 135.612 442.798 135.709C443.455 135.806 444.151 135.893 444.886 135.97C445.62 136.028 446.307 136.057 446.945 136.057C448.298 136.057 449.294 135.767 449.932 135.187C450.589 134.607 450.918 133.737 450.918 132.577C450.918 131.746 450.753 131.088 450.425 130.605C450.096 130.122 449.642 129.764 449.062 129.532C448.501 129.3 447.873 129.174 447.177 129.155H443.291V127.009H447.148C447.631 127.009 448.124 126.883 448.627 126.632C449.149 126.361 449.584 125.984 449.932 125.501C450.299 124.998 450.483 124.399 450.483 123.703C450.483 122.659 450.193 121.915 449.613 121.47C449.033 121.006 448.066 120.774 446.713 120.774C446.094 120.774 445.446 120.813 444.77 120.89C444.112 120.948 443.484 121.025 442.885 121.122C442.305 121.199 441.821 121.286 441.435 121.383L441.232 119.353C441.638 119.237 442.14 119.121 442.74 119.005C443.358 118.87 444.016 118.763 444.712 118.686C445.427 118.589 446.133 118.541 446.829 118.541C448.375 118.541 449.603 118.725 450.512 119.092C451.42 119.44 452.078 119.981 452.484 120.716C452.89 121.451 453.093 122.398 453.093 123.558C453.093 124.273 452.977 124.892 452.745 125.414C452.532 125.917 452.261 126.342 451.933 126.69C451.623 127.019 451.314 127.28 451.005 127.473C450.715 127.666 450.483 127.811 450.309 127.908C450.966 128.14 451.536 128.42 452.02 128.749C452.503 129.078 452.88 129.532 453.151 130.112C453.421 130.692 453.557 131.485 453.557 132.49C453.557 133.805 453.334 134.897 452.89 135.767C452.445 136.618 451.749 137.256 450.802 137.681C449.874 138.087 448.675 138.29 447.206 138.29ZM463.863 138.29C462.587 138.29 461.398 138.135 460.296 137.826C459.194 137.517 458.314 136.985 457.657 136.231C456.999 135.477 456.671 134.443 456.671 133.128C456.671 132.142 456.806 131.34 457.077 130.721C457.347 130.102 457.724 129.59 458.208 129.184C458.71 128.759 459.281 128.362 459.919 127.995C458.933 127.492 458.198 126.912 457.715 126.255C457.231 125.598 456.99 124.679 456.99 123.5C456.99 122.398 457.27 121.48 457.831 120.745C458.391 120.01 459.184 119.459 460.209 119.092C461.253 118.725 462.471 118.541 463.863 118.541C465.235 118.541 466.444 118.725 467.488 119.092C468.532 119.44 469.344 119.991 469.924 120.745C470.523 121.48 470.823 122.408 470.823 123.529C470.823 124.766 470.581 125.694 470.098 126.313C469.614 126.932 468.822 127.502 467.72 128.024C468.396 128.333 468.986 128.691 469.489 129.097C470.011 129.484 470.407 129.977 470.678 130.576C470.968 131.156 471.113 131.9 471.113 132.809C471.113 134.22 470.784 135.322 470.127 136.115C469.469 136.908 468.59 137.468 467.488 137.797C466.405 138.126 465.197 138.29 463.863 138.29ZM463.863 136.028C464.752 136.028 465.535 135.931 466.212 135.738C466.908 135.525 467.449 135.168 467.836 134.665C468.222 134.143 468.416 133.437 468.416 132.548C468.416 131.852 468.271 131.291 467.981 130.866C467.71 130.441 467.333 130.102 466.85 129.851C466.386 129.58 465.854 129.358 465.255 129.184H462.326C461.398 129.455 460.673 129.861 460.151 130.402C459.629 130.924 459.368 131.688 459.368 132.693C459.368 133.524 459.561 134.191 459.948 134.694C460.334 135.177 460.866 135.525 461.543 135.738C462.239 135.931 463.012 136.028 463.863 136.028ZM462.326 127.038H465.255C466.183 126.729 466.888 126.332 467.372 125.849C467.874 125.366 468.126 124.708 468.126 123.877C468.126 122.756 467.749 121.963 466.995 121.499C466.26 121.035 465.226 120.803 463.892 120.803C462.577 120.803 461.543 121.035 460.789 121.499C460.054 121.963 459.687 122.746 459.687 123.848C459.687 124.679 459.909 125.346 460.354 125.849C460.798 126.332 461.456 126.729 462.326 127.038Z" fill="#263238"/>
</svg>