<svg xmlns="http://www.w3.org/2000/svg" width="333" height="314" viewBox="0 0 333 314" fill="none">
<path d="M315.211 70.223H162.624V154.388H315.211V70.223Z" fill="#E0E0E0"/>
<path d="M310.809 75.2281H167.705V150.067H310.809V75.2281Z" fill="#EBEBEB"/>
<path d="M175.831 75.2281L253.446 150.061H271.708V142.864L200.16 75.2281H175.831Z" fill="#FAFAFA"/>
<path d="M262.864 75.2281L310.809 121.87V98.5458L284.555 75.2281H262.864Z" fill="#FAFAFA"/>
<path d="M319.593 161.641C318.208 156.096 315.511 150.525 310.602 147.348C305.694 144.17 298.228 144.27 294.525 148.717C293.554 147.019 292.079 145.626 290.281 144.707C288.483 143.788 286.44 143.383 284.402 143.542C282.366 143.788 280.449 144.584 278.882 145.832C277.314 147.081 276.162 148.731 275.564 150.582C271.875 146.186 264.475 145.307 259.793 148.698C257.223 144.823 253.766 141.074 249.137 140.057C244.509 139.039 238.768 142.129 238.808 146.732C234.032 142.895 225.588 145.024 223.363 150.632C219.722 148.27 215.37 147.078 210.954 147.233C206.538 147.388 202.292 148.882 198.848 151.492C192.294 145.683 183.283 141.859 174.532 143.328C165.781 144.798 158.062 152.748 159.027 161.302L319.593 161.641Z" fill="#E0E0E0"/>
<path d="M324.162 160.718H153.919V177.441H324.162V160.718Z" fill="#F5F5F5"/>
<path d="M134.126 60.7779H25.0616V293.647H134.126V60.7779Z" fill="#E0E0E0"/>
<path d="M136.563 94.6647H132.241V113.944H136.563V94.6647Z" fill="#EBEBEB"/>
<path d="M134.718 240.537H130.543V259.182H134.718V240.537Z" fill="#EBEBEB"/>
<path d="M127.053 69.2559H32.8205V282.776H127.053V69.2559Z" fill="#EBEBEB"/>
<path d="M53.7129 69.2559C54.652 69.2559 127.046 168.53 127.046 167.293V138.487L73.1534 69.2559H53.7129Z" fill="#FAFAFA"/>
<path d="M79.5937 69.2559L127.046 133.318V118.278L89.1508 69.2559H79.5937Z" fill="#FAFAFA"/>
<path d="M48.2917 161.013H43.643V205.714H48.2917V161.013Z" fill="#E0E0E0"/>
<path d="M46.5001 159.474H41.1721V203.918H46.5001V159.474Z" fill="#FAFAFA"/>
<path d="M113.18 27.4625V35.796C113.18 45.0151 120.912 52.4945 130.456 52.4945C139.993 52.4945 147.732 45.0151 147.732 35.796V27.4625H113.18Z" fill="#E0E0E0"/>
<path d="M148.032 27.4625V35.796C148.032 45.0151 155.764 52.4945 165.308 52.4945C174.845 52.4945 182.584 45.0151 182.584 35.796V27.4625H148.032Z" fill="#F5F5F5"/>
<path d="M182.884 27.4625V35.796C182.884 45.0151 190.616 52.4945 200.16 52.4945C209.697 52.4945 217.436 45.0151 217.436 35.796V27.4625H182.884Z" fill="#E0E0E0"/>
<path d="M288.251 242.979H265.934V248.55H288.251V242.979Z" fill="#F5F5F5"/>
<path d="M278.821 254.415C278.815 254.382 278.815 254.348 278.821 254.315C278.821 254.24 278.821 254.145 278.821 254.026C278.821 253.762 278.821 253.398 278.821 252.933C278.821 251.972 278.821 250.585 278.781 248.845L278.854 248.908L256.537 248.952C256.583 248.902 256.417 249.059 256.643 248.845V254.397L256.53 254.29L272.394 254.34H278.688H272.481L256.497 254.384H256.41V254.283C256.41 253.385 256.41 252.475 256.41 251.545V248.732C256.636 248.518 256.477 248.675 256.53 248.625L278.848 248.669H278.914V248.732C278.914 250.49 278.914 251.872 278.874 252.858C278.874 253.316 278.874 253.681 278.874 253.938C278.874 254.051 278.874 254.139 278.874 254.214C278.874 254.29 278.821 254.415 278.821 254.415Z" fill="#E0E0E0"/>
<path d="M311.528 223.989C311.525 223.947 311.525 223.905 311.528 223.863C311.528 223.769 311.528 223.65 311.528 223.499C311.528 223.172 311.528 222.708 311.528 222.117C311.528 220.905 311.528 219.159 311.482 216.961L311.568 217.043L283.383 217.093C283.45 217.037 283.243 217.232 283.53 216.961V223.989L283.39 223.857L303.476 223.92L309.404 223.957H311.575H309.45L303.556 223.995L283.37 224.052H283.23V220.459C283.23 219.875 283.23 219.285 283.23 218.688V216.892C283.523 216.616 283.316 216.817 283.376 216.754L311.561 216.804H311.648V216.886C311.648 219.103 311.615 220.868 311.601 222.092C311.601 222.676 311.601 223.128 311.601 223.455C311.601 223.599 311.601 223.712 311.601 223.8C311.589 223.867 311.564 223.93 311.528 223.989Z" fill="#E0E0E0"/>
<path d="M315.351 216.961C315.346 216.916 315.346 216.869 315.351 216.823C315.351 216.723 315.351 216.604 315.351 216.453C315.351 216.107 315.351 215.636 315.351 215.04C315.351 213.784 315.318 212.069 315.291 209.928L315.398 210.028L298.461 210.066L298.608 209.928V211.749C298.608 212.377 298.608 212.949 298.608 213.539V216.949L298.468 216.817L310.582 216.88L314.112 216.917H315.404H314.172L310.676 216.949L298.468 217.012H298.335V216.886C298.335 215.793 298.335 214.65 298.335 213.476V209.94L298.475 209.802L315.411 209.846H315.511V209.94C315.511 212.107 315.471 213.865 315.458 215.115C315.458 215.699 315.458 216.164 315.458 216.503C315.431 216.658 315.395 216.811 315.351 216.961Z" fill="#E0E0E0"/>
<path d="M310.183 293.439C310.183 293.527 244.708 293.603 163.963 293.603C83.2167 293.603 17.7289 293.527 17.7289 293.439C17.7289 293.351 83.1834 293.276 163.963 293.276C244.742 293.276 310.183 293.351 310.183 293.439Z" fill="#263238"/>
<path d="M203.017 293.314L106.307 293.276C103.543 293.279 100.806 292.769 98.2516 291.774C95.6972 290.779 93.3757 289.32 91.42 287.478C89.4642 285.637 87.9125 283.451 86.8534 281.043C85.7944 278.636 85.2489 276.056 85.248 273.45L85.2946 45.4861C85.299 42.8806 85.8478 40.3015 86.9096 37.8961C87.9714 35.4907 89.5255 33.3061 91.4831 31.4673C93.4406 29.6285 95.7632 28.1713 98.3182 27.1792C100.873 26.1871 103.61 25.6795 106.374 25.6852L203.09 25.748C208.668 25.7447 214.018 27.8299 217.966 31.5453C221.914 35.2606 224.135 40.3021 224.142 45.5614L224.096 273.525C224.082 278.785 221.853 283.824 217.901 287.534C213.948 291.245 208.594 293.324 203.017 293.314Z" fill="#263238"/>
<path d="M203.696 32.5242L184.882 32.4425C184.268 32.4515 183.662 32.5748 183.098 32.8052C182.535 33.0357 182.026 33.3688 181.599 33.7854C181.173 34.2021 180.838 34.694 180.614 35.2331C180.39 35.7721 180.28 36.3476 180.293 36.9265V40.1481C180.305 40.727 180.196 41.3024 179.972 41.8415C179.748 42.3805 179.413 42.8725 178.987 43.2891C178.56 43.7058 178.051 44.0389 177.487 44.2693C176.924 44.4998 176.318 44.623 175.704 44.632L139.034 44.4687C138.42 44.4549 137.815 44.3268 137.254 44.0918C136.692 43.8568 136.186 43.5196 135.763 43.0994C135.34 42.6792 135.01 42.1845 134.791 41.6435C134.571 41.1025 134.468 40.526 134.485 39.9471V36.7318C134.504 36.1524 134.401 35.5752 134.182 35.0335C133.963 34.4918 133.633 33.9963 133.21 33.5754C132.787 33.1546 132.28 32.8168 131.719 32.5814C131.157 32.346 130.551 32.2177 129.937 32.2039H123.317L106.853 32.1285C102.925 32.1135 99.1517 33.5696 96.3619 36.1767C93.572 38.7838 91.994 42.3288 91.9746 46.0325L90.9756 269.952C90.9659 271.785 91.3394 273.602 92.0746 275.299C92.8098 276.996 93.8924 278.539 95.2605 279.842C96.6285 281.144 98.2553 282.179 100.048 282.889C101.84 283.598 103.764 283.967 105.708 283.975L202.557 284.396C206.485 284.411 210.259 282.955 213.048 280.348C215.838 277.741 217.416 274.196 217.436 270.492L218.448 46.5474C218.458 44.7128 218.084 42.8944 217.347 41.1963C216.611 39.4982 215.526 37.9537 214.156 36.6512C212.786 35.3487 211.157 34.3137 209.362 33.6056C207.567 32.8974 205.642 32.5299 203.696 32.5242Z" fill="#F5F5F5"/>
<path d="M162.591 242.056C162.477 244.757 162.371 247.294 162.284 249.404H176.197L174.492 241.347L162.591 242.056Z" fill="#F5F5F5"/>
<path d="M106.047 245.429L106.174 249.404H160.899C160.992 247.168 161.092 244.694 161.199 242.138L106.047 245.429Z" fill="#F5F5F5"/>
<path d="M175.198 241.303L176.91 249.404H202.557L202.244 239.689L175.198 241.303Z" fill="#F5F5F5"/>
<path d="M163.982 128.081L168.831 101.566L156.124 100.675V128.081H163.982Z" fill="#EBEBEB"/>
<path d="M104.908 230.708L91.1221 235.801L91.0755 245.008L105.315 244.16L104.908 230.708Z" fill="#F5F5F5"/>
<path d="M104.842 228.636L104.089 203.943H104.076V195.233L91.2953 196.508L91.1288 233.685L104.835 228.623L104.842 228.636Z" fill="#EBEBEB"/>
<path d="M104.076 175.79L91.3952 174.214L91.3019 194.536L104.076 193.261V175.79Z" fill="#F5F5F5"/>
<path d="M198.601 195.603L198.068 202.674L183.09 204.201L184.249 209.802L201.259 208.59L200.999 200.564L202.357 195.245L198.601 195.603Z" fill="#F5F5F5"/>
<path d="M171.608 210.7L183.556 209.853L180.952 197.28L170.529 198.272L171.608 210.7Z" fill="#F5F5F5"/>
<path d="M171.721 212L172.634 222.482L174.252 236.863L174.918 240.009L202.204 238.376L201.299 209.903L171.721 212Z" fill="#EBEBEB"/>
<path d="M124.762 162.52L125.814 164.216L104.775 175.79V203.24L126.98 201.758L169.777 197.688L168.212 179.69L127.326 174.666L127.592 172.719L168.038 177.724L165.374 147.266L125.341 150.896L125.208 149.596L165.261 145.966L163.876 130.071H125.381L91.5684 135.874L91.4019 172.267L104.209 173.856L124.762 162.52ZM106.926 200.621C106.926 200.621 107.086 178.013 106.926 177.14L124.096 168.53L126.32 199.465L106.926 200.621Z" fill="#F5F5F5"/>
<path d="M197.203 195.735L181.645 197.217L182.824 202.913L196.77 201.494L197.203 195.735Z" fill="#F5F5F5"/>
<path d="M162.79 237.202C162.737 238.395 162.69 239.576 162.644 240.738L174.219 240.047L173.626 237.233L162.79 237.202Z" fill="#F5F5F5"/>
<path d="M137.849 128.081L139.887 119.358H155.431V100.631L106.826 97.2333V114.824L91.6483 118.058L91.575 133.846L125.195 128.081H137.849Z" fill="#EBEBEB"/>
<path d="M170.283 75.988L169.863 74.3803L188.425 67.4723L176.35 44.588C176.13 44.6208 175.907 44.6376 175.684 44.6383L155.178 44.5378L155.737 76.5218L170.283 75.988Z" fill="#F5F5F5"/>
<path d="M198.408 63.7043V32.5053L184.902 32.4425C184.288 32.4515 183.682 32.5747 183.118 32.8052C182.555 33.0357 182.046 33.3688 181.619 33.7854C181.193 34.202 180.858 34.694 180.634 35.233C180.41 35.7721 180.3 36.3475 180.313 36.9264V40.1481C180.313 40.8687 180.132 41.579 179.785 42.2209C179.437 42.8628 178.934 43.4179 178.315 43.8407L190.396 66.7062L198.408 63.7043Z" fill="#EBEBEB"/>
<path d="M128.638 65.0483L127.073 32.1913H123.31L108.658 32.1223L102.404 61.5001L128.638 65.0483ZM125.308 35.5323L125.807 62.2914L106.3 59.5973L110.556 35.5197L125.308 35.5323Z" fill="#F5F5F5"/>
<path d="M129.344 65.1425V65.4188C129.377 67.9873 129.43 72.5969 129.47 77.5329L155.032 76.547L154.472 44.519L139.008 44.4499C138.394 44.4361 137.788 44.308 137.227 44.073C136.666 43.838 136.159 43.5007 135.737 43.0806C135.314 42.6604 134.983 42.1656 134.764 41.6247C134.545 41.0837 134.441 40.5072 134.459 39.9283V36.7129C134.477 36.1335 134.374 35.5564 134.155 35.0147C133.937 34.473 133.606 33.9774 133.183 33.5566C132.761 33.1358 132.254 32.7979 131.692 32.5625C131.13 32.3272 130.525 32.1989 129.91 32.1851H127.745L129.317 65.1299L129.344 65.1425Z" fill="#F5F5F5"/>
<path d="M100.313 61.2112L106.507 32.1223C102.64 32.1862 98.953 33.6751 96.2357 36.2703C93.5184 38.8654 91.9865 42.3605 91.968 46.0073L91.908 60.5079L91.968 60.0808L100.313 61.2112Z" fill="#F5F5F5"/>
<path d="M104.748 97.0888L91.7481 96.1782L91.6549 116.042L104.748 113.254V97.0888Z" fill="#F5F5F5"/>
<path d="M100.173 61.8517L91.908 60.7339L91.7615 92.9L93.5397 93.0257L100.173 61.8517Z" fill="#F5F5F5"/>
<path d="M126.433 228.259L126.653 202.436L104.782 203.893L105.554 229.195L126.433 228.259Z" fill="#F5F5F5"/>
<path d="M130.456 222.312L161.432 236.304C161.805 227.16 162.131 218.613 162.098 218.092L162.764 218.06L163.09 217.432C163.53 217.64 163.53 217.64 163.297 223.876C163.17 227.355 162.984 231.983 162.797 236.612H173.513L171.928 222.576L169.83 198.341L129.364 202.216L130.456 222.312Z" fill="#F5F5F5"/>
<path d="M155.431 121.323H141.565L139.98 128.081H155.431V121.323Z" fill="#F5F5F5"/>
<path d="M200.652 123.603L165.914 121.336L164.502 129.073L165.96 145.872L202.59 142.55L200.652 123.603ZM167.166 129.06L169.031 124.174L199.201 125.977L200.952 139.95L168.192 143.611L167.166 129.06Z" fill="#F5F5F5"/>
<path d="M204.256 158.708L202.73 143.85L166.08 147.172L167.452 162.979L204.256 158.708Z" fill="#F5F5F5"/>
<path d="M105.355 245.466L91.1355 246.314L91.0755 245.441L91.0555 249.404H105.474L105.355 245.466Z" fill="#F5F5F5"/>
<path d="M218.175 56.3316L218.381 56.8278L218.448 46.5474C218.458 44.7144 218.084 42.8975 217.349 41.2007C216.614 39.5038 215.531 37.9601 214.163 36.6578C212.795 35.3556 211.168 34.3202 209.376 33.611C207.583 32.9017 205.66 32.5324 203.716 32.5242H199.101L199.134 63.4281L218.175 56.3316Z" fill="#EBEBEB"/>
<path d="M161.405 237.007L129.79 222.72L128.671 202.254L127.339 202.379L127.119 228.887L105.574 229.848V230.438L105.987 244.104L161.265 240.807C161.305 239.557 161.352 238.276 161.405 237.007ZM106.926 231.531L137.089 229.54L156.716 238.125L106.926 240.637V231.531Z" fill="#F5F5F5"/>
<path d="M209.191 90.6958L210.456 83.4612C199.134 79.643 198.335 68.496 198.368 65.1174L190.962 67.8806L202.111 88.9751L209.191 90.6958Z" fill="#F5F5F5"/>
<path d="M168.738 177.724L184.156 176.211L181.112 163.374L167.625 164.938L168.738 177.724Z" fill="#F5F5F5"/>
<path d="M201.991 103.281H173.2L170.809 103.111L167.559 120.89L201.738 123.119L200.939 115.389L204.302 103.972L201.991 103.281Z" fill="#F5F5F5"/>
<path d="M200 98.5144L200.366 90.0238L189.044 68.609L171.502 75.1528L177.536 98.5144H200ZM188.365 71.2152L198.734 89.804L197.236 95.6004L179.494 94.9724L175.058 77.3884L188.365 71.2152Z" fill="#F5F5F5"/>
<path d="M204.482 200.904L205.015 217.571L217.489 216.905L217.529 217.558L205.035 218.224L205.667 238.175L217.462 237.472L217.549 238.778L205.714 239.482L206.027 249.404H217.522L217.769 193.776L206.014 194.894L204.482 200.904Z" fill="#F5F5F5"/>
<path d="M128.658 65.7077L102.238 62.1343L95.6309 93.1701L128.771 95.4874C128.904 90.7083 128.791 76.0508 128.658 65.7077Z" fill="#EBEBEB"/>
<path d="M172.108 98.5144H176.104L170.449 76.6097L155.744 77.1749L156.097 97.3965L172.108 98.5144Z" fill="#F5F5F5"/>
<path d="M129.45 95.5314L155.424 97.3463L155.071 77.2064L129.504 78.186C129.537 84.9998 129.557 92.2658 129.45 95.5314Z" fill="#F5F5F5"/>
<path d="M204.455 160.661L181.805 163.293L184.848 176.141L205.834 174.082L204.455 160.661Z" fill="#F5F5F5"/>
<path d="M210.596 82.8018L212.048 74.688L218.302 75.1465L218.381 57.663L199.067 64.8598C198.701 77.1624 206.9 81.4893 210.596 82.8018Z" fill="#EBEBEB"/>
<path d="M203.17 114.183L203.962 121.851L218.088 122.774L218.162 106.98L206.333 103.457L203.17 114.183Z" fill="#F5F5F5"/>
<path d="M209.897 179.671L206.187 194.222L217.775 193.116L217.842 177.862C214.285 176.983 211.182 176.261 209.517 175.978L209.897 179.671Z" fill="#F5F5F5"/>
<path d="M202.078 98.7593L218.175 103.557L218.215 94.9222L202.404 91.0663L202.078 98.7593Z" fill="#F5F5F5"/>
<path d="M209.31 173.956C210.642 174.138 213.067 174.628 217.849 175.84L218.002 142.487L206.187 143.555L209.31 173.956Z" fill="#F5F5F5"/>
<path d="M206.054 142.236L218.008 141.149L218.082 124.74L204.162 123.835L206.054 142.236Z" fill="#F5F5F5"/>
<path d="M211.935 83.2163C214.015 83.8238 216.127 84.3311 218.262 84.736V76.459L213.173 76.0822L211.935 83.2163Z" fill="#F5F5F5"/>
<path d="M210.536 91.0224L218.222 92.9064V85.4269C216.224 85.0501 214.092 84.5414 211.781 83.882L210.536 91.0224Z" fill="#F5F5F5"/>
<path d="M217.549 238.778L217.462 237.472L205.667 238.175L205.035 218.224L217.529 217.558L217.489 216.93L205.015 217.596L204.482 200.929L206.014 194.919L217.782 193.776V193.116L206.194 194.222L209.903 179.671L209.524 175.959C211.189 176.261 214.292 176.983 217.849 177.843V175.84C213.067 174.653 210.609 174.163 209.31 173.956L206.187 143.529L218.002 142.462V141.143L206.047 142.229L204.156 123.823L218.075 124.733V122.774L203.963 121.832L203.17 114.164L206.333 103.438L218.162 106.961V103.538L202.064 98.7404L202.391 91.0474L218.202 94.9034V92.8749L210.516 90.9909L211.788 83.8694C214.099 84.4974 216.244 85.0375 218.228 85.4143V84.736C216.093 84.3311 213.982 83.8238 211.901 83.2163L213.173 76.0822L218.262 76.459V75.1465L212.008 74.688L210.556 82.8018C206.86 81.4893 198.661 77.1498 199.054 64.8598L218.368 57.663V56.8277L218.162 56.3316L199.134 63.428V32.4864H198.468V63.6855L190.429 66.6873L178.288 43.8407C177.715 44.2318 177.05 44.4881 176.35 44.588L188.425 67.4346L169.863 74.3426L170.283 75.9503L155.737 76.5093L155.178 44.5378H154.512L155.071 76.5658L129.51 77.5517C129.47 72.6156 129.417 68.0061 129.384 65.4376V65.1613L127.812 32.2164H127.146L128.711 65.0734L102.451 61.5126L108.705 32.1348H106.92C106.8 32.1348 106.693 32.1348 106.58 32.1348L100.386 61.2237L92.0412 60.0933L91.9813 60.5204V60.7465L100.253 61.8643L93.593 93.0382L91.8148 92.9126V96.1908L104.815 97.1014V113.266L91.7215 116.054V118.064L106.9 114.83V97.2458L155.518 100.643V119.37H139.893L137.862 128.112H125.208L91.5883 133.877V135.874L125.401 130.071H163.909L165.295 145.966L125.208 149.564L125.341 150.864L165.374 147.235L168.038 177.693L127.592 172.7L127.326 174.647L168.212 179.671L169.777 197.669L126.98 201.739L104.775 203.221V175.79L125.814 164.216L124.762 162.52L104.209 173.824L91.4019 172.235V174.214L104.056 175.79V193.261L91.282 194.517V196.489L104.063 195.233V203.943L104.815 228.636L91.1088 233.698V235.814L104.895 230.721L105.301 244.173L91.0622 245.02V245.454L91.1221 246.327L105.341 245.479L105.461 249.416H106.127L106.001 245.441L161.172 242.138C161.065 244.694 160.966 247.162 160.872 249.404H162.258C162.344 247.294 162.451 244.757 162.564 242.056L174.492 241.347L176.19 249.404H176.896L175.185 241.303L202.238 239.689L202.551 249.404H206.02M162.637 240.738C162.684 239.576 162.73 238.395 162.784 237.202L173.62 237.233L174.212 240.047L162.637 240.738ZM174.912 240.009L174.246 236.869L172.627 222.494L171.715 212.007L201.292 209.909L202.198 238.389L174.912 240.009ZM181.645 197.192L197.203 195.71L196.77 201.469L182.824 202.888L181.645 197.192ZM180.979 197.255L183.583 209.815L171.635 210.663L170.556 198.234L180.979 197.255ZM201.285 208.559L184.276 209.771L183.117 204.169L198.095 202.643L198.635 195.572L202.384 195.214L201.052 200.533L201.285 208.559ZM181.139 163.343L184.182 176.179L168.738 177.724L167.626 164.938L181.139 163.343ZM184.875 176.11L181.818 163.28L204.462 160.649L205.841 174.069L184.875 176.11ZM200.466 121.618L166.287 119.389L169.537 101.61L171.928 101.78H200.719L203.03 102.464L199.667 113.888L200.466 121.618ZM198.408 65.0985C198.375 68.4771 199.154 79.6241 210.496 83.4424L209.204 90.6769L202.151 88.9562L191.002 67.8617L198.408 65.0985ZM189.084 68.5902L200.406 90.005L200.04 98.4955H177.536L171.502 75.1339L189.084 68.5902ZM170.449 76.616L176.104 98.5207H172.108L156.124 97.4028L155.771 77.1812L170.449 76.616ZM155.051 77.244L155.404 97.384L129.43 95.569C129.537 92.3034 129.517 85.0375 129.43 78.2237L155.051 77.244ZM102.238 62.172L128.658 65.7453C128.791 76.0885 128.904 90.746 128.771 95.5251L95.631 93.2078L102.238 62.172ZM168.838 101.604L163.976 128.112H156.124V100.675L168.838 101.604ZM141.572 121.361H155.438V128.112H139.987L141.572 121.361ZM164.502 129.073L165.914 121.336L200.652 123.603L202.597 142.556L165.967 145.878L164.502 129.073ZM202.73 143.85L204.256 158.708L167.452 162.979L166.074 147.172L202.73 143.85ZM168.911 179.677L206.04 176.035L206.387 179.445L202.531 194.567L170.496 197.619L168.911 179.677ZM171.941 222.544L173.526 236.58H162.81C162.997 231.952 163.183 227.323 163.31 223.844C163.543 217.608 163.543 217.608 163.103 217.401L162.777 218.029L162.111 218.06C162.111 218.607 161.811 227.154 161.445 236.272L130.456 222.312L129.364 202.216L169.83 198.341L171.941 222.544ZM126.653 202.448L126.433 228.272L105.554 229.22L104.782 203.918L126.653 202.448ZM105.594 230.476V229.886L127.146 228.925L127.366 202.417L128.698 202.291L129.817 222.758L161.432 237.045C161.378 238.301 161.332 239.595 161.279 240.857L106.001 244.154L105.594 230.476Z" fill="white"/>
<path d="M137.089 229.534L106.926 231.531V240.662L156.716 238.125L137.089 229.534Z" fill="#E0E0E0"/>
<path d="M199.227 125.977L169.057 124.181L167.193 129.06L168.218 143.611L200.972 139.95L199.227 125.977Z" fill="#E0E0E0"/>
<path d="M91.575 128.112L90.9689 265.368V270.392C91.1687 277.928 97.0495 283.925 105.048 283.963L202.591 284.415C206.513 284.425 210.279 282.966 213.062 280.359C215.844 277.752 217.415 274.21 217.429 270.511L218.095 128.125L91.575 128.112Z" fill="white"/>
<path d="M126.38 63.9869L125.881 37.2278H111.142L106.866 61.2928L126.38 63.9869Z" fill="#E0E0E0"/>
<path d="M197.236 95.613L198.734 89.8166L188.365 71.2152L175.058 77.3885L179.494 94.9787L197.236 95.613Z" fill="#EBEBEB"/>
<path d="M110.762 89.4775C110.75 88.8098 110.576 88.1535 110.254 87.5586C109.933 86.9636 109.472 86.4456 108.906 86.0438C108.34 85.6421 107.685 85.3672 106.989 85.2399C106.294 85.1127 105.577 85.1365 104.893 85.3096C104.209 85.4826 103.576 85.8004 103.041 86.2387C102.507 86.677 102.086 87.2243 101.809 87.8392C101.533 88.454 101.408 89.1201 101.446 89.787C101.483 90.454 101.681 91.1041 102.025 91.688C102.204 91.9769 102.431 92.1779 102.657 92.4793L105.381 95.8831C105.461 95.9773 105.562 96.0534 105.678 96.1057C105.793 96.158 105.919 96.1852 106.047 96.1852C106.175 96.1852 106.301 96.158 106.417 96.1057C106.532 96.0534 106.633 95.9773 106.713 95.8831L109.377 92.5359C109.616 92.2656 109.839 91.9825 110.043 91.688C110.486 91.0242 110.734 90.2614 110.762 89.4775ZM106.067 91.3992C105.659 91.3992 105.26 91.285 104.92 91.0711C104.581 90.8572 104.316 90.5531 104.16 90.1974C104.003 89.8416 103.963 89.4502 104.042 89.0726C104.122 88.6949 104.319 88.348 104.607 88.0758C104.896 87.8035 105.264 87.6181 105.664 87.543C106.065 87.4679 106.48 87.5064 106.857 87.6538C107.235 87.8011 107.557 88.0506 107.784 88.3708C108.011 88.6909 108.132 89.0673 108.132 89.4524C108.132 89.9687 107.914 90.4639 107.527 90.829C107.14 91.1941 106.615 91.3992 106.067 91.3992Z" fill="#679632"/>
<path d="M203.796 57.6881C203.781 57.0205 203.605 56.3649 203.281 55.771C202.958 55.1771 202.495 54.6605 201.928 54.2605C201.361 53.8605 200.705 53.5875 200.009 53.4623C199.313 53.3372 198.597 53.363 197.913 53.538C197.23 53.713 196.598 54.0325 196.065 54.4723C195.532 54.912 195.112 55.4604 194.838 56.076C194.563 56.6915 194.441 57.3579 194.48 58.0246C194.52 58.6913 194.719 59.3408 195.065 59.9238C195.245 60.2064 195.471 60.4137 195.697 60.7151L198.421 64.1188C198.502 64.2121 198.603 64.2872 198.719 64.3388C198.834 64.3904 198.96 64.4172 199.087 64.4172C199.215 64.4172 199.341 64.3904 199.456 64.3388C199.571 64.2872 199.673 64.2121 199.753 64.1188L202.417 60.7716C202.656 60.4988 202.878 60.2136 203.083 59.9175C203.531 59.2492 203.778 58.4785 203.796 57.6881ZM199.134 59.6161C198.726 59.6161 198.326 59.5019 197.987 59.288C197.647 59.0741 197.383 58.77 197.227 58.4143C197.07 58.0586 197.029 57.6671 197.109 57.2895C197.189 56.9118 197.385 56.565 197.674 56.2927C197.963 56.0204 198.331 55.835 198.731 55.7599C199.132 55.6848 199.547 55.7233 199.924 55.8707C200.301 56.018 200.624 56.2676 200.851 56.5877C201.077 56.9079 201.199 57.2842 201.199 57.6693C201.199 57.9292 201.144 58.1866 201.037 58.4261C200.929 58.6656 200.773 58.8825 200.575 59.064C200.378 59.2454 200.144 59.3877 199.887 59.4826C199.63 59.5774 199.356 59.6228 199.081 59.6161H199.134Z" fill="#679632"/>
<path d="M200.699 100.989H177.422L154.845 98.797L154.718 77.5204L129.803 77.8406L129.197 97.07L106.733 96.2348L106.76 95.6068L128.551 96.4169L129.157 77.2252L155.384 76.8861L155.511 98.2255L177.456 100.367L200.033 100.361V90.0929L189.624 67.5791L198.255 63.428L198.561 63.987L190.483 67.868L200.699 89.961V100.989Z" fill="#679632"/>
<path d="M90.9689 240.738H217.782V271.013C217.782 274.554 216.29 277.95 213.635 280.454C210.98 282.958 207.378 284.365 203.623 284.365H105.474C103.568 284.364 101.681 284.009 99.9198 283.32C98.159 282.631 96.5594 281.622 95.2124 280.35C93.8653 279.078 92.7972 277.568 92.0691 275.907C91.341 274.246 90.9672 272.466 90.9689 270.668V240.738Z" fill="#679632"/>
<path d="M217.576 203.372H91.0755V240.254H217.576V203.372Z" fill="white"/>
<path d="M129.437 262.981L129.99 261.826C130.671 262.27 131.479 262.511 132.308 262.517C133.273 262.517 133.64 262.215 133.64 261.807C133.64 260.551 129.564 261.418 129.564 258.962C129.564 257.838 130.523 256.902 132.521 256.902C133.374 256.885 134.217 257.087 134.958 257.486L134.452 258.648C133.872 258.318 133.212 258.132 132.534 258.108C131.575 258.108 131.202 258.453 131.202 258.868C131.202 260.086 135.285 259.245 135.285 261.675C135.285 262.78 134.312 263.729 132.308 263.729C131.293 263.758 130.292 263.498 129.437 262.981Z" fill="white"/>
<path d="M141.858 262.404V263.66H136.423V257.015H141.751V258.271H138.055V259.703H141.319V260.896H138.055V262.429L141.858 262.404Z" fill="white"/>
<path d="M143.117 257.015H144.742V262.385H148.265V263.641H143.117V257.015Z" fill="white"/>
<path d="M154.612 262.404V263.66H149.184V257.015H154.512V258.271H150.816V259.703H154.079V260.896H150.816V262.429L154.612 262.404Z" fill="white"/>
<path d="M155.444 260.325C155.491 259.612 155.759 258.928 156.214 258.357C156.67 257.786 157.293 257.354 158.006 257.114C158.719 256.874 159.492 256.837 160.227 257.007C160.963 257.177 161.629 257.547 162.144 258.07L161.099 258.981C160.885 258.735 160.615 258.538 160.31 258.403C160.004 258.268 159.671 258.2 159.334 258.202C158.759 258.232 158.218 258.468 157.822 258.862C157.426 259.256 157.205 259.779 157.205 260.322C157.205 260.865 157.426 261.387 157.822 261.781C158.218 262.176 158.759 262.412 159.334 262.441C159.672 262.446 160.007 262.378 160.313 262.242C160.619 262.106 160.887 261.905 161.099 261.656L162.144 262.567C161.632 263.093 160.966 263.465 160.231 263.637C159.495 263.81 158.722 263.774 158.008 263.535C157.294 263.296 156.67 262.864 156.214 262.293C155.758 261.723 155.491 261.038 155.444 260.325Z" fill="white"/>
<path d="M164.622 258.259H162.371V257.003H168.498V258.259H166.254V263.634H164.629L164.622 258.259Z" fill="white"/>
<path d="M171.761 260.325C171.803 259.607 172.069 258.916 172.526 258.34C172.983 257.764 173.61 257.328 174.329 257.087C175.048 256.846 175.826 256.811 176.566 256.986C177.306 257.161 177.975 257.538 178.488 258.07L177.442 258.981C177.228 258.735 176.959 258.538 176.654 258.403C176.348 258.268 176.015 258.199 175.677 258.202C175.102 258.232 174.561 258.468 174.165 258.862C173.769 259.256 173.549 259.779 173.549 260.322C173.549 260.865 173.769 261.387 174.165 261.781C174.561 262.176 175.102 262.412 175.677 262.441C176.016 262.446 176.35 262.378 176.656 262.242C176.962 262.106 177.231 261.905 177.442 261.656L178.488 262.567C177.975 263.093 177.31 263.465 176.574 263.637C175.839 263.81 175.066 263.774 174.352 263.535C173.638 263.296 173.014 262.864 172.558 262.293C172.102 261.723 171.834 261.038 171.788 260.325H171.761Z" fill="white"/>
<path d="M184.036 262.215H180.779L180.153 263.634H178.488L181.618 257.015H183.223L186.367 263.634H184.662L184.036 262.215ZM183.523 261.053L182.411 258.541L181.299 261.053H183.523Z" fill="white"/>
<path d="M191.568 263.634L190.236 261.788H188.738V263.634H187.113V257.015H190.156C192.028 257.015 193.207 257.932 193.207 259.414C193.225 259.861 193.096 260.302 192.837 260.677C192.578 261.051 192.202 261.341 191.761 261.506L193.333 263.634H191.568ZM190.043 258.259H188.711V260.57H190.043C191.035 260.57 191.542 260.136 191.542 259.414C191.542 258.692 191.035 258.259 190.043 258.259Z" fill="white"/>
<path d="M185.601 214.205C185.601 214.205 186.447 214.644 187.506 215.165C188.565 215.687 189.417 216.101 189.424 216.089C189.43 216.076 188.578 215.649 187.519 215.128C186.46 214.606 185.607 214.192 185.601 214.205Z" fill="#FAFAFA"/>
<path d="M176.09 214.481H176.124L176.224 214.525C176.317 214.563 176.437 214.619 176.59 214.676L177.775 215.197C178.235 215.41 178.648 215.605 178.947 215.756L179.3 215.925L179.394 215.969H179.434H179.4L179.307 215.919L178.961 215.737C178.668 215.586 178.255 215.379 177.795 215.172C177.336 214.964 176.91 214.782 176.596 214.663L176.23 214.519L176.13 214.481C176.13 214.481 176.097 214.475 176.09 214.481Z" fill="#FAFAFA"/>
<path d="M177.203 214.374L177.429 214.481L177.962 214.745L178.481 215.04L178.694 215.159C178.637 215.101 178.569 215.052 178.495 215.015C178.368 214.933 178.188 214.82 177.982 214.713C177.775 214.606 177.582 214.519 177.442 214.456C177.366 214.42 177.286 214.393 177.203 214.374Z" fill="#FAFAFA"/>
<path d="M194.652 214.336C194.652 214.336 195.211 214.556 195.911 214.807C196.61 215.059 197.176 215.26 197.183 215.253C197.189 215.247 196.623 215.027 195.924 214.776C195.225 214.525 194.659 214.324 194.652 214.336Z" fill="#FAFAFA"/>
<path d="M195.378 214.11C195.378 214.11 195.857 214.299 196.463 214.506C197.069 214.713 197.556 214.877 197.562 214.864C197.569 214.851 197.083 214.676 196.477 214.468C195.871 214.261 195.378 214.104 195.378 214.11Z" fill="#FAFAFA"/>
<g opacity="0.6">
<path d="M161.172 149.615C161.838 149.615 162.444 149.583 163.083 149.539C163.153 149.541 163.22 149.521 163.277 149.483C163.343 149.433 163.343 149.345 163.35 149.263C163.373 149.101 163.36 148.937 163.312 148.78C163.264 148.623 163.181 148.478 163.07 148.352C162.899 148.236 162.695 148.171 162.484 148.164C161.961 148.113 161.433 148.164 160.932 148.315L161.172 149.615Z" fill="white"/>
</g>
<g opacity="0.6">
<path d="M207.585 145.596H205.301C205.149 145.595 204.999 145.634 204.869 145.708C204.739 145.783 204.632 145.889 204.562 146.016C204.506 146.124 204.477 146.242 204.477 146.362C204.477 146.481 204.506 146.6 204.562 146.707L205.454 148.591H207.739C207.739 148.591 208.198 146.173 207.585 145.596Z" fill="white"/>
</g>
<path d="M208.491 150.255C208.491 150.255 207.712 150.255 206.746 150.255C205.781 150.255 204.995 150.255 204.995 150.255C204.995 150.255 205.774 150.255 206.746 150.255C207.719 150.255 208.491 150.243 208.491 150.255Z" fill="#263238"/>
<path d="M163.17 150.318C163.17 150.318 162.544 150.318 161.778 150.318C161.012 150.318 160.379 150.318 160.379 150.318C160.379 150.318 161.005 150.318 161.778 150.318C162.551 150.318 163.17 150.306 163.17 150.318Z" fill="#263238"/>
<path d="M186.3 142.556C186.3 142.556 185.468 142.895 184.429 143.291C183.39 143.686 182.551 144 182.544 143.988C182.537 143.975 183.376 143.649 184.415 143.253C185.454 142.857 186.3 142.518 186.3 142.556Z" fill="white"/>
<path d="M184.602 142.776C184.602 142.776 183.809 143.121 182.824 143.517C181.838 143.913 181.032 144.233 181.025 144.22C181.019 144.208 181.818 143.881 182.81 143.485C183.803 143.09 184.602 142.77 184.602 142.776Z" fill="white"/>
<path d="M195.371 142.393C195.371 142.393 194.532 142.732 193.5 143.128C192.467 143.523 191.615 143.812 191.608 143.812C191.602 143.812 192.447 143.473 193.48 143.077C194.512 142.682 195.364 142.38 195.371 142.393Z" fill="white"/>
<path d="M193.673 142.638C193.673 142.638 192.88 142.983 191.888 143.379C190.896 143.774 190.096 144.095 190.09 144.088C190.083 144.082 190.882 143.743 191.875 143.347C192.867 142.952 193.666 142.631 193.673 142.638Z" fill="white"/>
<path d="M165.481 145.815H165.434H165.308L165.101 145.847L164.828 145.884C164.628 145.922 164.389 145.966 164.129 146.035C163.847 146.108 163.569 146.194 163.296 146.293C163.023 146.393 162.756 146.508 162.497 146.638C162.258 146.755 162.051 146.868 161.878 146.977L161.645 147.122L161.478 147.235L161.372 147.304H161.332L161.432 147.228L161.605 147.109L161.838 146.952C162.004 146.845 162.218 146.726 162.451 146.607C162.712 146.477 162.981 146.362 163.257 146.261C163.528 146.159 163.806 146.073 164.089 146.004C164.322 145.944 164.557 145.896 164.795 145.859L165.068 145.822H165.275H165.454L165.481 145.815Z" fill="white"/>
<path d="M204.029 142.186C203.922 142.209 203.812 142.22 203.703 142.217C203.573 142.216 203.443 142.201 203.316 142.173C203.148 142.138 202.983 142.089 202.824 142.029C202.65 141.966 202.457 141.89 202.251 141.802L201.931 141.683L201.592 141.564C201.076 141.401 200.551 141.267 200.02 141.162C199.054 140.972 198.074 140.857 197.089 140.816H196.577H195.911H196.157H197.056C198.043 140.848 199.026 140.96 199.993 141.149C200.528 141.254 201.055 141.391 201.572 141.558C201.685 141.601 201.805 141.633 201.911 141.677L202.231 141.802C202.437 141.884 202.624 141.966 202.804 142.029C202.961 142.092 203.123 142.142 203.29 142.179C203.415 142.206 203.542 142.223 203.669 142.229H203.909H203.976L204.029 142.186Z" fill="#263238"/>
<g opacity="0.6">
<path d="M154.172 184.324C154.172 184.324 156.99 183.878 157.675 183.904C157.957 183.897 158.237 183.931 158.508 184.004C158.508 184.004 157.029 185.781 156.577 185.888C155.619 185.949 154.657 185.949 153.699 185.888L154.172 184.324Z" fill="white"/>
</g>
<g opacity="0.6">
<path d="M205.661 183.539L205.747 186.786H207.352C207.352 186.786 207.273 184.594 207.239 183.86C207.235 183.799 207.208 183.741 207.162 183.698C207.117 183.654 207.057 183.627 206.993 183.621L205.661 183.539Z" fill="white"/>
</g>
<path d="M207.226 189.562H207.066H206.627L205.175 189.524H203.729H203.29H203.13H203.29H203.729C204.096 189.524 204.615 189.524 205.181 189.524C205.747 189.524 206.26 189.556 206.627 189.574L207.066 189.606C207.116 189.583 207.17 189.568 207.226 189.562Z" fill="#263238"/>
<path d="M152.847 189.964C152.847 189.964 153.713 189.964 154.785 189.964C155.857 189.964 156.723 189.964 156.723 189.964C156.723 189.964 155.857 189.964 154.785 189.964C153.713 189.964 152.847 189.976 152.847 189.964Z" fill="#263238"/>
<path d="M186.234 174.867C186.234 174.867 184.715 174.867 182.837 174.867C180.959 174.867 179.44 174.867 179.44 174.867C179.44 174.867 180.959 174.867 182.837 174.867C184.715 174.867 186.234 174.854 186.234 174.867Z" fill="white"/>
<path d="M162.657 185.737H162.411C162.189 185.726 161.967 185.726 161.745 185.737C161.001 185.81 160.281 186.023 159.627 186.365C158.975 186.699 158.401 187.154 157.942 187.703C157.801 187.869 157.672 188.043 157.556 188.224C157.509 188.287 157.482 188.344 157.456 188.375V188.425V188.369C157.456 188.331 157.502 188.281 157.542 188.218C157.654 188.032 157.778 187.854 157.915 187.684C158.368 187.118 158.945 186.651 159.607 186.315C160.27 185.979 161.001 185.782 161.751 185.737C161.973 185.722 162.196 185.722 162.417 185.737H162.604H162.657Z" fill="white"/>
<path d="M156.976 190.391C156.948 190.21 156.948 190.026 156.976 189.844C156.987 189.66 157.025 189.478 157.089 189.304C157.089 189.304 157.089 189.549 157.029 189.844C157.026 190.027 157.008 190.21 156.976 190.391Z" fill="white"/>
<path d="M153.719 186.704C153.719 186.704 153.653 186.861 153.553 187.106C153.424 187.428 153.32 187.757 153.24 188.092C153.157 188.429 153.099 188.771 153.067 189.116C153.067 189.38 153.034 189.543 153.027 189.543C153.024 189.505 153.024 189.468 153.027 189.43C153.027 189.355 153.027 189.248 153.027 189.116C153.048 188.769 153.099 188.425 153.18 188.086C153.262 187.747 153.376 187.415 153.52 187.094C153.56 186.995 153.607 186.899 153.66 186.805C153.674 186.769 153.695 186.735 153.719 186.704Z" fill="white"/>
<path d="M171.448 183.797C171.448 183.797 170.116 183.797 168.425 183.797C166.733 183.797 165.401 183.797 165.401 183.797C165.401 183.797 166.733 183.797 168.425 183.797C170.116 183.797 171.448 183.784 171.448 183.797Z" fill="white"/>
<path d="M148.391 145.2C148.391 145.288 140.972 145.363 131.821 145.363C122.671 145.363 115.245 145.288 115.245 145.2C115.245 145.112 122.664 145.037 131.821 145.037C140.979 145.037 148.391 145.106 148.391 145.2Z" fill="#263238"/>
<path d="M128.984 148.88C126.658 149.046 124.324 149.1 121.991 149.043C119.657 149.1 117.32 149.046 114.992 148.88C114.992 148.792 118.122 148.717 121.991 148.717C125.861 148.717 128.984 148.792 128.984 148.88Z" fill="#263238"/>
<path d="M149.084 153.822C149.084 153.91 141.452 153.986 132.041 153.986C122.631 153.986 114.992 153.91 114.992 153.822C114.992 153.734 122.624 153.659 132.041 153.659C141.458 153.659 149.084 153.734 149.084 153.822Z" fill="#E0E0E0"/>
<path d="M108.238 146.324C108.238 145.722 108.09 145.129 107.807 144.59C107.524 144.05 107.113 143.58 106.606 143.214C106.099 142.849 105.51 142.599 104.884 142.483C104.258 142.367 103.612 142.388 102.996 142.545C102.38 142.703 101.811 142.991 101.333 143.39C100.854 143.788 100.479 144.284 100.237 144.841C99.9952 145.398 99.8924 146 99.9367 146.6C99.981 147.2 100.171 147.783 100.493 148.302C100.653 148.56 100.852 148.742 101.052 149.006L103.463 152.02C103.533 152.107 103.624 152.178 103.728 152.227C103.832 152.275 103.946 152.301 104.062 152.301C104.179 152.301 104.293 152.275 104.397 152.227C104.501 152.178 104.592 152.107 104.662 152.02L107.04 149.056C107.254 148.816 107.455 148.564 107.639 148.302C108.024 147.706 108.232 147.022 108.238 146.324ZM104.076 148.032C103.712 148.035 103.356 147.935 103.053 147.746C102.749 147.557 102.512 147.287 102.372 146.97C102.232 146.654 102.195 146.305 102.266 145.969C102.337 145.633 102.512 145.324 102.77 145.082C103.028 144.84 103.356 144.676 103.713 144.61C104.07 144.545 104.439 144.581 104.774 144.714C105.109 144.847 105.395 145.071 105.594 145.358C105.794 145.645 105.898 145.981 105.894 146.324C105.891 146.778 105.698 147.212 105.358 147.533C105.017 147.853 104.557 148.035 104.076 148.038V148.032Z" fill="#679632"/>
<path d="M116.264 138.644L116.87 139.793L118.208 139.975L117.236 140.867L117.469 142.129L116.264 141.532L115.065 142.129L115.298 140.867L114.326 139.975L115.664 139.793L116.264 138.644Z" fill="#679632"/>
<path d="M121.951 138.644L122.551 139.793L123.896 139.975L122.924 140.867L123.15 142.129L121.951 141.532L120.753 142.129L120.979 140.867L120.007 139.975L121.352 139.793L121.951 138.644Z" fill="#679632"/>
<path d="M127.632 138.644L128.232 139.793L129.577 139.975L128.605 140.867L128.838 142.129L127.632 141.532L126.433 142.129L126.667 140.867L125.694 139.975L127.033 139.793L127.632 138.644Z" fill="#679632"/>
<path d="M133.32 138.644L133.919 139.793L135.258 139.975L134.292 140.867L134.519 142.129L133.32 141.532L132.121 142.129L132.347 140.867L131.375 139.975L132.72 139.793L133.32 138.644Z" fill="#679632"/>
<path d="M139.001 138.644L139.6 139.793L140.946 139.975L139.973 140.867L140.2 142.129L139.001 141.532L137.802 142.129L138.029 140.867L137.056 139.975L138.401 139.793L139.001 138.644Z" fill="#679632"/>
<path d="M148.391 220.654C148.391 220.742 140.972 220.817 131.821 220.817C122.671 220.817 115.218 220.742 115.218 220.654C115.218 220.566 122.637 220.491 131.795 220.491C140.952 220.491 148.391 220.566 148.391 220.654Z" fill="#263238"/>
<path d="M128.984 224.334C126.658 224.5 124.324 224.554 121.991 224.497C119.657 224.554 117.32 224.5 114.992 224.334C114.992 224.246 118.122 224.171 121.991 224.171C125.861 224.171 128.984 224.246 128.984 224.334Z" fill="#263238"/>
<path d="M149.084 229.277C149.084 229.371 141.452 229.44 132.041 229.44C122.631 229.44 114.992 229.371 114.992 229.277C114.992 229.182 122.624 229.113 132.041 229.113C141.458 229.113 149.084 229.22 149.084 229.277Z" fill="#E0E0E0"/>
<path d="M108.238 221.784C108.238 221.183 108.09 220.589 107.807 220.05C107.524 219.511 107.113 219.04 106.606 218.675C106.099 218.309 105.51 218.059 104.884 217.943C104.258 217.827 103.612 217.848 102.996 218.006C102.38 218.163 101.811 218.452 101.333 218.85C100.854 219.248 100.479 219.745 100.237 220.302C99.9952 220.858 99.8924 221.46 99.9367 222.06C99.981 222.66 100.171 223.243 100.493 223.763C100.653 224.014 100.852 224.196 101.052 224.46L103.463 227.474C103.533 227.561 103.624 227.632 103.728 227.681C103.832 227.729 103.946 227.755 104.062 227.755C104.179 227.755 104.293 227.729 104.397 227.681C104.501 227.632 104.592 227.561 104.662 227.474L107.04 224.51C107.254 224.27 107.455 224.018 107.639 223.756C108.024 223.162 108.231 222.481 108.238 221.784ZM104.076 223.493C103.714 223.493 103.359 223.391 103.058 223.202C102.757 223.012 102.522 222.742 102.384 222.427C102.245 222.111 102.209 221.764 102.28 221.429C102.35 221.094 102.525 220.786 102.781 220.544C103.037 220.303 103.363 220.138 103.719 220.072C104.074 220.005 104.442 220.039 104.777 220.17C105.111 220.301 105.397 220.522 105.599 220.806C105.8 221.09 105.907 221.424 105.907 221.766C105.907 222.224 105.714 222.663 105.371 222.987C105.027 223.311 104.562 223.493 104.076 223.493Z" fill="#455A64"/>
<path d="M116.264 214.104L116.87 215.247L118.208 215.435L117.236 216.327L117.469 217.583L116.264 216.993L115.065 217.583L115.298 216.327L114.326 215.435L115.664 215.247L116.264 214.104Z" fill="#455A64"/>
<path d="M121.951 214.104L122.551 215.247L123.896 215.435L122.924 216.327L123.15 217.583L121.951 216.993L120.753 217.583L120.979 216.327L120.007 215.435L121.352 215.247L121.951 214.104Z" fill="#455A64"/>
<path d="M127.632 214.104L128.232 215.247L129.577 215.435L128.605 216.327L128.838 217.583L127.632 216.993L126.433 217.583L126.667 216.327L125.694 215.435L127.033 215.247L127.632 214.104Z" fill="#455A64"/>
<path d="M133.32 214.104L133.919 215.247L135.258 215.435L134.292 216.327L134.519 217.583L133.32 216.993L132.121 217.583L132.347 216.327L131.375 215.435L132.72 215.247L133.32 214.104Z" fill="#E0E0E0"/>
<path d="M139.001 214.104L139.6 215.247L140.946 215.435L139.973 216.327L140.2 217.583L139.001 216.993L137.802 217.583L138.029 216.327L137.056 215.435L138.401 215.247L139.001 214.104Z" fill="#E0E0E0"/>
<path d="M148.391 184.532C148.391 184.619 140.972 184.695 131.821 184.695C122.671 184.695 115.218 184.632 115.218 184.532C115.218 184.431 122.637 184.368 131.795 184.368C140.952 184.368 148.391 184.437 148.391 184.532Z" fill="#263238"/>
<path d="M128.984 188.212C126.658 188.377 124.324 188.432 121.991 188.375C119.657 188.432 117.32 188.377 114.992 188.212C114.992 188.124 118.122 188.048 121.991 188.048C125.861 188.048 128.984 188.124 128.984 188.212Z" fill="#263238"/>
<path d="M149.084 193.154C149.084 193.242 141.452 193.317 132.041 193.317C122.631 193.317 114.992 193.242 114.992 193.154C114.992 193.066 122.624 192.991 132.041 192.991C141.458 192.991 149.084 193.066 149.084 193.154Z" fill="#E0E0E0"/>
<path d="M108.238 185.662C108.238 185.06 108.09 184.467 107.807 183.928C107.524 183.388 107.113 182.918 106.606 182.552C106.099 182.187 105.51 181.937 104.884 181.821C104.258 181.704 103.612 181.726 102.996 181.883C102.38 182.041 101.811 182.329 101.333 182.728C100.854 183.126 100.479 183.622 100.237 184.179C99.9952 184.736 99.8924 185.337 99.9367 185.938C99.981 186.538 100.171 187.12 100.493 187.64C100.653 187.898 100.852 188.08 101.052 188.344L103.463 191.358C103.532 191.446 103.623 191.518 103.727 191.567C103.831 191.617 103.946 191.643 104.062 191.643C104.179 191.643 104.294 191.617 104.398 191.567C104.502 191.518 104.593 191.446 104.662 191.358L107.04 188.394C107.254 188.154 107.455 187.902 107.639 187.64C108.024 187.044 108.232 186.36 108.238 185.662ZM104.076 187.364C103.713 187.364 103.359 187.262 103.058 187.072C102.756 186.882 102.522 186.612 102.383 186.296C102.245 185.98 102.209 185.633 102.28 185.298C102.351 184.962 102.526 184.655 102.783 184.413C103.04 184.172 103.367 184.008 103.723 183.942C104.078 183.876 104.447 183.911 104.781 184.043C105.116 184.175 105.401 184.397 105.602 184.682C105.802 184.967 105.909 185.301 105.907 185.643C105.907 185.87 105.86 186.094 105.768 186.303C105.676 186.512 105.541 186.702 105.37 186.862C105.2 187.022 104.998 187.149 104.776 187.235C104.554 187.321 104.316 187.365 104.076 187.364Z" fill="#455A64"/>
<path d="M116.264 177.975L116.87 179.124L118.208 179.307L117.236 180.198L117.469 181.461L116.264 180.864L115.065 181.461L115.298 180.198L114.326 179.307L115.664 179.124L116.264 177.975Z" fill="#455A64"/>
<path d="M121.951 177.975L122.551 179.124L123.896 179.307L122.924 180.198L123.15 181.461L121.951 180.864L120.753 181.461L120.979 180.198L120.007 179.307L121.352 179.124L121.951 177.975Z" fill="#455A64"/>
<path d="M127.632 177.975L128.232 179.124L129.577 179.307L128.605 180.198L128.838 181.461L127.632 180.864L126.433 181.461L126.667 180.198L125.694 179.307L127.033 179.124L127.632 177.975Z" fill="#455A64"/>
<path d="M133.32 177.975L133.919 179.124L135.258 179.307L134.292 180.198L134.519 181.461L133.32 180.864L132.121 181.461L132.347 180.198L131.375 179.307L132.72 179.124L133.32 177.975Z" fill="#455A64"/>
<path d="M139.001 177.975L139.6 179.124L140.946 179.307L139.973 180.198L140.2 181.461L139.001 180.864L137.802 181.461L138.029 180.198L137.056 179.307L138.401 179.124L139.001 177.975Z" fill="#E0E0E0"/>
<path d="M218.155 166.728H91.3219V127.164H218.155V166.728ZM91.9879 166.1H217.489V127.792H91.9879V166.1Z" fill="#679632"/>
<path d="M217.409 241.152H90.576V201.588H217.409V241.152ZM91.242 240.524H216.743V202.216H91.242V240.524Z" fill="#679632"/>
<path d="M121.518 262.655V262.027H122.85C122.913 261.309 122.893 260.587 122.79 259.873C122.697 259.722 122.124 259.647 121.745 259.596C121.416 259.573 121.093 259.506 120.786 259.395C120.506 259.276 119.307 258.887 117.589 258.353C117.312 258.267 117.022 258.225 116.73 258.227H113.986C113.485 258.229 112.995 258.359 112.567 258.604L110.649 259.86C110.649 259.86 108.858 260.231 107.885 260.532C107.179 260.752 107.139 262.14 107.179 262.611L106.513 262.667C106.513 262.429 106.347 260.344 107.679 259.935C108.585 259.653 110.103 259.307 110.443 259.257L112.208 258.095C112.741 257.787 113.354 257.622 113.979 257.618H116.723C117.089 257.625 117.451 257.678 117.802 257.775C118.841 258.095 120.639 258.661 121.065 258.849C121.316 258.925 121.575 258.974 121.838 258.993C122.464 259.075 123.117 259.157 123.376 259.584C123.636 260.011 123.55 261.468 123.496 262.372V262.667L121.518 262.655Z" fill="white"/>
<path d="M119.554 264.017C119.218 264.017 118.889 263.924 118.61 263.748C118.331 263.572 118.113 263.322 117.985 263.029C117.856 262.736 117.822 262.414 117.888 262.104C117.954 261.793 118.115 261.508 118.353 261.284C118.59 261.06 118.893 260.907 119.222 260.845C119.552 260.784 119.893 260.815 120.204 260.937C120.514 261.058 120.779 261.263 120.966 261.526C121.152 261.79 121.252 262.099 121.252 262.416C121.25 262.84 121.071 263.247 120.753 263.547C120.434 263.847 120.004 264.016 119.554 264.017ZM119.554 261.443C119.349 261.443 119.15 261.5 118.98 261.607C118.81 261.714 118.678 261.866 118.6 262.044C118.522 262.221 118.501 262.417 118.541 262.606C118.581 262.795 118.679 262.968 118.824 263.104C118.968 263.241 119.152 263.333 119.352 263.371C119.552 263.408 119.76 263.389 119.949 263.315C120.137 263.242 120.299 263.117 120.412 262.957C120.525 262.797 120.586 262.609 120.586 262.416C120.586 262.288 120.559 262.162 120.507 262.044C120.455 261.925 120.379 261.818 120.284 261.728C120.188 261.637 120.074 261.566 119.949 261.517C119.823 261.468 119.689 261.443 119.554 261.443Z" fill="white"/>
<path d="M109.184 264.017C108.848 264.017 108.52 263.924 108.24 263.748C107.961 263.572 107.744 263.322 107.615 263.029C107.486 262.736 107.453 262.414 107.518 262.104C107.584 261.793 107.746 261.508 107.983 261.284C108.221 261.06 108.523 260.907 108.853 260.845C109.182 260.784 109.524 260.815 109.834 260.937C110.144 261.058 110.409 261.263 110.596 261.526C110.783 261.79 110.882 262.099 110.882 262.416C110.881 262.84 110.701 263.247 110.383 263.547C110.065 263.847 109.634 264.016 109.184 264.017ZM109.184 261.443C108.98 261.443 108.78 261.5 108.611 261.607C108.441 261.714 108.308 261.866 108.23 262.044C108.152 262.221 108.132 262.417 108.172 262.606C108.211 262.795 108.31 262.968 108.454 263.104C108.598 263.241 108.782 263.333 108.983 263.371C109.183 263.408 109.39 263.389 109.579 263.315C109.768 263.242 109.929 263.117 110.042 262.957C110.156 262.797 110.216 262.609 110.216 262.416C110.216 262.158 110.108 261.91 109.914 261.728C109.72 261.545 109.458 261.443 109.184 261.443Z" fill="white"/>
<path d="M117.462 262.064H111.315V262.692H117.462V262.064Z" fill="white"/>
<path d="M43.603 263.634C44.3998 263.807 45.1513 264.13 45.8127 264.583C46.4742 265.037 47.0319 265.611 47.4525 266.272C48.2886 267.597 48.79 269.087 48.9177 270.624C49.2574 273.576 48.2517 276.854 46.9197 279.548C43.8428 277.978 42.3709 274.411 41.7449 272.558C40.7525 269.632 40.8458 263.766 43.623 263.647" fill="#679632"/>
<path d="M51.0223 283.655C50.6511 282.869 50.5067 282.004 50.6038 281.148C50.7009 280.293 51.0359 279.476 51.5751 278.782C52.1265 278.097 52.8167 277.522 53.6056 277.091C54.3944 276.66 55.2663 276.381 56.1705 276.27C56.5804 276.178 57.0066 276.172 57.4194 276.251C57.8322 276.33 58.2218 276.493 58.5614 276.728C58.8345 276.997 59.0271 277.329 59.1196 277.691C59.212 278.053 59.2009 278.431 59.0876 278.788C58.8447 279.497 58.4083 280.134 57.8222 280.634C55.9107 282.424 53.7129 283.831 51.0223 283.649" fill="#679632"/>
<path d="M49.8301 293.182C49.7886 292.975 49.7708 292.764 49.7769 292.554C49.7769 292.121 49.7369 291.562 49.7103 290.89C49.5739 289.047 49.7538 287.196 50.2431 285.407C50.7707 283.624 51.7912 282.005 53.2001 280.716C53.6263 280.329 54.1004 279.992 54.612 279.711C54.7522 279.635 54.8967 279.566 55.0449 279.504C55.1426 279.462 55.1959 279.443 55.2048 279.447C54.026 280.106 52.9983 280.979 52.1818 282.016C51.3653 283.054 50.7764 284.234 50.4495 285.489C49.9691 287.258 49.7693 289.084 49.8568 290.908C49.8568 291.612 49.8568 292.164 49.8568 292.573C49.8654 292.776 49.8565 292.98 49.8301 293.182Z" fill="#263238"/>
<path d="M43.956 268.106C43.9981 268.185 44.0295 268.27 44.0492 268.357C44.1025 268.545 44.1758 268.79 44.269 269.085C44.4622 269.713 44.7219 270.649 45.0416 271.798C45.6676 274.084 46.4935 277.262 47.3193 280.791C48.1451 284.321 48.8111 287.524 49.2574 289.853C49.4838 291.015 49.657 291.957 49.7702 292.61L49.8967 293.364C49.903 293.454 49.903 293.544 49.8967 293.634C49.8633 293.551 49.8387 293.464 49.8235 293.376C49.7768 293.182 49.7236 292.937 49.657 292.629C49.5104 291.951 49.3173 291.021 49.0775 289.879C48.5847 287.561 47.8921 284.358 47.0795 280.835C46.267 277.312 45.4612 274.128 44.8684 271.83C44.582 270.699 44.3423 269.776 44.2024 269.111L44.0226 268.37C43.9904 268.284 43.968 268.196 43.956 268.106Z" fill="#263238"/>
<path d="M46.9863 286.368C46.2669 284.689 45.1335 283.195 43.6799 282.011C42.2264 280.828 40.4946 279.987 38.628 279.56C37.6756 279.36 36.4902 279.341 35.9307 280.094C35.3713 280.848 35.7842 281.897 36.3303 282.663C37.4984 284.235 39.1325 285.448 41.0281 286.148C42.9237 286.848 44.9963 287.006 46.9863 286.6" fill="#679632"/>
<path d="M39.6603 282.204C39.8632 282.223 40.0638 282.258 40.2597 282.311C40.4849 282.361 40.7071 282.422 40.9257 282.493C41.1854 282.581 41.4985 282.657 41.8182 282.788C42.1378 282.92 42.4842 283.052 42.8704 283.241C43.2678 283.427 43.6525 283.637 44.0226 283.869C45.7377 284.901 47.1615 286.31 48.1718 287.976C48.3865 288.34 48.5799 288.715 48.7512 289.1C48.9091 289.431 49.0448 289.77 49.1575 290.117C49.2589 290.401 49.3434 290.691 49.4106 290.984C49.4708 291.2 49.5153 291.421 49.5437 291.643C49.5898 291.831 49.6121 292.022 49.6103 292.215C49.5637 292.215 49.4572 291.405 49.0043 290.167C48.8841 289.827 48.7418 289.493 48.5781 289.169C48.403 288.794 48.205 288.429 47.9853 288.076C47.4786 287.268 46.8802 286.514 46.2004 285.828C45.5188 285.155 44.7668 284.549 43.956 284.019C43.5932 283.791 43.2175 283.581 42.8305 283.391C42.4988 283.217 42.1563 283.062 41.8048 282.927C40.5061 282.418 39.647 282.248 39.6603 282.204Z" fill="#263238"/>
<path d="M170.792 136.317H180.49V147.129H205.706V152.534H203.767C203.767 153.968 203.154 155.343 202.062 156.357C200.971 157.371 199.491 157.94 197.948 157.94C196.404 157.94 194.924 157.371 193.833 156.357C192.742 155.343 192.128 153.968 192.128 152.534H180.49C180.49 153.968 179.877 155.343 178.786 156.357C177.694 157.371 176.214 157.94 174.671 157.94C173.128 157.94 171.648 157.371 170.556 156.357C169.465 155.343 168.852 153.968 168.852 152.534H164.972V143.525L170.792 136.317ZM197.948 155.237C198.719 155.237 199.459 154.953 200.005 154.446C200.551 153.939 200.857 153.251 200.857 152.534C200.857 151.818 200.551 151.13 200.005 150.623C199.459 150.116 198.719 149.832 197.948 149.832C197.176 149.832 196.436 150.116 195.89 150.623C195.345 151.13 195.038 151.818 195.038 152.534C195.038 153.251 195.345 153.939 195.89 154.446C196.436 154.953 197.176 155.237 197.948 155.237ZM174.671 155.237C175.443 155.237 176.183 154.953 176.728 154.446C177.274 153.939 177.581 153.251 177.581 152.534C177.581 151.818 177.274 151.13 176.728 150.623C176.183 150.116 175.443 149.832 174.671 149.832C173.899 149.832 173.159 150.116 172.614 150.623C172.068 151.13 171.761 151.818 171.761 152.534C171.761 153.251 172.068 153.939 172.614 154.446C173.159 154.953 173.899 155.237 174.671 155.237ZM176.611 143.525V139.02H171.761L167.96 143.525H176.611Z" fill="#517D2E"/>
<path d="M174.693 175.802V178.488H192.746C193.482 178.488 194.189 178.771 194.709 179.275C195.23 179.779 195.523 180.462 195.523 181.174H194.134V185.204H195.523V190.576H192.746C192.746 191.644 192.307 192.669 191.525 193.425C190.744 194.18 189.685 194.605 188.58 194.605C187.475 194.605 186.415 194.18 185.634 193.425C184.853 192.669 184.414 191.644 184.414 190.576H176.082C176.082 191.644 175.643 192.669 174.862 193.425C174.08 194.18 173.021 194.605 171.916 194.605C170.811 194.605 169.751 194.18 168.97 193.425C168.189 192.669 167.75 191.644 167.75 190.576H164.972V181.846L169.833 175.802H174.693ZM171.916 177.817H170.527L167.055 181.846V183.189H171.916V177.817ZM191.357 181.174H187.191V185.204H191.357V181.174ZM184.414 181.174H180.248V185.204H184.414V181.174ZM177.47 181.174H174.693V185.204H177.47V181.174ZM188.58 188.561C188.027 188.561 187.497 188.773 187.107 189.151C186.716 189.529 186.497 190.041 186.497 190.576C186.497 191.11 186.716 191.622 187.107 192C187.497 192.378 188.027 192.59 188.58 192.59C189.132 192.59 189.662 192.378 190.053 192C190.443 191.622 190.663 191.11 190.663 190.576C190.663 190.041 190.443 189.529 190.053 189.151C189.662 188.773 189.132 188.561 188.58 188.561ZM171.916 188.561C171.363 188.561 170.834 188.773 170.443 189.151C170.052 189.529 169.833 190.041 169.833 190.576C169.833 191.11 170.052 191.622 170.443 192C170.834 192.378 171.363 192.59 171.916 192.59C172.468 192.59 172.998 192.378 173.389 192C173.779 191.622 173.999 191.11 173.999 190.576C173.999 190.041 173.779 189.529 173.389 189.151C172.998 188.773 172.468 188.561 171.916 188.561Z" fill="#455A64"/>
<path d="M166.404 219.855L168.245 214.648C168.416 214.168 168.742 213.751 169.177 213.455C169.613 213.159 170.136 212.999 170.673 212.997H171.389V211.792C171.389 211.129 171.964 210.587 172.667 210.587H173.945C174.648 210.587 175.223 211.129 175.223 211.792V212.997H177.779C179.185 212.997 180.336 214.082 180.336 215.408V220.228H194.395V226.254C194.395 227.58 193.244 228.664 191.838 228.664H190.56C190.56 230.665 188.848 232.28 186.726 232.28C184.604 232.28 182.892 230.665 182.892 228.664H177.779C177.779 230.665 176.067 232.28 173.945 232.28C171.823 232.28 170.111 230.665 170.111 228.664H166.276V220.614C166.276 220.361 166.315 220.108 166.404 219.855ZM186.726 229.87C187.429 229.87 188.004 229.327 188.004 228.664C188.004 228.002 187.429 227.459 186.726 227.459C186.023 227.459 185.448 228.002 185.448 228.664C185.448 229.327 186.023 229.87 186.726 229.87ZM173.945 229.87C174.648 229.87 175.223 229.327 175.223 228.664C175.223 228.002 174.648 227.459 173.945 227.459C173.242 227.459 172.667 228.002 172.667 228.664C172.667 229.327 173.242 229.87 173.945 229.87ZM177.779 220.228V215.408H170.673L168.973 220.228H177.779Z" fill="#455A64"/>
<path d="M267.452 85.9959C267.009 83.121 265.5 80.5184 263.224 78.7065C260.949 76.8945 258.074 76.0063 255.174 76.2186L254.58 76.263C248.164 77.1115 245.296 83.0344 246.317 89.4232L248.535 112.105L248.646 116.797L263.925 118.184L263.598 108.284C263.598 108.284 269.698 106.87 269.349 100.67C269.182 97.6753 268.312 91.5417 267.452 85.9959Z" fill="#FFBE9D"/>
<path d="M263.664 108.268C260.787 108.473 257.911 107.847 255.379 106.465C255.379 106.465 257.53 110.935 263.697 109.926L263.664 108.268Z" fill="#EB996E"/>
<path d="M264.696 91.5694C264.714 91.8002 264.643 92.0293 264.496 92.2083C264.349 92.3873 264.138 92.5022 263.908 92.5288C263.796 92.546 263.682 92.5406 263.572 92.5129C263.462 92.4852 263.359 92.4358 263.268 92.3675C263.178 92.2993 263.102 92.2136 263.045 92.1156C262.988 92.0176 262.952 91.9092 262.938 91.7968C262.92 91.5662 262.992 91.3379 263.139 91.1592C263.286 90.9805 263.496 90.8652 263.725 90.8373C263.837 90.8201 263.951 90.8256 264.061 90.8533C264.171 90.881 264.274 90.9304 264.365 90.9986C264.455 91.0668 264.531 91.1525 264.588 91.2505C264.645 91.3486 264.681 91.457 264.696 91.5694Z" fill="#263238"/>
<path d="M266.343 89.1237C266.243 89.2457 265.533 88.802 264.585 88.8741C263.636 88.9462 262.971 89.4731 262.86 89.3621C262.749 89.2512 262.899 89.0959 263.187 88.8519C263.575 88.5299 264.054 88.3362 264.557 88.2973C265.053 88.2587 265.548 88.3792 265.971 88.6412C266.276 88.8686 266.393 89.0682 266.343 89.1237Z" fill="#263238"/>
<path d="M255.695 92.4233C255.715 92.6539 255.644 92.8831 255.496 93.0615C255.349 93.24 255.137 93.3533 254.907 93.3772C254.795 93.3936 254.681 93.3876 254.572 93.3596C254.462 93.3316 254.359 93.2821 254.269 93.214C254.179 93.1459 254.103 93.0606 254.046 92.9629C253.989 92.8653 253.952 92.7573 253.937 92.6452C253.918 92.4149 253.99 92.1865 254.137 92.0084C254.284 91.8303 254.495 91.7165 254.724 91.6913C254.836 91.6741 254.951 91.6795 255.06 91.7072C255.17 91.7349 255.273 91.7843 255.364 91.8526C255.454 91.9208 255.53 92.0064 255.587 92.1045C255.644 92.2025 255.681 92.3109 255.695 92.4233Z" fill="#263238"/>
<path d="M256.998 89.9833C256.898 90.1053 256.188 89.6616 255.24 89.7282C254.292 89.7947 253.626 90.3271 253.515 90.2217C253.404 90.1164 253.554 89.9555 253.843 89.7115C254.233 89.3894 254.713 89.1957 255.218 89.1569C255.712 89.1184 256.206 89.2389 256.626 89.5008C256.937 89.7282 257.048 89.9278 256.998 89.9833Z" fill="#263238"/>
<path d="M260.969 96.7879C261.459 96.5962 261.971 96.4658 262.494 96.3997C262.732 96.3554 262.96 96.2888 262.993 96.1224C262.995 95.8694 262.919 95.6218 262.777 95.4126L261.923 93.6157C260.73 91.0536 259.854 88.9406 259.954 88.8907C260.054 88.8408 261.107 90.8817 262.3 93.4438C262.583 94.076 262.854 94.6805 263.121 95.2573C263.294 95.5388 263.363 95.8728 263.315 96.2001C263.287 96.2891 263.239 96.3704 263.174 96.4377C263.11 96.5051 263.031 96.5566 262.943 96.5883C262.811 96.6346 262.673 96.6625 262.533 96.6715C262.019 96.7774 261.493 96.8166 260.969 96.7879Z" fill="#263238"/>
<path d="M258.213 97.6531C258.368 97.6531 258.446 98.6625 259.383 99.3169C260.32 99.9713 261.413 99.7938 261.429 99.938C261.429 99.999 261.202 100.154 260.736 100.204C260.132 100.255 259.53 100.092 259.033 99.7439C258.557 99.4086 258.229 98.9018 258.118 98.3297C258.046 97.9138 258.146 97.6531 258.213 97.6531Z" fill="#263238"/>
<path d="M256.976 86.2343C256.898 86.5005 255.939 86.445 254.835 86.6613C253.732 86.8776 252.844 87.2492 252.678 87.0273C252.606 86.9219 252.744 86.6668 253.088 86.3896C253.551 86.0423 254.088 85.8086 254.658 85.7074C255.223 85.5986 255.807 85.6252 256.36 85.7851C256.782 85.9459 257.004 86.1067 256.976 86.2343Z" fill="#263238"/>
<path d="M265.794 86.3951C265.638 86.6225 264.967 86.4451 264.18 86.495C263.392 86.5449 262.732 86.7445 262.566 86.5282C262.488 86.4229 262.566 86.201 262.854 85.9737C263.227 85.6949 263.676 85.5381 264.141 85.5245C264.604 85.4988 265.064 85.619 265.455 85.8683C265.749 86.0679 265.86 86.2842 265.794 86.3951Z" fill="#263238"/>
<path d="M247.753 95.3738C247.732 95.1457 247.664 94.9244 247.553 94.7238C247.442 94.5232 247.292 94.3477 247.11 94.2081C246.928 94.0686 246.72 93.9681 246.497 93.9129C246.275 93.8577 246.044 93.8491 245.818 93.8875C244.67 94.0816 243.433 94.8303 243.683 97.215C244.126 101.441 248.28 100.127 248.274 99.9879C248.269 99.8492 247.953 97.1484 247.753 95.3738Z" fill="#FFBE9D"/>
<path d="M247.187 98.5071C247.187 98.5071 247.121 98.5681 246.999 98.6402C246.83 98.7337 246.631 98.7575 246.444 98.7068C246.154 98.5628 245.907 98.3441 245.728 98.0732C245.55 97.8023 245.447 97.4889 245.429 97.165C245.382 96.8035 245.416 96.4358 245.529 96.0892C245.555 95.9526 245.613 95.8242 245.699 95.7151C245.785 95.606 245.896 95.5193 246.023 95.4625C246.105 95.4319 246.196 95.4313 246.279 95.4607C246.362 95.4901 246.433 95.5476 246.478 95.6233C246.544 95.7342 246.528 95.8174 246.55 95.823C246.572 95.8285 246.633 95.7453 246.583 95.5734C246.547 95.4714 246.479 95.3838 246.389 95.3238C246.326 95.2864 246.257 95.2617 246.184 95.2513C246.112 95.2408 246.038 95.2447 245.967 95.2628C245.798 95.3155 245.645 95.4103 245.523 95.5384C245.401 95.6665 245.313 95.8236 245.269 95.9949C245.127 96.3812 245.082 96.796 245.136 97.2039C245.252 98.0524 245.773 98.801 246.406 98.912C246.522 98.9348 246.643 98.9302 246.757 98.8984C246.872 98.8666 246.977 98.8086 247.065 98.729C247.187 98.6125 247.204 98.5182 247.187 98.5071Z" fill="#EB996E"/>
<path d="M244.365 91.0702C244.714 92.2848 244.587 94.2979 245.673 94.0206C247.82 93.466 247.304 97.9026 248.335 97.4534C249.367 97.0042 250.254 95.7897 250.315 93.0667C250.398 89.6228 249.012 87.1438 250.371 83.2007C250.802 82.415 251.429 81.7537 252.191 81.2807C252.952 80.8076 253.823 80.5387 254.719 80.4999C255.622 80.4815 256.516 80.6938 257.314 81.117C258.113 81.5401 258.791 82.1599 259.283 82.9179C259.477 81.72 260.059 79.9065 261.13 79.3298C261.664 79.0358 262.273 78.9058 262.88 78.9561C263.488 79.0064 264.067 79.2348 264.546 79.6126C265.005 80.0144 265.303 80.5686 265.385 81.1729C265.468 81.7773 265.329 82.3911 264.995 82.9013C265.243 82.9738 265.508 82.9656 265.751 82.8779C265.994 82.7902 266.203 82.6275 266.348 82.4132C266.367 82.6954 266.327 82.9783 266.232 83.2445C266.136 83.5107 265.987 83.7544 265.794 83.9605C266.244 83.8507 266.638 83.5806 266.903 83.2007L266.587 84.6926C268.395 84.7369 270.169 82.9845 270.674 81.4205C271.434 79.058 270.846 76.6733 269.526 74.5659C268.876 73.5025 267.97 72.6189 266.891 71.9959C265.812 71.373 264.594 71.0306 263.348 71C260.863 71 258.784 72.1979 257.802 74.4938C256.188 73.3514 252.922 72.9577 251.119 73.7729C250.217 74.1914 249.438 74.8343 248.855 75.6402C248.273 76.4462 247.906 77.3881 247.792 78.3759C247.214 78.174 246.593 78.1287 245.992 78.2446C245.391 78.3605 244.832 78.6335 244.37 79.0359L244.137 79.2355C243.505 79.8393 243.036 80.5934 242.774 81.4274C242.513 82.2614 242.466 83.1481 242.64 84.0049C242.768 84.6926 243.006 85.408 243.15 85.957C243.605 87.6097 244.365 91.0702 244.365 91.0702Z" fill="#263238"/>
<path d="M266.626 82.3023C266.626 82.3023 266.681 82.269 266.775 82.1858C266.906 82.0686 267.025 81.9385 267.13 81.7976C267.519 81.2695 267.76 80.6474 267.829 79.9952C267.889 79.5101 267.844 79.0179 267.699 78.5513C267.554 78.0847 267.311 77.6543 266.986 77.2889C266.587 76.8377 266.084 76.4907 265.521 76.2781C264.957 76.0654 264.35 75.9936 263.753 76.0688C263.138 76.1602 262.552 76.3897 262.039 76.7398C261.56 77.0561 261.134 77.4453 260.775 77.8934C259.744 79.1582 259.208 80.7547 259.266 82.3855C259.276 82.5601 259.294 82.734 259.322 82.9068C259.326 82.9689 259.337 83.0303 259.355 83.0898C259.299 82.2169 259.384 81.3407 259.605 80.4943C259.859 79.5817 260.303 78.7331 260.908 78.0043C261.619 77.0882 262.641 76.4646 263.781 76.2518C264.347 76.1819 264.922 76.2498 265.457 76.4496C265.992 76.6495 266.471 76.9754 266.853 77.3998C267.167 77.747 267.405 78.1566 267.55 78.602C267.696 79.0473 267.745 79.5183 267.696 79.9841C267.64 80.619 267.42 81.2286 267.058 81.7532C266.809 82.1248 266.615 82.2856 266.626 82.3023Z" fill="#455A64"/>
<path d="M267.457 84.1934C267.508 84.1305 267.551 84.0616 267.585 83.9882C267.663 83.8496 267.779 83.6444 267.918 83.3782C268.333 82.6255 268.675 81.8343 268.938 81.0157C269.107 80.4463 269.201 79.857 269.215 79.2632C269.237 78.5738 269.113 77.8876 268.849 77.2501C268.545 76.5464 268.042 75.9469 267.402 75.5254C266.7 75.0708 265.891 74.8088 265.056 74.7656C264.239 74.7217 263.423 74.8521 262.66 75.1482C261.956 75.4173 261.296 75.7912 260.703 76.2574C259.667 77.0265 258.914 78.1164 258.562 79.3575C258.344 80.1988 258.386 81.0865 258.684 81.903C258.77 82.1206 258.877 82.3287 259.006 82.5241C259.045 82.5949 259.094 82.6601 259.15 82.7183C258.999 82.4485 258.868 82.1687 258.756 81.8808C258.488 81.0757 258.465 80.2091 258.69 79.3908C259.055 78.1889 259.798 77.1367 260.808 76.3905C262.007 75.4196 263.514 74.9084 265.056 74.9486C265.847 74.996 266.611 75.2483 267.274 75.6806C267.894 76.0851 268.381 76.664 268.672 77.3444C268.927 77.9591 269.054 78.6198 269.044 79.2854C269.035 79.8672 268.949 80.4453 268.788 81.0046C268.539 81.8116 268.217 82.5948 267.829 83.3449L267.53 83.9716C267.5 84.0435 267.476 84.1177 267.457 84.1934Z" fill="#455A64"/>
<path d="M245.862 88.3362C245.862 88.3362 245.468 88.0201 244.958 87.4045C244.285 86.6059 243.821 85.6533 243.605 84.6316C243.403 83.6131 243.451 82.5609 243.744 81.5647C243.977 80.7994 244.237 80.3669 244.204 80.3502C244.126 80.4386 244.06 80.5376 244.01 80.6441C243.852 80.9229 243.722 81.2164 243.622 81.5204C243.274 82.5336 243.205 83.6218 243.422 84.6708C243.64 85.7198 244.136 86.6909 244.858 87.4821C245.073 87.7212 245.308 87.9403 245.563 88.1365C245.653 88.2168 245.753 88.284 245.862 88.3362Z" fill="#455A64"/>
<path d="M249.716 88.2142C249.716 88.2142 249.506 88.1199 249.162 87.8926C248.695 87.5702 248.326 87.1249 248.097 86.6059L247.92 86.2011L247.958 86.6448C248.008 87.2382 248.075 87.9258 248.141 88.669L248.274 88.5858C247.739 88.2184 247.272 87.7604 246.894 87.2326C246.419 86.5723 246.096 85.8145 245.951 85.0143C245.831 84.3561 245.831 83.6816 245.951 83.0234C246.079 82.4189 246.28 81.8322 246.55 81.2764C246.55 81.2764 246.516 81.3097 246.467 81.3763C246.417 81.4428 246.356 81.5593 246.278 81.7035C246.07 82.1145 245.915 82.5507 245.818 83.0012C245.676 83.6727 245.659 84.3644 245.768 85.042C245.897 85.7891 246.176 86.5022 246.589 87.1381C247.001 87.774 247.539 88.3193 248.169 88.7411L248.324 88.8464V88.6634C248.241 87.9203 248.169 87.2326 248.108 86.6392L247.969 86.678C248.218 87.2132 248.619 87.6628 249.123 87.9702C249.259 88.052 249.402 88.1224 249.55 88.1809C249.603 88.2024 249.659 88.2137 249.716 88.2142Z" fill="#455A64"/>
<path d="M250.887 79.2909C251.133 78.8253 251.466 78.4112 251.868 78.0709C252.32 77.7201 252.848 77.4808 253.41 77.3721C254.092 77.2477 254.796 77.311 255.445 77.5551C256.093 77.8116 256.673 78.2161 257.137 78.7364C257.517 79.1606 257.826 79.6438 258.052 80.1672C258.247 80.658 258.401 81.1645 258.512 81.6812C258.524 81.5382 258.514 81.3944 258.484 81.2541C258.332 80.2791 257.91 79.3664 257.264 78.6199C256.782 78.0784 256.175 77.6633 255.495 77.4109C254.812 77.1516 254.07 77.0901 253.354 77.2334C252.776 77.3583 252.237 77.623 251.785 78.0043C251.481 78.2616 251.229 78.5739 251.042 78.9249C250.994 79.0205 250.951 79.1186 250.914 79.2188C250.892 79.2909 250.881 79.2909 250.887 79.2909Z" fill="#455A64"/>
<path d="M251.879 76.0744C252.25 75.8809 252.64 75.7284 253.044 75.6197C254.031 75.4074 255.061 75.5529 255.95 76.0301C256.827 76.5358 257.541 77.2826 258.007 78.1818C258.373 78.8695 258.495 79.3409 258.529 79.3298C258.522 79.2164 258.5 79.1044 258.462 78.9971C258.379 78.6952 258.268 78.4018 258.129 78.1208C257.674 77.1862 256.945 76.4125 256.039 75.9025C255.114 75.4013 254.035 75.2667 253.016 75.5254C252.711 75.6069 252.42 75.7321 252.151 75.897C251.962 75.9635 251.874 76.0633 251.879 76.0744Z" fill="#455A64"/>
<path d="M265.489 275.723L265.056 287.319C265.056 287.319 276.702 291.645 276.83 293.797H254.314L254.242 275.701L265.489 275.723Z" fill="#455A64"/>
<path d="M258.102 286.338C257.885 286.403 257.7 286.547 257.583 286.74C257.465 286.933 257.423 287.163 257.464 287.386C257.522 287.605 257.661 287.794 257.854 287.914C258.047 288.034 258.279 288.075 258.501 288.029C258.729 287.958 258.923 287.806 259.045 287.602C259.168 287.397 259.211 287.154 259.166 286.92C259.085 286.696 258.919 286.513 258.705 286.41C258.491 286.306 258.244 286.29 258.018 286.365" fill="#E0E0E0"/>
<path d="M254.319 293.78L254.386 291.956L275.948 292.654C275.948 292.654 276.946 293.092 276.835 293.797L254.319 293.78Z" fill="#263238"/>
<path d="M265.428 287.203C265.428 287.314 264.873 287.364 264.318 287.719C263.764 288.074 263.492 288.534 263.392 288.49C263.292 288.445 263.453 287.813 264.113 287.38C264.773 286.948 265.45 287.103 265.428 287.203Z" fill="white"/>
<path d="M267.785 288.184C267.812 288.29 267.335 288.478 266.964 288.939C266.592 289.399 266.481 289.898 266.37 289.893C266.259 289.887 266.193 289.266 266.664 288.695C267.136 288.123 267.785 288.079 267.785 288.184Z" fill="white"/>
<path d="M269.127 291.013C269.027 291.013 268.872 290.486 269.127 289.904C269.382 289.321 269.925 289.066 269.97 289.155C270.014 289.244 269.698 289.571 269.476 290.064C269.254 290.558 269.232 291.002 269.127 291.013Z" fill="white"/>
<path d="M265.228 284.552C265.184 284.652 264.673 284.502 264.058 284.552C263.442 284.602 262.949 284.79 262.893 284.696C262.838 284.602 263.304 284.208 264.036 284.169C264.768 284.13 265.284 284.485 265.228 284.552Z" fill="white"/>
<path d="M239.656 276.788L238.758 290.797L241.242 302.082C241.285 302.274 241.287 302.473 241.25 302.666C241.212 302.859 241.136 303.043 241.024 303.205C240.913 303.367 240.77 303.505 240.603 303.609C240.436 303.714 240.25 303.783 240.056 303.813C239.829 303.846 239.598 303.825 239.381 303.752C239.164 303.679 238.968 303.555 238.808 303.391C236.75 301.25 229.225 293.336 229.347 292.299C229.491 291.113 229.313 277.459 229.313 277.459L239.656 276.788Z" fill="#455A64"/>
<path d="M240.056 303.812L229.386 291.368V291.961C229.363 292.475 229.524 292.98 229.84 293.386C230.689 294.468 233.096 297.407 238.786 303.369C238.949 303.541 239.153 303.67 239.378 303.744C239.604 303.819 239.844 303.837 240.078 303.796L240.056 303.812Z" fill="#263238"/>
<g opacity="0.6">
<path d="M232.452 286.964C232.618 287.099 232.729 287.289 232.764 287.5C232.799 287.71 232.755 287.926 232.641 288.107C232.515 288.273 232.331 288.386 232.125 288.423C231.92 288.46 231.708 288.418 231.532 288.306C231.355 288.164 231.238 287.96 231.202 287.736C231.166 287.512 231.215 287.283 231.338 287.092C231.488 286.926 231.698 286.826 231.921 286.812C232.144 286.797 232.365 286.87 232.535 287.014" fill="white"/>
</g>
<path d="M237.1 297.551C237.456 297.127 237.889 296.773 238.375 296.509C238.897 296.326 239.448 296.245 240 296.27C240 296.237 239.839 296.12 239.518 296.059C239.087 295.993 238.646 296.053 238.248 296.231C237.849 296.404 237.51 296.689 237.272 297.052C237.094 297.335 237.066 297.54 237.1 297.551Z" fill="white"/>
<path d="M238.02 299.459C238.087 299.526 238.575 299.087 239.29 298.904C239.746 298.835 240.205 298.795 240.666 298.782C240.455 298.639 240.214 298.548 239.961 298.517C239.708 298.486 239.451 298.516 239.213 298.605C238.375 298.827 237.948 299.459 238.02 299.459Z" fill="white"/>
<path d="M235.336 295.067C235.947 294.696 236.582 294.368 237.238 294.085C237.926 293.901 238.627 293.767 239.335 293.686C238.607 293.453 237.819 293.49 237.116 293.791C236.394 293.999 235.765 294.449 235.336 295.067Z" fill="white"/>
<path d="M235.253 290.785C235.286 290.874 236.079 290.58 237.089 290.586C238.098 290.591 238.886 290.863 238.919 290.78C238.387 290.402 237.739 290.223 237.089 290.275C236.436 290.227 235.787 290.408 235.253 290.785Z" fill="white"/>
<path d="M235.414 286.67C236.032 286.492 236.673 286.405 237.316 286.41C237.953 286.507 238.573 286.694 239.157 286.964C239.157 286.931 239.035 286.754 238.719 286.548C238.299 286.297 237.826 286.147 237.338 286.11C236.85 286.074 236.36 286.151 235.907 286.338C235.564 286.476 235.392 286.637 235.414 286.67Z" fill="white"/>
<path d="M237.327 285.622C237.382 285.452 237.397 285.272 237.371 285.095C237.34 284.607 237.216 284.129 237.005 283.687C236.875 283.351 236.64 283.067 236.334 282.877C236.229 282.821 236.109 282.801 235.991 282.819C235.873 282.837 235.764 282.892 235.68 282.977C235.525 283.15 235.436 283.372 235.43 283.604C235.442 284.076 235.619 284.53 235.93 284.887C236.241 285.243 236.666 285.48 237.133 285.556C237.596 285.622 238.068 285.549 238.49 285.347C238.911 285.144 239.263 284.821 239.501 284.419C239.56 284.317 239.597 284.205 239.608 284.088C239.62 283.971 239.606 283.853 239.568 283.742C239.521 283.637 239.442 283.549 239.343 283.49C239.243 283.431 239.128 283.405 239.013 283.415C238.665 283.477 238.34 283.63 238.07 283.859C237.677 284.147 237.337 284.501 237.066 284.907C236.954 285.047 236.875 285.21 236.834 285.384C237.216 284.869 237.674 284.415 238.192 284.036C238.436 283.849 238.721 283.723 239.024 283.67C239.09 283.662 239.156 283.674 239.214 283.706C239.272 283.738 239.318 283.788 239.346 283.848C239.365 283.923 239.369 284.001 239.357 284.077C239.344 284.153 239.316 284.226 239.274 284.291C239.059 284.633 238.75 284.905 238.384 285.075C238.018 285.245 237.61 285.306 237.211 285.251C236.817 285.184 236.458 284.986 236.191 284.689C235.924 284.392 235.765 284.013 235.741 283.615C235.74 283.453 235.795 283.297 235.896 283.171C235.943 283.125 236.003 283.095 236.067 283.084C236.131 283.073 236.198 283.082 236.257 283.11C236.507 283.273 236.701 283.509 236.811 283.787C237.092 284.363 237.267 284.984 237.327 285.622Z" fill="white"/>
<path d="M275.349 177.723C276.548 182.502 277.028 187.433 276.774 192.353C276.608 195.47 266.587 285.622 266.587 285.622L253.831 284.474L256.05 200.178L255.495 200.655C255.495 200.655 247.903 236.115 247.398 241.722C246.955 246.774 240.893 287.258 240.893 287.258L228.52 286.67L231.327 235.499L235.076 189.042L236.578 175.51L275.349 177.723Z" fill="#263238"/>
<path d="M253.587 192.924C253.775 193.052 253.975 193.158 254.186 193.24C254.75 193.505 255.347 193.692 255.961 193.795C256.394 193.872 256.837 193.872 257.27 193.795C257.775 193.698 258.243 193.46 258.617 193.107C259.009 192.697 259.285 192.19 259.416 191.638C259.558 191.073 259.671 190.501 259.754 189.924C260.154 187.578 260.414 185.432 260.553 183.879C260.625 183.103 260.669 182.476 260.692 182.038C260.718 181.813 260.718 181.586 260.692 181.361C260.626 181.578 260.585 181.801 260.57 182.027C260.507 182.526 260.429 183.136 260.337 183.857C260.143 185.404 259.854 187.534 259.455 189.874C259.25 191.033 259.122 192.209 258.418 192.913C258.088 193.201 257.699 193.413 257.278 193.532C256.857 193.652 256.415 193.678 255.983 193.606C255.383 193.515 254.795 193.357 254.231 193.135C254.025 193.041 253.809 192.97 253.587 192.924Z" fill="#455A64"/>
<path d="M257.608 181.838C257.608 181.838 257.514 181.766 257.314 181.761C257.028 181.759 256.75 181.855 256.527 182.032C256.356 182.163 256.217 182.33 256.121 182.523C256.025 182.715 255.974 182.927 255.972 183.142C255.996 183.41 256.097 183.666 256.263 183.879C256.429 184.091 256.652 184.251 256.907 184.34C257.161 184.429 257.436 184.443 257.698 184.38C257.96 184.317 258.198 184.18 258.384 183.985C258.516 183.814 258.607 183.615 258.649 183.403C258.691 183.191 258.684 182.973 258.628 182.764C258.564 182.485 258.405 182.236 258.179 182.06C258.018 181.938 257.908 181.922 257.902 181.938C258.165 182.164 258.346 182.47 258.418 182.809C258.451 182.983 258.446 183.162 258.404 183.335C258.362 183.507 258.284 183.668 258.174 183.807C258.02 183.951 257.83 184.05 257.624 184.094C257.419 184.138 257.205 184.124 257.006 184.055C256.807 183.986 256.631 183.864 256.497 183.702C256.362 183.54 256.275 183.344 256.244 183.136C256.244 182.958 256.283 182.782 256.358 182.62C256.432 182.458 256.541 182.315 256.676 182.199C256.941 181.983 257.267 181.857 257.608 181.838Z" fill="#455A64"/>
<path d="M235.253 188.199C235.411 188.249 235.576 188.271 235.741 188.266C236.184 188.298 236.629 188.298 237.072 188.266C240.03 188.031 242.816 186.781 244.958 184.728C245.282 184.422 245.583 184.092 245.857 183.74C245.969 183.62 246.062 183.484 246.134 183.336C246.09 183.302 245.646 183.835 244.82 184.572C242.642 186.489 239.935 187.703 237.055 188.055C235.952 188.172 235.259 188.149 235.253 188.199Z" fill="#455A64"/>
<path d="M269.62 181.822C269.814 182.33 270.073 182.811 270.391 183.252C271.108 184.352 271.959 185.358 272.926 186.247C273.886 187.142 274.951 187.916 276.098 188.554C276.56 188.843 277.06 189.065 277.584 189.214C277.584 189.17 277.029 188.893 276.209 188.371C275.11 187.69 274.077 186.906 273.125 186.031C272.185 185.147 271.329 184.178 270.569 183.136C269.981 182.332 269.665 181.799 269.62 181.822Z" fill="#455A64"/>
<path d="M282.248 130.9C284.145 136.446 283.912 135.958 287.478 152.473C288.132 155.523 286.979 160.287 284.233 161.757C281.488 163.227 276.597 161.613 274.961 158.984L272.332 134.028L282.248 130.9Z" fill="#FFBE9D"/>
<path d="M236.573 160.859L236.645 147.721L236.589 146.434L223.28 143.323C223.28 143.323 225.897 134.699 228.298 125.432C229.685 120.08 234.299 117.391 235.414 116.814L235.658 116.703L248.491 111.268C251.081 114.041 254.857 116.259 258.473 115.189C260.54 114.517 262.37 113.266 263.747 111.584L272.399 114.551C274.896 115.411 277.01 117.126 278.366 119.393C280.174 122.593 285.958 137.272 286.058 137.599L275.349 138.559C275.349 138.559 277.246 173.298 276.575 179.503C276.575 179.503 273.974 181.306 267.407 181.611C254.098 182.243 234.299 181.295 234.299 181.295C234.61 179.293 234.931 175.943 235.114 174.246L236.573 160.859Z" fill="#455A64"/>
<path d="M274.994 125.621C274.939 125.621 275.227 133.939 275.632 144.127C276.037 154.314 276.408 162.622 276.464 162.622C276.519 162.622 276.231 154.337 275.826 144.116C275.421 133.895 275.039 125.621 274.994 125.621Z" fill="#263238"/>
<path d="M238.037 127.939C238.131 127.939 237.859 135.298 237.432 144.36C237.005 153.422 236.584 160.764 236.49 160.759C236.395 160.753 236.662 153.405 237.089 144.343C237.516 135.281 237.943 127.933 238.037 127.939Z" fill="#263238"/>
<path d="M223.202 149.573C223.635 146.317 223.995 143.434 223.995 143.434L234.654 145.907L234.199 147.626L242.44 139.252L243.744 139.363L247.892 143.678C247.892 143.678 244.276 151.32 242.174 154.292C239.44 158.174 235.137 164.058 229.247 163.565C223.801 163.104 222.42 155.424 223.202 149.573Z" fill="#FFBE9D"/>
<path d="M228.975 151.525C228.909 151.464 229.885 150.416 231.315 149.373C232.746 148.331 234.061 147.754 234.088 147.837C234.116 147.92 232.918 148.636 231.51 149.65C230.101 150.665 229.042 151.597 228.975 151.525Z" fill="#EB996E"/>
<path d="M256.826 128.327L253.166 126.458L248.419 127.966L246.067 130.14L242.446 139.252L239.545 142.923L244.664 149.578L247.897 143.667C247.897 143.667 250.67 142.469 251.746 140.733C252.822 138.997 253.338 138.06 253.338 138.06C253.338 138.06 254.924 137.3 255.218 136.568C255.391 136.154 255.487 135.713 255.501 135.265L254.697 134.095C254.747 133.583 254.665 133.068 254.458 132.597C254.297 132.374 254.076 132.201 253.82 132.098C253.82 132.098 254.059 131.105 253.687 130.75C252.985 130.339 252.241 130.003 251.469 129.747L253.066 128.843C253.066 128.843 256.632 129.952 256.826 128.327Z" fill="#FFBE9D"/>
<path d="M251.391 131.638C251.391 131.682 251.946 131.699 252.622 131.843C253.299 131.987 253.815 132.192 253.831 132.153C253.482 131.907 253.079 131.748 252.656 131.688C252.244 131.574 251.811 131.557 251.391 131.638Z" fill="#EB996E"/>
<path d="M252.489 133.684C252.489 133.729 252.972 133.729 253.548 133.817C254.125 133.906 254.586 134.045 254.602 134.006C254.292 133.809 253.937 133.691 253.571 133.662C253.213 133.585 252.843 133.592 252.489 133.684Z" fill="#EB996E"/>
<path d="M254.037 136.89C254.081 136.89 254.114 136.679 254.109 136.418C254.103 136.158 254.064 135.958 254.02 135.958C253.976 135.958 253.948 136.169 253.953 136.424C253.959 136.679 253.998 136.89 254.037 136.89Z" fill="#EB996E"/>
<path d="M253.338 137.877C253.39 137.575 253.505 137.288 253.676 137.034C253.878 136.796 254.13 136.607 254.414 136.479C254.414 136.479 254.297 136.446 254.125 136.479C253.899 136.559 253.701 136.701 253.554 136.89C253.406 137.079 253.316 137.306 253.293 137.544C253.282 137.771 253.321 137.877 253.338 137.877Z" fill="#EB996E"/>
<path d="M250.476 134.954C250.644 134.704 250.861 134.491 251.114 134.328C251.386 134.202 251.68 134.128 251.979 134.111C251.979 134.111 251.885 134.045 251.707 134.028C251.473 134.019 251.241 134.074 251.036 134.189C250.833 134.305 250.665 134.474 250.548 134.677C250.465 134.838 250.454 134.949 250.476 134.954Z" fill="#EB996E"/>
<path d="M248.807 132.924C248.846 132.924 248.99 132.564 249.361 132.32C249.611 132.186 249.881 132.093 250.16 132.043C250.16 132.043 250.066 131.987 249.899 131.987C249.679 131.999 249.465 132.068 249.278 132.187C249.092 132.304 248.941 132.469 248.84 132.664C248.796 132.813 248.785 132.919 248.807 132.924Z" fill="#EB996E"/>
<path d="M247.687 131.932C247.687 131.932 247.687 131.804 247.725 131.621C247.758 131.38 247.851 131.152 247.997 130.958C248.142 130.764 248.335 130.61 248.557 130.512C248.729 130.434 248.851 130.412 248.846 130.384C248.84 130.357 248.718 130.351 248.519 130.412C248.257 130.488 248.027 130.648 247.864 130.867C247.701 131.085 247.611 131.349 247.609 131.621C247.615 131.821 247.67 131.937 247.687 131.932Z" fill="#EB996E"/>
<path d="M249.24 129.553C249.24 129.608 250.005 129.619 250.903 129.758C251.802 129.896 252.523 130.224 252.567 130.179C252.075 129.876 251.522 129.687 250.948 129.625C250.546 129.562 250.14 129.532 249.733 129.536C249.569 129.513 249.402 129.519 249.24 129.553Z" fill="#EB996E"/>
<path d="M273.048 132.081L271.434 149.246C271.43 149.636 271.332 150.019 271.147 150.363C270.963 150.707 270.698 151.001 270.375 151.22L259.96 151.004C259.538 150.615 259.072 149.395 259.166 148.081L260.32 131.654C260.387 130.667 260.758 129.952 261.202 129.941L272.171 129.691C272.726 129.675 273.164 130.867 273.048 132.081Z" fill="#263238"/>
<path d="M274.562 135.536C274.765 135.267 274.872 134.937 274.866 134.599C274.86 134.261 274.741 133.935 274.528 133.673C274.307 133.418 274.032 133.215 273.724 133.078C273.415 132.94 273.08 132.873 272.742 132.88C272.068 132.899 271.405 133.052 270.79 133.329C270.014 133.643 269.271 134.033 268.572 134.494C268.311 134.628 268.081 134.814 267.896 135.041C267.711 135.268 267.575 135.531 267.496 135.814C267.413 136.396 268.051 137.039 268.561 136.74C268.206 136.898 267.893 137.14 267.65 137.444C267.407 137.748 267.24 138.105 267.163 138.487C267.069 139.219 267.474 139.596 268.184 139.796C267.917 139.907 267.705 140.119 267.592 140.385C267.479 140.652 267.474 140.951 267.579 141.221C267.747 141.475 268.001 141.66 268.294 141.742C268.588 141.825 268.901 141.799 269.177 141.67C269.721 141.391 270.188 140.982 270.535 140.478C270.194 141.306 270.13 142.222 270.352 143.09C271.905 142.535 273.436 140.794 272.97 139.152C273.355 138.843 273.627 138.413 273.74 137.932C273.854 137.451 273.803 136.945 273.597 136.496C273.952 136.329 274.256 136.07 274.477 135.745C274.697 135.42 274.826 135.041 274.85 134.649" fill="#FFBE9D"/>
<path d="M274.734 134.039L274.861 141.376L276.763 144.238L285.487 152.035C285.487 152.035 284.195 162.639 280.257 161.463C276.32 160.287 275.36 159.55 273.048 155.268C271.805 152.978 271.034 149.251 270.314 147.116C269.892 145.863 270.264 141.82 270.264 141.82L274.734 134.039Z" fill="#FFBE9D"/>
<path d="M268.217 139.807C268.45 139.636 268.673 139.45 268.883 139.252C269.392 138.807 269.995 138.481 270.646 138.298C271.002 138.218 271.372 138.218 271.728 138.298C272.02 138.363 272.295 138.492 272.532 138.675C272.749 138.857 272.936 139.073 273.086 139.313C273.08 139.235 273.057 139.16 273.02 139.091C272.928 138.896 272.795 138.722 272.632 138.581C272.388 138.372 272.1 138.222 271.789 138.143C271.408 138.051 271.011 138.051 270.63 138.143C269.952 138.331 269.333 138.686 268.827 139.174C268.594 139.354 268.389 139.567 268.217 139.807Z" fill="#EB996E"/>
<path d="M268.323 136.817C268.607 136.729 268.881 136.608 269.138 136.457C269.418 136.305 269.707 136.17 270.003 136.052C270.364 135.917 270.734 135.811 271.112 135.736C271.487 135.655 271.874 135.642 272.254 135.697C272.564 135.746 272.858 135.865 273.114 136.047C273.339 136.223 273.527 136.442 273.669 136.69C273.669 136.69 273.669 136.601 273.597 136.463C273.497 136.261 273.353 136.084 273.175 135.947C272.912 135.743 272.604 135.604 272.277 135.542C271.879 135.467 271.471 135.467 271.073 135.542C270.681 135.623 270.297 135.738 269.925 135.886C269.628 136.014 269.339 136.16 269.06 136.324C268.802 136.47 268.556 136.635 268.323 136.817Z" fill="#EB996E"/>
<path d="M284.55 156.256C284.759 155.359 284.795 154.431 284.655 153.521C284.481 152.542 284.132 151.603 283.623 150.749C282.988 149.704 282.212 148.753 281.316 147.92C280.379 147.016 279.414 146.223 278.543 145.48C277.767 144.828 277.026 144.133 276.325 143.4C275.856 142.902 275.431 142.364 275.055 141.792C274.907 141.59 274.784 141.37 274.689 141.138C274.855 141.324 275.007 141.522 275.144 141.731C275.555 142.267 275.999 142.777 276.475 143.256C277.074 143.866 277.834 144.543 278.693 145.275C279.553 146.007 280.534 146.794 281.466 147.709C282.378 148.562 283.165 149.541 283.801 150.615C284.309 151.503 284.649 152.477 284.805 153.488C284.901 154.173 284.876 154.869 284.733 155.546C284.695 155.734 284.643 155.92 284.577 156.1C284.573 156.153 284.564 156.205 284.55 156.256Z" fill="#EB996E"/>
</svg>