<svg xmlns="http://www.w3.org/2000/svg" width="903" height="248" viewBox="0 0 903 248" fill="none">
<rect x="0.5" y="0.5" width="414" height="247" rx="4.5" stroke="#9747FF" stroke-dasharray="10 5"/>
<g>
<path d="M20 20H395V76H20V20Z" fill="white"/>
</g>
<path d="M346.421 39.787L333.699 27.2847C333.607 27.1945 333.498 27.1229 333.378 27.074C333.259 27.0251 333.13 27 333.001 27C332.871 27 332.743 27.0251 332.623 27.074C332.503 27.1229 332.394 27.1945 332.303 27.2847L319.581 39.787C319.21 40.1515 319 40.6466 319 41.163C319 42.2352 319.886 43.1069 320.977 43.1069H322.317V52.028C322.317 52.5656 322.759 53 323.305 53H331.024V46.1961H334.483V53H342.696C343.242 53 343.684 52.5656 343.684 52.028V43.1069H345.024C345.55 43.1069 346.053 42.9034 346.424 42.5359C347.193 41.7765 347.193 40.5464 346.421 39.787Z" fill="#517D2E"/>
<path d="M318.507 58.39H317.757V59.27H318.507V58.39ZM319.847 58.39H319.097V59.27H319.847V58.39ZM321.827 64.31H320.757V60H318.707C316.957 60 316.477 60.78 316.477 62.5C316.477 64.22 316.957 65 318.707 65H321.827C322.007 65 322.027 64.87 322.027 64.66C322.027 64.45 322.007 64.31 321.827 64.31ZM318.707 64.31C317.527 64.31 317.227 63.99 317.227 62.5C317.227 61.01 317.527 60.69 318.707 60.69H320.007V64.31H318.707ZM325.129 64.31H324.059V60H323.309V64.31H322.229C322.059 64.31 322.029 64.45 322.029 64.66C322.029 64.87 322.059 65 322.229 65H325.129C325.309 65 325.329 64.87 325.329 64.66C325.329 64.45 325.309 64.31 325.129 64.31ZM322.629 66.48H323.379V65.6H322.629V66.48ZM323.969 66.48H324.719V65.6H323.969V66.48ZM334.079 64.31H332.999V62.22C332.999 61.75 332.839 60.7 332.699 60L331.959 60.12C332.129 60.97 332.249 61.87 332.249 62.22V64.31H330.769C330.549 64.31 330.359 64.24 330.129 64.08C330.219 63.78 330.259 63.4 330.259 62.93V60.5H329.509V62.93C329.509 64.1 329.349 64.31 328.669 64.31H327.529V60.5H326.779V64.31H325.529C325.359 64.31 325.329 64.45 325.329 64.66C325.329 64.87 325.359 65 325.529 65H328.669C329.149 65 329.509 64.91 329.759 64.69C330.079 64.9 330.419 65 330.769 65H334.079C334.249 65 334.279 64.87 334.279 64.66C334.279 64.45 334.249 64.31 334.079 64.31ZM337.384 64.31H336.314V60H335.564V64.31H334.484C334.314 64.31 334.284 64.45 334.284 64.66C334.284 64.87 334.314 65 334.484 65H337.384C337.564 65 337.584 64.87 337.584 64.66C337.584 64.45 337.564 64.31 337.384 64.31ZM334.884 66.48H335.634V65.6H334.884V66.48ZM336.224 66.48H336.974V65.6H336.224V66.48ZM339.094 58.74C339.054 58.66 339.034 58.58 339.034 58.49C339.034 58.21 339.224 58.02 339.494 58.02C339.594 58.02 339.684 58.05 339.784 58.11L340.084 57.66C339.924 57.56 339.694 57.5 339.494 57.5C338.934 57.5 338.464 57.91 338.464 58.48C338.464 58.57 338.474 58.66 338.494 58.74H338.274V59.27H340.204V58.74H339.094ZM338.864 64.31H337.784C337.614 64.31 337.584 64.45 337.584 64.66C337.584 64.87 337.614 65 337.784 65H339.614V60H338.864V64.31ZM343.821 64.31H342.741V60H341.991V65.42C341.991 66.27 341.561 66.78 340.911 66.78C340.791 66.78 340.631 66.77 340.441 66.75L340.351 67.43C340.531 67.45 340.741 67.47 340.911 67.47C341.991 67.47 342.741 66.65 342.741 65.42V65H343.821C343.991 65 344.021 64.87 344.021 64.66C344.021 64.45 343.991 64.31 343.821 64.31ZM345.419 57.82V64.31H344.219C344.049 64.31 344.019 64.45 344.019 64.66C344.019 64.87 344.049 65 344.219 65H346.169V57.82H345.419ZM348.294 65H349.044V57.82H348.294V65Z" fill="#517D2E"/>
<path d="M83.0046 36.4601C82.1578 36.4601 81.3649 36.7972 80.7645 37.4132C80.1669 38.0293 79.8356 38.8429 79.8356 39.7118C79.8356 40.5806 80.1669 41.3943 80.7645 42.0103C81.3649 42.6235 82.1578 42.9634 83.0046 42.9634C83.8514 42.9634 84.6443 42.6235 85.2447 42.0103C85.8423 41.3943 86.1736 40.5806 86.1736 39.7118C86.1736 38.8429 85.8423 38.0293 85.2447 37.4132C84.9515 37.11 84.6024 36.8696 84.2179 36.706C83.8333 36.5424 83.4209 36.4588 83.0046 36.4601ZM94.681 43.3034L92.8288 41.679C92.9166 41.1269 92.9619 40.5632 92.9619 40.0024C92.9619 39.4415 92.9166 38.8749 92.8288 38.3257L94.681 36.7013C94.8209 36.5784 94.921 36.4147 94.9681 36.232C95.0151 36.0493 95.0068 35.8562 94.9443 35.6784L94.9188 35.6029C94.4091 34.1403 93.6454 32.7846 92.6646 31.6015L92.6136 31.5404C92.4945 31.3967 92.3358 31.2935 92.1583 31.2442C91.9809 31.1949 91.793 31.2019 91.6196 31.2644L89.32 32.1042C88.4704 31.3893 87.5245 30.8256 86.4993 30.4333L86.0547 27.9662C86.0211 27.7804 85.9333 27.6094 85.8028 27.476C85.6722 27.3426 85.5053 27.2531 85.324 27.2194L85.2476 27.2049C83.7749 26.9317 82.223 26.9317 80.7503 27.2049L80.6739 27.2194C80.4926 27.2531 80.3256 27.3426 80.1951 27.476C80.0646 27.6094 79.9768 27.7804 79.9432 27.9662L79.4958 30.4449C78.4803 30.8403 77.5343 31.4027 76.6949 32.11L74.3783 31.2644C74.2049 31.2014 74.0169 31.1941 73.8394 31.2435C73.6618 31.2928 73.5031 31.3963 73.3843 31.5404L73.3333 31.6015C72.3543 32.7859 71.5907 34.1412 71.079 35.6029L71.0536 35.6784C70.9261 36.0416 71.0309 36.4485 71.3169 36.7013L73.1917 38.3431C73.1039 38.8894 73.0614 39.4473 73.0614 39.9994C73.0614 40.5574 73.1039 41.1153 73.1917 41.6558L71.3226 43.2976C71.1827 43.4205 71.0825 43.5842 71.0355 43.7669C70.9885 43.9496 70.9967 44.1427 71.0592 44.3205L71.0847 44.396C71.5973 45.8577 72.3534 47.2089 73.339 48.3974L73.39 48.4585C73.5091 48.6022 73.6678 48.7054 73.8452 48.7547C74.0227 48.804 74.2105 48.797 74.384 48.7345L76.7006 47.8889C77.5445 48.6009 78.4847 49.1646 79.5014 49.554L79.9489 52.0327C79.9824 52.2185 80.0703 52.3895 80.2008 52.5229C80.3313 52.6563 80.4983 52.7458 80.6795 52.7795L80.756 52.794C82.2431 53.0687 83.7661 53.0687 85.2532 52.794L85.3297 52.7795C85.5109 52.7458 85.6779 52.6563 85.8084 52.5229C85.9389 52.3895 86.0268 52.2185 86.0603 52.0327L86.505 49.5656C87.5301 49.1704 88.476 48.6096 89.3256 47.8947L91.6252 48.7345C91.7986 48.7975 91.9866 48.8048 92.1642 48.7554C92.3417 48.7061 92.5004 48.6026 92.6193 48.4585L92.6702 48.3974C93.6558 47.2031 94.4119 45.8577 94.9245 44.396L94.95 44.3205C95.0718 43.9602 94.967 43.5562 94.681 43.3034ZM83.0046 44.8203C80.2547 44.8203 78.0259 42.5334 78.0259 39.7118C78.0259 36.8902 80.2547 34.6032 83.0046 34.6032C85.7545 34.6032 87.9833 36.8902 87.9833 39.7118C87.9833 42.5334 85.7545 44.8203 83.0046 44.8203Z" fill="#517D2E" fill-opacity="0.6"/>
<path d="M66.0739 65C65.0806 65 64.3372 64.8267 63.8439 64.48C63.3506 64.1333 63.1039 63.5967 63.1039 62.87C63.1039 62.71 63.1139 62.5367 63.1339 62.35C63.1606 62.1633 63.1906 61.9833 63.2239 61.81C63.2572 61.63 63.2872 61.4767 63.3139 61.35C63.3406 61.2167 63.3572 61.1267 63.3639 61.08L64.1239 61.22C64.1039 61.3267 64.0739 61.4733 64.0339 61.66C64.0006 61.8467 63.9672 62.0467 63.9339 62.26C63.9006 62.4733 63.8839 62.6767 63.8839 62.87C63.8839 63.2033 63.9539 63.4767 64.0939 63.69C64.2339 63.8967 64.4639 64.05 64.7839 64.15C65.1039 64.2433 65.5339 64.29 66.0739 64.29H69.0139V60H69.7939V65H66.0739ZM65.3839 60.07V59.17H66.1639V60.07H65.3839ZM66.7539 60.07V59.17H67.5339V60.07H66.7539ZM71.9643 65V57.83H72.7343V65H71.9643ZM74.4898 65V64.29H78.2198L77.5798 64.86V62.68C77.5798 62.1867 77.5232 61.7967 77.4098 61.51C77.2965 61.2233 77.1098 61.02 76.8498 60.9C76.5965 60.7733 76.2532 60.71 75.8198 60.71H75.0098V60H75.8198C76.3532 60 76.8098 60.0833 77.1898 60.25C77.5698 60.4167 77.8598 60.6967 78.0598 61.09C78.2598 61.4767 78.3598 62.0067 78.3598 62.68V65H74.4898ZM80.2838 65V57.83H81.0538V65H80.2838ZM86.6794 65V64.29H87.7594V65H86.6794ZM82.8094 65V64.29H86.5394L85.8994 64.86V62.68C85.8994 62.1867 85.8427 61.7967 85.7294 61.51C85.616 61.2233 85.4294 61.02 85.1694 60.9C84.916 60.7733 84.5727 60.71 84.1394 60.71H83.3294V60H84.1394C84.6727 60 85.1294 60.0833 85.5094 60.25C85.8894 60.4167 86.1794 60.6967 86.3794 61.09C86.5794 61.4767 86.6794 62.0067 86.6794 62.68V65H82.8094ZM87.7594 65V64.29C87.846 64.29 87.8994 64.3233 87.9194 64.39C87.946 64.45 87.9594 64.5333 87.9594 64.64C87.9594 64.7467 87.946 64.8333 87.9194 64.9C87.8994 64.9667 87.846 65 87.7594 65ZM90.3309 64.97C89.9709 64.6633 89.6943 64.3133 89.5009 63.92C89.3143 63.52 89.2209 63.0967 89.2209 62.65C89.2209 62.27 89.2876 61.92 89.4209 61.6C89.5543 61.2733 89.7376 60.99 89.9709 60.75C90.2043 60.51 90.4809 60.3267 90.8009 60.2C91.1209 60.0667 91.4643 60 91.8309 60C92.0243 60 92.2309 60.02 92.4509 60.06C92.6776 60.1 92.8943 60.1567 93.1009 60.23L92.8309 60.9C92.6643 60.84 92.4943 60.7933 92.3209 60.76C92.1543 60.7267 91.9943 60.71 91.8409 60.71C91.4876 60.71 91.1709 60.7933 90.8909 60.96C90.6109 61.1267 90.3909 61.3567 90.2309 61.65C90.0776 61.9367 90.0009 62.27 90.0009 62.65C90.0009 63.37 90.2809 63.9633 90.8409 64.43L90.3309 64.97ZM88.1609 65V64.29H93.2209V65H88.1609ZM88.1609 65C88.0743 65 88.0209 64.9667 88.0009 64.9C87.9743 64.8333 87.9609 64.7467 87.9609 64.64C87.9609 64.5333 87.9743 64.45 88.0009 64.39C88.0209 64.3233 88.0743 64.29 88.1609 64.29V65ZM94.8789 65V64.29H99.7689L99.3289 64.74V57.83H100.109V65H94.8789ZM96.4789 64.29V59.25H97.2489V64.29H96.4789ZM96.3989 67.69C96.2922 67.5567 96.2089 67.4267 96.1489 67.3C96.0956 67.1733 96.0689 67.04 96.0689 66.9C96.0689 66.7067 96.1156 66.5333 96.2089 66.38C96.3089 66.2267 96.4389 66.1067 96.5989 66.02C96.7589 65.9333 96.9322 65.89 97.1189 65.89C97.2256 65.89 97.3322 65.9033 97.4389 65.93C97.5456 65.9633 97.6389 66.0067 97.7189 66.06L97.4589 66.51C97.4056 66.4767 97.3522 66.4533 97.2989 66.44C97.2522 66.4333 97.2022 66.43 97.1489 66.43C96.9956 66.43 96.8722 66.4733 96.7789 66.56C96.6922 66.6467 96.6489 66.76 96.6489 66.9C96.6489 66.9867 96.6656 67.07 96.6989 67.15C96.7389 67.23 96.7956 67.3167 96.8689 67.41L96.3989 67.69ZM95.8789 67.69V67.16H97.8489V67.69H95.8789ZM102.274 65V57.83H103.044V65H102.274Z" fill="#517D2E" fill-opacity="0.6"/>
<path d="M198.338 65.0981V64.3881H199.418V65.0981H198.338ZM194.468 65.0981V64.3881H198.198L197.558 64.9581V62.7781C197.558 62.2848 197.502 61.8948 197.388 61.6081C197.275 61.3215 197.088 61.1181 196.828 60.9981C196.575 60.8715 196.232 60.8081 195.798 60.8081H194.988V60.0981H195.798C196.332 60.0981 196.788 60.1815 197.168 60.3481C197.548 60.5148 197.838 60.7948 198.038 61.1881C198.238 61.5748 198.338 62.1048 198.338 62.7781V65.0981H194.468ZM199.418 65.0981V64.3881C199.505 64.3881 199.558 64.4215 199.578 64.4881C199.605 64.5481 199.618 64.6315 199.618 64.7381C199.618 64.8448 199.605 64.9315 199.578 64.9981C199.558 65.0648 199.505 65.0981 199.418 65.0981ZM201.68 65.0981V64.3881H202.76V65.0981H201.68ZM202.76 65.0981V64.3881C202.847 64.3881 202.9 64.4215 202.92 64.4881C202.947 64.5481 202.96 64.6315 202.96 64.7381C202.96 64.8448 202.947 64.9315 202.92 64.9981C202.9 65.0648 202.847 65.0981 202.76 65.0981ZM199.82 65.0981V64.3881H201.26L200.9 64.6781V60.0981H201.68V65.0981H199.82ZM199.82 65.0981C199.733 65.0981 199.68 65.0648 199.66 64.9981C199.633 64.9315 199.62 64.8448 199.62 64.7381C199.62 64.6315 199.633 64.5481 199.66 64.4881C199.68 64.4215 199.733 64.3881 199.82 64.3881V65.0981ZM200.22 66.8981V65.9981H201V66.8981H200.22ZM201.59 66.8981V65.9981H202.37V66.8981H201.59ZM203.159 65.0981V64.3881H210.549L209.829 65.0381V62.6881C209.829 62.2681 209.769 61.9215 209.649 61.6481C209.536 61.3681 209.363 61.1581 209.129 61.0181C208.903 60.8781 208.616 60.8081 208.269 60.8081C207.976 60.8081 207.703 60.8581 207.449 60.9581C207.203 61.0515 206.973 61.1781 206.759 61.3381C206.546 61.4915 206.346 61.6648 206.159 61.8581C205.979 62.0448 205.813 62.2348 205.659 62.4281C205.506 62.6215 205.366 62.7981 205.239 62.9581L204.989 62.2481C205.156 62.0415 205.323 61.8348 205.489 61.6281C205.663 61.4215 205.843 61.2281 206.029 61.0481C206.216 60.8615 206.419 60.6981 206.639 60.5581C206.866 60.4181 207.113 60.3081 207.379 60.2281C207.646 60.1415 207.946 60.0981 208.279 60.0981C208.753 60.0981 209.139 60.1781 209.439 60.3381C209.746 60.4981 209.983 60.7115 210.149 60.9781C210.323 61.2381 210.443 61.5181 210.509 61.8181C210.576 62.1181 210.609 62.4081 210.609 62.6881V65.0981H203.159ZM204.579 64.3881V60.0981H205.359V64.3881H204.579ZM203.159 65.0981C203.073 65.0981 203.019 65.0648 202.999 64.9981C202.973 64.9315 202.959 64.8448 202.959 64.7381C202.959 64.6315 202.973 64.5481 202.999 64.4881C203.019 64.4215 203.073 64.3881 203.159 64.3881V65.0981ZM213.483 65.0981V64.3881H214.763V65.0981H213.483ZM211.853 67.3081C211.766 67.3081 211.676 67.3015 211.583 67.2881C211.483 67.2815 211.386 67.2748 211.293 67.2681L211.383 66.5581C211.476 66.5648 211.563 66.5715 211.643 66.5781C211.723 66.5915 211.793 66.5981 211.853 66.5981C212.166 66.5981 212.419 66.4781 212.613 66.2381C212.806 66.0048 212.903 65.6781 212.903 65.2581V60.0981H213.683V65.2581C213.683 65.6648 213.603 66.0215 213.443 66.3281C213.289 66.6415 213.076 66.8815 212.803 67.0481C212.529 67.2215 212.213 67.3081 211.853 67.3081ZM214.763 65.0981V64.3881C214.849 64.3881 214.903 64.4215 214.923 64.4881C214.949 64.5481 214.963 64.6315 214.963 64.7381C214.963 64.8448 214.949 64.9315 214.923 64.9981C214.903 65.0648 214.849 65.0981 214.763 65.0981ZM216.371 65.0981V57.9281H217.151V65.0981H216.371ZM215.161 65.0981V64.3881H216.371V65.0981H215.161ZM215.161 65.0981C215.074 65.0981 215.021 65.0648 215.001 64.9981C214.974 64.9315 214.961 64.8448 214.961 64.7381C214.961 64.6315 214.974 64.5481 215.001 64.4881C215.021 64.4215 215.074 64.3881 215.161 64.3881V65.0981ZM219.274 65.0981V57.9281H220.044V65.0981H219.274Z" fill="#517D2E" fill-opacity="0.6"/>
<path d="M206.536 38.4111C203.415 37.5589 202.411 36.6778 202.411 35.3056C202.411 33.7311 203.8 32.6333 206.124 32.6333C208.572 32.6333 209.479 33.8611 209.562 35.6667H212.601C212.505 33.1822 211.061 30.9 208.187 30.1633V27H204.061V30.12C201.393 30.7267 199.248 32.5467 199.248 35.3344C199.248 38.6711 201.874 40.3322 205.711 41.3C209.149 42.1667 209.837 43.4378 209.837 44.7811C209.837 45.7778 209.163 47.3667 206.124 47.3667C203.291 47.3667 202.177 46.0378 202.026 44.3333H199C199.165 47.4967 201.42 49.2733 204.061 49.8656V53H208.187V49.8944C210.868 49.36 213 47.7278 213 44.7667C213 40.6644 209.658 39.2633 206.536 38.4111Z" fill="#517D2E" fill-opacity="0.6"/>
<g>
<path d="M20 96H395V152H20V96Z" fill="white"/>
</g>
<path d="M346.421 115.787L333.699 103.285C333.607 103.194 333.498 103.123 333.378 103.074C333.259 103.025 333.13 103 333.001 103C332.871 103 332.743 103.025 332.623 103.074C332.503 103.123 332.394 103.194 332.303 103.285L319.581 115.787C319.21 116.151 319 116.647 319 117.163C319 118.235 319.886 119.107 320.977 119.107H322.317V128.028C322.317 128.566 322.759 129 323.305 129H331.024V122.196H334.483V129H342.696C343.242 129 343.684 128.566 343.684 128.028V119.107H345.024C345.55 119.107 346.053 118.903 346.424 118.536C347.193 117.777 347.193 116.546 346.421 115.787Z" fill="#517D2E" fill-opacity="0.6"/>
<path d="M318.463 141C317.883 141 317.429 140.913 317.103 140.74C316.783 140.56 316.556 140.287 316.423 139.92C316.296 139.547 316.233 139.073 316.233 138.5C316.233 137.927 316.296 137.457 316.423 137.09C316.556 136.717 316.783 136.443 317.103 136.27C317.429 136.09 317.883 136 318.463 136H320.533V140.6H319.753V136.37L320.153 136.71H318.463C318.076 136.71 317.776 136.757 317.563 136.85C317.356 136.943 317.213 137.12 317.133 137.38C317.053 137.633 317.013 138.007 317.013 138.5C317.013 138.993 317.053 139.37 317.133 139.63C317.213 139.883 317.356 140.057 317.563 140.15C317.776 140.243 318.076 140.29 318.463 140.29H321.613V141H318.463ZM321.613 141V140.29C321.699 140.29 321.753 140.323 321.773 140.39C321.799 140.45 321.813 140.533 321.813 140.64C321.813 140.747 321.799 140.833 321.773 140.9C321.753 140.967 321.699 141 321.613 141ZM317.493 135.1V134.2H318.273V135.1H317.493ZM318.863 135.1V134.2H319.643V135.1H318.863ZM323.874 141V140.29H324.954V141H323.874ZM324.954 141V140.29C325.041 140.29 325.094 140.323 325.114 140.39C325.141 140.45 325.154 140.533 325.154 140.64C325.154 140.747 325.141 140.833 325.114 140.9C325.094 140.967 325.041 141 324.954 141ZM322.014 141V140.29H323.454L323.094 140.58V136H323.874V141H322.014ZM322.014 141C321.927 141 321.874 140.967 321.854 140.9C321.827 140.833 321.814 140.747 321.814 140.64C321.814 140.533 321.827 140.45 321.854 140.39C321.874 140.323 321.927 140.29 322.014 140.29V141ZM322.414 142.8V141.9H323.194V142.8H322.414ZM323.784 142.8V141.9H324.564V142.8H323.784ZM332.874 141V140.29H333.954V141H332.874ZM330.614 141C330.387 141 330.164 140.957 329.944 140.87C329.73 140.783 329.524 140.647 329.324 140.46L329.834 139.93C329.987 140.057 330.124 140.15 330.244 140.21C330.364 140.263 330.487 140.29 330.614 140.29H332.394L332.094 140.61V138.22C332.094 138.1 332.08 137.93 332.054 137.71C332.034 137.49 332 137.243 331.954 136.97C331.914 136.69 331.864 136.41 331.804 136.13L332.564 136C332.61 136.233 332.657 136.493 332.704 136.78C332.75 137.067 332.79 137.34 332.824 137.6C332.857 137.853 332.874 138.06 332.874 138.22V141H330.614ZM325.354 141V140.29H326.814L326.614 140.49V137H327.384V141H325.354ZM327.384 141V140.29H328.514C328.74 140.29 328.91 140.257 329.024 140.19C329.144 140.123 329.227 139.99 329.274 139.79C329.32 139.59 329.344 139.297 329.344 138.91V136.5H330.124V138.91C330.124 139.43 330.067 139.843 329.954 140.15C329.847 140.457 329.677 140.677 329.444 140.81C329.21 140.937 328.9 141 328.514 141H327.384ZM325.354 141C325.267 141 325.214 140.967 325.194 140.9C325.167 140.833 325.154 140.747 325.154 140.64C325.154 140.533 325.167 140.45 325.194 140.39C325.214 140.323 325.267 140.29 325.354 140.29V141ZM333.954 141V140.29C334.04 140.29 334.094 140.323 334.114 140.39C334.14 140.45 334.154 140.533 334.154 140.64C334.154 140.747 334.14 140.833 334.114 140.9C334.094 140.967 334.04 141 333.954 141ZM336.217 141V140.29H337.297V141H336.217ZM337.297 141V140.29C337.384 140.29 337.437 140.323 337.457 140.39C337.484 140.45 337.497 140.533 337.497 140.64C337.497 140.747 337.484 140.833 337.457 140.9C337.437 140.967 337.384 141 337.297 141ZM334.357 141V140.29H335.797L335.437 140.58V136H336.217V141H334.357ZM334.357 141C334.27 141 334.217 140.967 334.197 140.9C334.17 140.833 334.157 140.747 334.157 140.64C334.157 140.533 334.17 140.45 334.197 140.39C334.217 140.323 334.27 140.29 334.357 140.29V141ZM334.757 142.8V141.9H335.537V142.8H334.757ZM336.127 142.8V141.9H336.907V142.8H336.127ZM337.696 141V140.29H339.136L338.776 140.58V136H339.556V141H337.696ZM337.696 141C337.61 141 337.556 140.967 337.536 140.9C337.51 140.833 337.496 140.747 337.496 140.64C337.496 140.533 337.51 140.45 337.536 140.39C337.556 140.323 337.61 140.29 337.696 140.29V141ZM338.696 135.1C338.59 134.967 338.506 134.837 338.446 134.71C338.393 134.583 338.366 134.45 338.366 134.31C338.366 134.117 338.413 133.943 338.506 133.79C338.606 133.637 338.736 133.517 338.896 133.43C339.056 133.343 339.23 133.3 339.416 133.3C339.523 133.3 339.63 133.317 339.736 133.35C339.843 133.377 339.936 133.417 340.016 133.47L339.756 133.92C339.703 133.887 339.65 133.867 339.596 133.86C339.55 133.847 339.5 133.84 339.446 133.84C339.293 133.84 339.17 133.883 339.076 133.97C338.99 134.057 338.946 134.17 338.946 134.31C338.946 134.397 338.963 134.48 338.996 134.56C339.036 134.64 339.093 134.727 339.166 134.82L338.696 135.1ZM338.176 135.1V134.57H340.146V135.1H338.176ZM342.483 141V140.29H343.763V141H342.483ZM340.853 143.21C340.766 143.21 340.676 143.203 340.583 143.19C340.483 143.183 340.386 143.177 340.293 143.17L340.383 142.46C340.476 142.467 340.563 142.473 340.643 142.48C340.723 142.493 340.793 142.5 340.853 142.5C341.166 142.5 341.419 142.38 341.613 142.14C341.806 141.907 341.903 141.58 341.903 141.16V136H342.683V141.16C342.683 141.567 342.603 141.923 342.443 142.23C342.289 142.543 342.076 142.783 341.803 142.95C341.529 143.123 341.213 143.21 340.853 143.21ZM343.763 141V140.29C343.849 140.29 343.903 140.323 343.923 140.39C343.949 140.45 343.963 140.533 343.963 140.64C343.963 140.747 343.949 140.833 343.923 140.9C343.903 140.967 343.849 141 343.763 141ZM345.371 141V133.83H346.151V141H345.371ZM344.161 141V140.29H345.371V141H344.161ZM344.161 141C344.074 141 344.021 140.967 344.001 140.9C343.974 140.833 343.961 140.747 343.961 140.64C343.961 140.533 343.974 140.45 344.001 140.39C344.021 140.323 344.074 140.29 344.161 140.29V141ZM348.274 141V133.83H349.044V141H348.274Z" fill="#517D2E" fill-opacity="0.6"/>
<path d="M83.0046 112.46C82.1578 112.46 81.3649 112.797 80.7645 113.413C80.1669 114.029 79.8356 114.843 79.8356 115.712C79.8356 116.581 80.1669 117.394 80.7645 118.01C81.3649 118.623 82.1578 118.963 83.0046 118.963C83.8514 118.963 84.6443 118.623 85.2447 118.01C85.8423 117.394 86.1736 116.581 86.1736 115.712C86.1736 114.843 85.8423 114.029 85.2447 113.413C84.9515 113.11 84.6024 112.87 84.2179 112.706C83.8333 112.542 83.4209 112.459 83.0046 112.46ZM94.681 119.303L92.8288 117.679C92.9166 117.127 92.9619 116.563 92.9619 116.002C92.9619 115.442 92.9166 114.875 92.8288 114.326L94.681 112.701C94.8209 112.578 94.921 112.415 94.9681 112.232C95.0151 112.049 95.0068 111.856 94.9443 111.678L94.9188 111.603C94.4091 110.14 93.6454 108.785 92.6646 107.601L92.6136 107.54C92.4945 107.397 92.3358 107.293 92.1583 107.244C91.9809 107.195 91.793 107.202 91.6196 107.264L89.32 108.104C88.4704 107.389 87.5245 106.826 86.4993 106.433L86.0547 103.966C86.0211 103.78 85.9333 103.609 85.8028 103.476C85.6722 103.343 85.5053 103.253 85.324 103.219L85.2476 103.205C83.7749 102.932 82.223 102.932 80.7503 103.205L80.6739 103.219C80.4926 103.253 80.3256 103.343 80.1951 103.476C80.0646 103.609 79.9768 103.78 79.9432 103.966L79.4958 106.445C78.4803 106.84 77.5343 107.403 76.6949 108.11L74.3783 107.264C74.2049 107.201 74.0169 107.194 73.8394 107.243C73.6618 107.293 73.5031 107.396 73.3843 107.54L73.3333 107.601C72.3543 108.786 71.5907 110.141 71.079 111.603L71.0536 111.678C70.9261 112.042 71.0309 112.448 71.3169 112.701L73.1917 114.343C73.1039 114.889 73.0614 115.447 73.0614 115.999C73.0614 116.557 73.1039 117.115 73.1917 117.656L71.3226 119.298C71.1827 119.421 71.0825 119.584 71.0355 119.767C70.9885 119.95 70.9967 120.143 71.0592 120.32L71.0847 120.396C71.5973 121.858 72.3534 123.209 73.339 124.397L73.39 124.458C73.5091 124.602 73.6678 124.705 73.8452 124.755C74.0227 124.804 74.2105 124.797 74.384 124.735L76.7006 123.889C77.5445 124.601 78.4847 125.165 79.5014 125.554L79.9489 128.033C79.9824 128.219 80.0703 128.39 80.2008 128.523C80.3313 128.656 80.4983 128.746 80.6795 128.78L80.756 128.794C82.2431 129.069 83.7661 129.069 85.2532 128.794L85.3297 128.78C85.5109 128.746 85.6779 128.656 85.8084 128.523C85.9389 128.39 86.0268 128.219 86.0603 128.033L86.505 125.566C87.5301 125.17 88.476 124.61 89.3256 123.895L91.6252 124.735C91.7986 124.797 91.9866 124.805 92.1642 124.755C92.3417 124.706 92.5004 124.603 92.6193 124.458L92.6702 124.397C93.6558 123.203 94.4119 121.858 94.9245 120.396L94.95 120.32C95.0718 119.96 94.967 119.556 94.681 119.303ZM83.0046 120.82C80.2547 120.82 78.0259 118.533 78.0259 115.712C78.0259 112.89 80.2547 110.603 83.0046 110.603C85.7545 110.603 87.9833 112.89 87.9833 115.712C87.9833 118.533 85.7545 120.82 83.0046 120.82Z" fill="#517D2E" fill-opacity="0.6"/>
<path d="M66.0739 141C65.0806 141 64.3372 140.827 63.8439 140.48C63.3506 140.133 63.1039 139.597 63.1039 138.87C63.1039 138.71 63.1139 138.537 63.1339 138.35C63.1606 138.163 63.1906 137.983 63.2239 137.81C63.2572 137.63 63.2872 137.477 63.3139 137.35C63.3406 137.217 63.3572 137.127 63.3639 137.08L64.1239 137.22C64.1039 137.327 64.0739 137.473 64.0339 137.66C64.0006 137.847 63.9672 138.047 63.9339 138.26C63.9006 138.473 63.8839 138.677 63.8839 138.87C63.8839 139.203 63.9539 139.477 64.0939 139.69C64.2339 139.897 64.4639 140.05 64.7839 140.15C65.1039 140.243 65.5339 140.29 66.0739 140.29H69.0139V136H69.7939V141H66.0739ZM65.3839 136.07V135.17H66.1639V136.07H65.3839ZM66.7539 136.07V135.17H67.5339V136.07H66.7539ZM71.9643 141V133.83H72.7343V141H71.9643ZM74.4898 141V140.29H78.2198L77.5798 140.86V138.68C77.5798 138.187 77.5232 137.797 77.4098 137.51C77.2965 137.223 77.1098 137.02 76.8498 136.9C76.5965 136.773 76.2532 136.71 75.8198 136.71H75.0098V136H75.8198C76.3532 136 76.8098 136.083 77.1898 136.25C77.5698 136.417 77.8598 136.697 78.0598 137.09C78.2598 137.477 78.3598 138.007 78.3598 138.68V141H74.4898ZM80.2838 141V133.83H81.0538V141H80.2838ZM86.6794 141V140.29H87.7594V141H86.6794ZM82.8094 141V140.29H86.5394L85.8994 140.86V138.68C85.8994 138.187 85.8427 137.797 85.7294 137.51C85.616 137.223 85.4294 137.02 85.1694 136.9C84.916 136.773 84.5727 136.71 84.1394 136.71H83.3294V136H84.1394C84.6727 136 85.1294 136.083 85.5094 136.25C85.8894 136.417 86.1794 136.697 86.3794 137.09C86.5794 137.477 86.6794 138.007 86.6794 138.68V141H82.8094ZM87.7594 141V140.29C87.846 140.29 87.8994 140.323 87.9194 140.39C87.946 140.45 87.9594 140.533 87.9594 140.64C87.9594 140.747 87.946 140.833 87.9194 140.9C87.8994 140.967 87.846 141 87.7594 141ZM90.3309 140.97C89.9709 140.663 89.6943 140.313 89.5009 139.92C89.3143 139.52 89.2209 139.097 89.2209 138.65C89.2209 138.27 89.2876 137.92 89.4209 137.6C89.5543 137.273 89.7376 136.99 89.9709 136.75C90.2043 136.51 90.4809 136.327 90.8009 136.2C91.1209 136.067 91.4643 136 91.8309 136C92.0243 136 92.2309 136.02 92.4509 136.06C92.6776 136.1 92.8943 136.157 93.1009 136.23L92.8309 136.9C92.6643 136.84 92.4943 136.793 92.3209 136.76C92.1543 136.727 91.9943 136.71 91.8409 136.71C91.4876 136.71 91.1709 136.793 90.8909 136.96C90.6109 137.127 90.3909 137.357 90.2309 137.65C90.0776 137.937 90.0009 138.27 90.0009 138.65C90.0009 139.37 90.2809 139.963 90.8409 140.43L90.3309 140.97ZM88.1609 141V140.29H93.2209V141H88.1609ZM88.1609 141C88.0743 141 88.0209 140.967 88.0009 140.9C87.9743 140.833 87.9609 140.747 87.9609 140.64C87.9609 140.533 87.9743 140.45 88.0009 140.39C88.0209 140.323 88.0743 140.29 88.1609 140.29V141ZM94.8789 141V140.29H99.7689L99.3289 140.74V133.83H100.109V141H94.8789ZM96.4789 140.29V135.25H97.2489V140.29H96.4789ZM96.3989 143.69C96.2922 143.557 96.2089 143.427 96.1489 143.3C96.0956 143.173 96.0689 143.04 96.0689 142.9C96.0689 142.707 96.1156 142.533 96.2089 142.38C96.3089 142.227 96.4389 142.107 96.5989 142.02C96.7589 141.933 96.9322 141.89 97.1189 141.89C97.2256 141.89 97.3322 141.903 97.4389 141.93C97.5456 141.963 97.6389 142.007 97.7189 142.06L97.4589 142.51C97.4056 142.477 97.3522 142.453 97.2989 142.44C97.2522 142.433 97.2022 142.43 97.1489 142.43C96.9956 142.43 96.8722 142.473 96.7789 142.56C96.6922 142.647 96.6489 142.76 96.6489 142.9C96.6489 142.987 96.6656 143.07 96.6989 143.15C96.7389 143.23 96.7956 143.317 96.8689 143.41L96.3989 143.69ZM95.8789 143.69V143.16H97.8489V143.69H95.8789ZM102.274 141V133.83H103.044V141H102.274Z" fill="#517D2E" fill-opacity="0.6"/>
<path d="M199.536 140.408H198.456V138.778C198.456 136.768 197.516 136.098 195.916 136.098H195.106V136.788H195.916C197.226 136.788 197.706 137.288 197.706 138.778V140.408H194.586V141.098H199.536C199.706 141.098 199.736 140.968 199.736 140.758C199.736 140.548 199.706 140.408 199.536 140.408ZM202.837 140.408H201.767V136.098H201.017V140.408H199.937C199.767 140.408 199.737 140.548 199.737 140.758C199.737 140.968 199.767 141.098 199.937 141.098H202.837C203.017 141.098 203.037 140.968 203.037 140.758C203.037 140.548 203.017 140.408 202.837 140.408ZM200.337 142.578H201.087V141.698H200.337V142.578ZM201.677 142.578H202.427V141.698H201.677V142.578ZM208.338 136.098C206.928 136.098 206.138 136.908 205.418 137.788V136.098H204.668V140.408H203.238C203.068 140.408 203.038 140.548 203.038 140.758C203.038 140.968 203.068 141.098 203.238 141.098H210.668V138.688C210.668 137.568 210.238 136.098 208.338 136.098ZM205.418 138.778C206.068 137.958 206.968 136.788 208.328 136.788C209.398 136.788 209.918 137.418 209.918 138.688V140.408H205.418V138.778ZM214.821 140.408H213.741V136.098H212.991V141.518C212.991 142.368 212.561 142.878 211.911 142.878C211.791 142.878 211.631 142.868 211.441 142.848L211.351 143.528C211.531 143.548 211.741 143.568 211.911 143.568C212.991 143.568 213.741 142.748 213.741 141.518V141.098H214.821C214.991 141.098 215.021 140.968 215.021 140.758C215.021 140.548 214.991 140.408 214.821 140.408ZM216.419 133.918V140.408H215.219C215.049 140.408 215.019 140.548 215.019 140.758C215.019 140.968 215.049 141.098 215.219 141.098H217.169V133.918H216.419ZM219.294 141.098H220.044V133.918H219.294V141.098Z" fill="#517D2E"/>
<path d="M206.536 114.411C203.415 113.559 202.411 112.678 202.411 111.306C202.411 109.731 203.8 108.633 206.124 108.633C208.572 108.633 209.479 109.861 209.562 111.667H212.601C212.505 109.182 211.061 106.9 208.187 106.163V103H204.061V106.12C201.393 106.727 199.248 108.547 199.248 111.334C199.248 114.671 201.874 116.332 205.711 117.3C209.149 118.167 209.837 119.438 209.837 120.781C209.837 121.778 209.163 123.367 206.124 123.367C203.291 123.367 202.177 122.038 202.026 120.333H199C199.165 123.497 201.42 125.273 204.061 125.866V129H208.187V125.894C210.868 125.36 213 123.728 213 120.767C213 116.664 209.658 115.263 206.536 114.411Z" fill="#517D2E"/>
<g>
<path d="M20 172H395V228H20V172Z" fill="white"/>
</g>
<path d="M346.421 191.787L333.699 179.285C333.607 179.194 333.498 179.123 333.378 179.074C333.259 179.025 333.13 179 333.001 179C332.871 179 332.743 179.025 332.623 179.074C332.503 179.123 332.394 179.194 332.303 179.285L319.581 191.787C319.21 192.151 319 192.647 319 193.163C319 194.235 319.886 195.107 320.977 195.107H322.317V204.028C322.317 204.566 322.759 205 323.305 205H331.024V198.196H334.483V205H342.696C343.242 205 343.684 204.566 343.684 204.028V195.107H345.024C345.55 195.107 346.053 194.903 346.424 194.536C347.193 193.777 347.193 192.546 346.421 191.787Z" fill="#517D2E" fill-opacity="0.6"/>
<path d="M318.463 217C317.883 217 317.429 216.913 317.103 216.74C316.783 216.56 316.556 216.287 316.423 215.92C316.296 215.547 316.233 215.073 316.233 214.5C316.233 213.927 316.296 213.457 316.423 213.09C316.556 212.717 316.783 212.443 317.103 212.27C317.429 212.09 317.883 212 318.463 212H320.533V216.6H319.753V212.37L320.153 212.71H318.463C318.076 212.71 317.776 212.757 317.563 212.85C317.356 212.943 317.213 213.12 317.133 213.38C317.053 213.633 317.013 214.007 317.013 214.5C317.013 214.993 317.053 215.37 317.133 215.63C317.213 215.883 317.356 216.057 317.563 216.15C317.776 216.243 318.076 216.29 318.463 216.29H321.613V217H318.463ZM321.613 217V216.29C321.699 216.29 321.753 216.323 321.773 216.39C321.799 216.45 321.813 216.533 321.813 216.64C321.813 216.747 321.799 216.833 321.773 216.9C321.753 216.967 321.699 217 321.613 217ZM317.493 211.1V210.2H318.273V211.1H317.493ZM318.863 211.1V210.2H319.643V211.1H318.863ZM323.874 217V216.29H324.954V217H323.874ZM324.954 217V216.29C325.041 216.29 325.094 216.323 325.114 216.39C325.141 216.45 325.154 216.533 325.154 216.64C325.154 216.747 325.141 216.833 325.114 216.9C325.094 216.967 325.041 217 324.954 217ZM322.014 217V216.29H323.454L323.094 216.58V212H323.874V217H322.014ZM322.014 217C321.927 217 321.874 216.967 321.854 216.9C321.827 216.833 321.814 216.747 321.814 216.64C321.814 216.533 321.827 216.45 321.854 216.39C321.874 216.323 321.927 216.29 322.014 216.29V217ZM322.414 218.8V217.9H323.194V218.8H322.414ZM323.784 218.8V217.9H324.564V218.8H323.784ZM332.874 217V216.29H333.954V217H332.874ZM330.614 217C330.387 217 330.164 216.957 329.944 216.87C329.73 216.783 329.524 216.647 329.324 216.46L329.834 215.93C329.987 216.057 330.124 216.15 330.244 216.21C330.364 216.263 330.487 216.29 330.614 216.29H332.394L332.094 216.61V214.22C332.094 214.1 332.08 213.93 332.054 213.71C332.034 213.49 332 213.243 331.954 212.97C331.914 212.69 331.864 212.41 331.804 212.13L332.564 212C332.61 212.233 332.657 212.493 332.704 212.78C332.75 213.067 332.79 213.34 332.824 213.6C332.857 213.853 332.874 214.06 332.874 214.22V217H330.614ZM325.354 217V216.29H326.814L326.614 216.49V213H327.384V217H325.354ZM327.384 217V216.29H328.514C328.74 216.29 328.91 216.257 329.024 216.19C329.144 216.123 329.227 215.99 329.274 215.79C329.32 215.59 329.344 215.297 329.344 214.91V212.5H330.124V214.91C330.124 215.43 330.067 215.843 329.954 216.15C329.847 216.457 329.677 216.677 329.444 216.81C329.21 216.937 328.9 217 328.514 217H327.384ZM325.354 217C325.267 217 325.214 216.967 325.194 216.9C325.167 216.833 325.154 216.747 325.154 216.64C325.154 216.533 325.167 216.45 325.194 216.39C325.214 216.323 325.267 216.29 325.354 216.29V217ZM333.954 217V216.29C334.04 216.29 334.094 216.323 334.114 216.39C334.14 216.45 334.154 216.533 334.154 216.64C334.154 216.747 334.14 216.833 334.114 216.9C334.094 216.967 334.04 217 333.954 217ZM336.217 217V216.29H337.297V217H336.217ZM337.297 217V216.29C337.384 216.29 337.437 216.323 337.457 216.39C337.484 216.45 337.497 216.533 337.497 216.64C337.497 216.747 337.484 216.833 337.457 216.9C337.437 216.967 337.384 217 337.297 217ZM334.357 217V216.29H335.797L335.437 216.58V212H336.217V217H334.357ZM334.357 217C334.27 217 334.217 216.967 334.197 216.9C334.17 216.833 334.157 216.747 334.157 216.64C334.157 216.533 334.17 216.45 334.197 216.39C334.217 216.323 334.27 216.29 334.357 216.29V217ZM334.757 218.8V217.9H335.537V218.8H334.757ZM336.127 218.8V217.9H336.907V218.8H336.127ZM337.696 217V216.29H339.136L338.776 216.58V212H339.556V217H337.696ZM337.696 217C337.61 217 337.556 216.967 337.536 216.9C337.51 216.833 337.496 216.747 337.496 216.64C337.496 216.533 337.51 216.45 337.536 216.39C337.556 216.323 337.61 216.29 337.696 216.29V217ZM338.696 211.1C338.59 210.967 338.506 210.837 338.446 210.71C338.393 210.583 338.366 210.45 338.366 210.31C338.366 210.117 338.413 209.943 338.506 209.79C338.606 209.637 338.736 209.517 338.896 209.43C339.056 209.343 339.23 209.3 339.416 209.3C339.523 209.3 339.63 209.317 339.736 209.35C339.843 209.377 339.936 209.417 340.016 209.47L339.756 209.92C339.703 209.887 339.65 209.867 339.596 209.86C339.55 209.847 339.5 209.84 339.446 209.84C339.293 209.84 339.17 209.883 339.076 209.97C338.99 210.057 338.946 210.17 338.946 210.31C338.946 210.397 338.963 210.48 338.996 210.56C339.036 210.64 339.093 210.727 339.166 210.82L338.696 211.1ZM338.176 211.1V210.57H340.146V211.1H338.176ZM342.483 217V216.29H343.763V217H342.483ZM340.853 219.21C340.766 219.21 340.676 219.203 340.583 219.19C340.483 219.183 340.386 219.177 340.293 219.17L340.383 218.46C340.476 218.467 340.563 218.473 340.643 218.48C340.723 218.493 340.793 218.5 340.853 218.5C341.166 218.5 341.419 218.38 341.613 218.14C341.806 217.907 341.903 217.58 341.903 217.16V212H342.683V217.16C342.683 217.567 342.603 217.923 342.443 218.23C342.289 218.543 342.076 218.783 341.803 218.95C341.529 219.123 341.213 219.21 340.853 219.21ZM343.763 217V216.29C343.849 216.29 343.903 216.323 343.923 216.39C343.949 216.45 343.963 216.533 343.963 216.64C343.963 216.747 343.949 216.833 343.923 216.9C343.903 216.967 343.849 217 343.763 217ZM345.371 217V209.83H346.151V217H345.371ZM344.161 217V216.29H345.371V217H344.161ZM344.161 217C344.074 217 344.021 216.967 344.001 216.9C343.974 216.833 343.961 216.747 343.961 216.64C343.961 216.533 343.974 216.45 344.001 216.39C344.021 216.323 344.074 216.29 344.161 216.29V217ZM348.274 217V209.83H349.044V217H348.274Z" fill="#517D2E" fill-opacity="0.6"/>
<path d="M83.0046 188.46C82.1578 188.46 81.3649 188.797 80.7645 189.413C80.1669 190.029 79.8356 190.843 79.8356 191.712C79.8356 192.581 80.1669 193.394 80.7645 194.01C81.3649 194.623 82.1578 194.963 83.0046 194.963C83.8514 194.963 84.6443 194.623 85.2447 194.01C85.8423 193.394 86.1736 192.581 86.1736 191.712C86.1736 190.843 85.8423 190.029 85.2447 189.413C84.9515 189.11 84.6024 188.87 84.2179 188.706C83.8333 188.542 83.4209 188.459 83.0046 188.46ZM94.681 195.303L92.8288 193.679C92.9166 193.127 92.9619 192.563 92.9619 192.002C92.9619 191.442 92.9166 190.875 92.8288 190.326L94.681 188.701C94.8209 188.578 94.921 188.415 94.9681 188.232C95.0151 188.049 95.0068 187.856 94.9443 187.678L94.9188 187.603C94.4091 186.14 93.6454 184.785 92.6646 183.601L92.6136 183.54C92.4945 183.397 92.3358 183.293 92.1583 183.244C91.9809 183.195 91.793 183.202 91.6196 183.264L89.32 184.104C88.4704 183.389 87.5245 182.826 86.4993 182.433L86.0547 179.966C86.0211 179.78 85.9333 179.609 85.8028 179.476C85.6722 179.343 85.5053 179.253 85.324 179.219L85.2476 179.205C83.7749 178.932 82.223 178.932 80.7503 179.205L80.6739 179.219C80.4926 179.253 80.3256 179.343 80.1951 179.476C80.0646 179.609 79.9768 179.78 79.9432 179.966L79.4958 182.445C78.4803 182.84 77.5343 183.403 76.6949 184.11L74.3783 183.264C74.2049 183.201 74.0169 183.194 73.8394 183.243C73.6618 183.293 73.5031 183.396 73.3843 183.54L73.3333 183.601C72.3543 184.786 71.5907 186.141 71.079 187.603L71.0536 187.678C70.9261 188.042 71.0309 188.448 71.3169 188.701L73.1917 190.343C73.1039 190.889 73.0614 191.447 73.0614 191.999C73.0614 192.557 73.1039 193.115 73.1917 193.656L71.3226 195.298C71.1827 195.421 71.0825 195.584 71.0355 195.767C70.9885 195.95 70.9967 196.143 71.0592 196.32L71.0847 196.396C71.5973 197.858 72.3534 199.209 73.339 200.397L73.39 200.458C73.5091 200.602 73.6678 200.705 73.8452 200.755C74.0227 200.804 74.2105 200.797 74.384 200.735L76.7006 199.889C77.5445 200.601 78.4847 201.165 79.5014 201.554L79.9489 204.033C79.9824 204.219 80.0703 204.39 80.2008 204.523C80.3313 204.656 80.4983 204.746 80.6795 204.78L80.756 204.794C82.2431 205.069 83.7661 205.069 85.2532 204.794L85.3297 204.78C85.5109 204.746 85.6779 204.656 85.8084 204.523C85.9389 204.39 86.0268 204.219 86.0603 204.033L86.505 201.566C87.5301 201.17 88.476 200.61 89.3256 199.895L91.6252 200.735C91.7986 200.797 91.9866 200.805 92.1642 200.755C92.3417 200.706 92.5004 200.603 92.6193 200.458L92.6702 200.397C93.6558 199.203 94.4119 197.858 94.9245 196.396L94.95 196.32C95.0718 195.96 94.967 195.556 94.681 195.303ZM83.0046 196.82C80.2547 196.82 78.0259 194.533 78.0259 191.712C78.0259 188.89 80.2547 186.603 83.0046 186.603C85.7545 186.603 87.9833 188.89 87.9833 191.712C87.9833 194.533 85.7545 196.82 83.0046 196.82Z" fill="#517D2E"/>
<path d="M66.2416 211.2H65.4916V212.08H66.2416V211.2ZM67.5816 211.2H66.8316V212.08H67.5816V211.2ZM69.1116 212V216.31H66.1716C64.5316 216.31 63.9516 215.89 63.9516 214.87C63.9516 214.32 64.1116 213.63 64.1916 213.22L63.4616 213.08C63.3816 213.49 63.2016 214.25 63.2016 214.87C63.2016 216.33 64.1816 217 66.1716 217H69.8616V212H69.1116ZM72.0424 217H72.7924V209.82H72.0424V217ZM75.8784 212H75.0684V212.69H75.8784C77.1884 212.69 77.6684 213.19 77.6684 214.68V216.31H74.5484V217H78.4184V214.68C78.4184 212.67 77.4784 212 75.8784 212ZM80.3424 217H81.0924V209.82H80.3424V217ZM87.7984 216.31H86.7184V214.68C86.7184 212.67 85.7784 212 84.1784 212H83.3684V212.69H84.1784C85.4884 212.69 85.9684 213.19 85.9684 214.68V216.31H82.8484V217H87.7984C87.9684 217 87.9984 216.87 87.9984 216.66C87.9984 216.45 87.9684 216.31 87.7984 216.31ZM90.72 216.31C90.26 215.86 90.01 215.29 90.01 214.65C90.01 213.51 90.79 212.69 91.88 212.69C92.2 212.69 92.55 212.76 92.88 212.88L93.14 212.23C92.73 212.08 92.26 212 91.87 212C90.39 212 89.26 213.12 89.26 214.65C89.26 215.26 89.44 215.82 89.77 216.31H88.2C88.03 216.31 88 216.45 88 216.66C88 216.87 88.03 217 88.2 217H93.26V216.31H90.72ZM99.368 209.82V216.31H97.268V211.24H96.518V216.31H94.918V217H100.118V209.82H99.368ZM96.688 218.59C96.688 218.31 96.878 218.12 97.148 218.12C97.248 218.12 97.338 218.14 97.438 218.2L97.738 217.76C97.578 217.66 97.348 217.6 97.148 217.6C96.588 217.6 96.118 218.01 96.118 218.58C96.118 218.67 96.128 218.76 96.148 218.84H95.928V219.37H97.858V218.84H96.748C96.708 218.76 96.688 218.68 96.688 218.59ZM102.294 217H103.044V209.82H102.294V217Z" fill="#517D2E"/>
<path d="M198.338 217.098V216.388H199.418V217.098H198.338ZM194.468 217.098V216.388H198.198L197.558 216.958V214.778C197.558 214.285 197.502 213.895 197.388 213.608C197.275 213.321 197.088 213.118 196.828 212.998C196.575 212.871 196.232 212.808 195.798 212.808H194.988V212.098H195.798C196.332 212.098 196.788 212.181 197.168 212.348C197.548 212.515 197.838 212.795 198.038 213.188C198.238 213.575 198.338 214.105 198.338 214.778V217.098H194.468ZM199.418 217.098V216.388C199.505 216.388 199.558 216.421 199.578 216.488C199.605 216.548 199.618 216.631 199.618 216.738C199.618 216.845 199.605 216.931 199.578 216.998C199.558 217.065 199.505 217.098 199.418 217.098ZM201.68 217.098V216.388H202.76V217.098H201.68ZM202.76 217.098V216.388C202.847 216.388 202.9 216.421 202.92 216.488C202.947 216.548 202.96 216.631 202.96 216.738C202.96 216.845 202.947 216.931 202.92 216.998C202.9 217.065 202.847 217.098 202.76 217.098ZM199.82 217.098V216.388H201.26L200.9 216.678V212.098H201.68V217.098H199.82ZM199.82 217.098C199.733 217.098 199.68 217.065 199.66 216.998C199.633 216.931 199.62 216.845 199.62 216.738C199.62 216.631 199.633 216.548 199.66 216.488C199.68 216.421 199.733 216.388 199.82 216.388V217.098ZM200.22 218.898V217.998H201V218.898H200.22ZM201.59 218.898V217.998H202.37V218.898H201.59ZM203.159 217.098V216.388H210.549L209.829 217.038V214.688C209.829 214.268 209.769 213.921 209.649 213.648C209.536 213.368 209.363 213.158 209.129 213.018C208.903 212.878 208.616 212.808 208.269 212.808C207.976 212.808 207.703 212.858 207.449 212.958C207.203 213.051 206.973 213.178 206.759 213.338C206.546 213.491 206.346 213.665 206.159 213.858C205.979 214.045 205.813 214.235 205.659 214.428C205.506 214.621 205.366 214.798 205.239 214.958L204.989 214.248C205.156 214.041 205.323 213.835 205.489 213.628C205.663 213.421 205.843 213.228 206.029 213.048C206.216 212.861 206.419 212.698 206.639 212.558C206.866 212.418 207.113 212.308 207.379 212.228C207.646 212.141 207.946 212.098 208.279 212.098C208.753 212.098 209.139 212.178 209.439 212.338C209.746 212.498 209.983 212.711 210.149 212.978C210.323 213.238 210.443 213.518 210.509 213.818C210.576 214.118 210.609 214.408 210.609 214.688V217.098H203.159ZM204.579 216.388V212.098H205.359V216.388H204.579ZM203.159 217.098C203.073 217.098 203.019 217.065 202.999 216.998C202.973 216.931 202.959 216.845 202.959 216.738C202.959 216.631 202.973 216.548 202.999 216.488C203.019 216.421 203.073 216.388 203.159 216.388V217.098ZM213.483 217.098V216.388H214.763V217.098H213.483ZM211.853 219.308C211.766 219.308 211.676 219.301 211.583 219.288C211.483 219.281 211.386 219.275 211.293 219.268L211.383 218.558C211.476 218.565 211.563 218.571 211.643 218.578C211.723 218.591 211.793 218.598 211.853 218.598C212.166 218.598 212.419 218.478 212.613 218.238C212.806 218.005 212.903 217.678 212.903 217.258V212.098H213.683V217.258C213.683 217.665 213.603 218.021 213.443 218.328C213.289 218.641 213.076 218.881 212.803 219.048C212.529 219.221 212.213 219.308 211.853 219.308ZM214.763 217.098V216.388C214.849 216.388 214.903 216.421 214.923 216.488C214.949 216.548 214.963 216.631 214.963 216.738C214.963 216.845 214.949 216.931 214.923 216.998C214.903 217.065 214.849 217.098 214.763 217.098ZM216.371 217.098V209.928H217.151V217.098H216.371ZM215.161 217.098V216.388H216.371V217.098H215.161ZM215.161 217.098C215.074 217.098 215.021 217.065 215.001 216.998C214.974 216.931 214.961 216.845 214.961 216.738C214.961 216.631 214.974 216.548 215.001 216.488C215.021 216.421 215.074 216.388 215.161 216.388V217.098ZM219.274 217.098V209.928H220.044V217.098H219.274Z" fill="#517D2E" fill-opacity="0.6"/>
<path d="M206.536 190.411C203.415 189.559 202.411 188.678 202.411 187.306C202.411 185.731 203.8 184.633 206.124 184.633C208.572 184.633 209.479 185.861 209.562 187.667H212.601C212.505 185.182 211.061 182.9 208.187 182.163V179H204.061V182.12C201.393 182.727 199.248 184.547 199.248 187.334C199.248 190.671 201.874 192.332 205.711 193.3C209.149 194.167 209.837 195.438 209.837 196.781C209.837 197.778 209.163 199.367 206.124 199.367C203.291 199.367 202.177 198.038 202.026 196.333H199C199.165 199.497 201.42 201.273 204.061 201.866V205H208.187V201.894C210.868 201.36 213 199.728 213 196.767C213 192.664 209.658 191.263 206.536 190.411Z" fill="#517D2E" fill-opacity="0.6"/>
<rect x="488.5" y="0.5" width="414" height="247" rx="4.5" stroke="#9747FF" stroke-dasharray="10 5"/>
<g>
<path d="M508 20H883V76H508V20Z" fill="white"/>
</g>
<path d="M834.421 39.787L821.699 27.2847C821.607 27.1945 821.498 27.1229 821.378 27.074C821.259 27.0251 821.13 27 821.001 27C820.871 27 820.743 27.0251 820.623 27.074C820.503 27.1229 820.394 27.1945 820.303 27.2847L807.581 39.787C807.21 40.1515 807 40.6466 807 41.163C807 42.2352 807.886 43.1069 808.977 43.1069H810.317V52.028C810.317 52.5656 810.759 53 811.305 53H819.024V46.1961H822.483V53H830.696C831.242 53 831.684 52.5656 831.684 52.028V43.1069H833.024C833.55 43.1069 834.053 42.9034 834.424 42.5359C835.193 41.7765 835.193 40.5464 834.421 39.787Z" fill="#517D2E"/>
<path d="M806.507 58.39H805.757V59.27H806.507V58.39ZM807.847 58.39H807.097V59.27H807.847V58.39ZM809.827 64.31H808.757V60H806.707C804.957 60 804.477 60.78 804.477 62.5C804.477 64.22 804.957 65 806.707 65H809.827C810.007 65 810.027 64.87 810.027 64.66C810.027 64.45 810.007 64.31 809.827 64.31ZM806.707 64.31C805.527 64.31 805.227 63.99 805.227 62.5C805.227 61.01 805.527 60.69 806.707 60.69H808.007V64.31H806.707ZM813.129 64.31H812.059V60H811.309V64.31H810.229C810.059 64.31 810.029 64.45 810.029 64.66C810.029 64.87 810.059 65 810.229 65H813.129C813.309 65 813.329 64.87 813.329 64.66C813.329 64.45 813.309 64.31 813.129 64.31ZM810.629 66.48H811.379V65.6H810.629V66.48ZM811.969 66.48H812.719V65.6H811.969V66.48ZM822.079 64.31H820.999V62.22C820.999 61.75 820.839 60.7 820.699 60L819.959 60.12C820.129 60.97 820.249 61.87 820.249 62.22V64.31H818.769C818.549 64.31 818.359 64.24 818.129 64.08C818.219 63.78 818.259 63.4 818.259 62.93V60.5H817.509V62.93C817.509 64.1 817.349 64.31 816.669 64.31H815.529V60.5H814.779V64.31H813.529C813.359 64.31 813.329 64.45 813.329 64.66C813.329 64.87 813.359 65 813.529 65H816.669C817.149 65 817.509 64.91 817.759 64.69C818.079 64.9 818.419 65 818.769 65H822.079C822.249 65 822.279 64.87 822.279 64.66C822.279 64.45 822.249 64.31 822.079 64.31ZM825.384 64.31H824.314V60H823.564V64.31H822.484C822.314 64.31 822.284 64.45 822.284 64.66C822.284 64.87 822.314 65 822.484 65H825.384C825.564 65 825.584 64.87 825.584 64.66C825.584 64.45 825.564 64.31 825.384 64.31ZM822.884 66.48H823.634V65.6H822.884V66.48ZM824.224 66.48H824.974V65.6H824.224V66.48ZM827.094 58.74C827.054 58.66 827.034 58.58 827.034 58.49C827.034 58.21 827.224 58.02 827.494 58.02C827.594 58.02 827.684 58.05 827.784 58.11L828.084 57.66C827.924 57.56 827.694 57.5 827.494 57.5C826.934 57.5 826.464 57.91 826.464 58.48C826.464 58.57 826.474 58.66 826.494 58.74H826.274V59.27H828.204V58.74H827.094ZM826.864 64.31H825.784C825.614 64.31 825.584 64.45 825.584 64.66C825.584 64.87 825.614 65 825.784 65H827.614V60H826.864V64.31ZM831.821 64.31H830.741V60H829.991V65.42C829.991 66.27 829.561 66.78 828.911 66.78C828.791 66.78 828.631 66.77 828.441 66.75L828.351 67.43C828.531 67.45 828.741 67.47 828.911 67.47C829.991 67.47 830.741 66.65 830.741 65.42V65H831.821C831.991 65 832.021 64.87 832.021 64.66C832.021 64.45 831.991 64.31 831.821 64.31ZM833.419 57.82V64.31H832.219C832.049 64.31 832.019 64.45 832.019 64.66C832.019 64.87 832.049 65 832.219 65H834.169V57.82H833.419ZM836.294 65H837.044V57.82H836.294V65Z" fill="#517D2E"/>
<path d="M703.368 36.5618L697.594 27.5756C697.471 27.3941 697.307 27.2468 697.116 27.1465C696.925 27.0463 696.714 26.996 696.5 27.0002C696.078 27.0002 695.656 27.192 695.406 27.5893L689.632 36.5618H683.318C682.593 36.5618 682 37.1782 682 37.9317C682 38.0549 682.013 38.1782 682.053 38.3015L685.401 51C685.704 52.1507 686.719 53 687.932 53H705.068C706.281 53 707.296 52.1507 707.612 51L710.96 38.3015L711 37.9317C711 37.1782 710.407 36.5618 709.682 36.5618H703.368ZM692.545 36.5618L696.5 30.5345L700.455 36.5618H692.545ZM696.5 47.5206C695.05 47.5206 693.864 46.2877 693.864 44.7809C693.864 43.2741 695.05 42.0412 696.5 42.0412C697.95 42.0412 699.136 43.2741 699.136 44.7809C699.136 46.2877 697.95 47.5206 696.5 47.5206Z" fill="#517D2E" fill-opacity="0.6"/>
<path d="M684.259 67.5781C683.873 67.5781 683.513 67.5215 683.179 67.4081C682.846 67.3015 682.553 67.1481 682.299 66.9481C682.053 66.7548 681.859 66.5215 681.719 66.2481C681.579 65.9748 681.509 65.6748 681.509 65.3481C681.509 65.2148 681.519 65.0381 681.539 64.8181C681.566 64.5981 681.596 64.3515 681.629 64.0781C681.669 63.7981 681.713 63.5148 681.759 63.2281L682.529 63.3381C682.456 63.7848 682.396 64.1915 682.349 64.5581C682.309 64.9248 682.289 65.1848 682.289 65.3381C682.289 65.6381 682.373 65.9015 682.539 66.1281C682.706 66.3615 682.936 66.5415 683.229 66.6681C683.529 66.8015 683.873 66.8681 684.259 66.8681H687.089C687.596 66.8681 687.979 66.7281 688.239 66.4481C688.506 66.1681 688.639 65.7581 688.639 65.2181V64.8881H689.409V65.2281C689.409 65.6881 689.319 66.0948 689.139 66.4481C688.959 66.8015 688.696 67.0781 688.349 67.2781C688.009 67.4781 687.589 67.5781 687.089 67.5781H684.259ZM688.059 65.0981C687.833 65.0981 687.603 65.0748 687.369 65.0281C687.143 64.9815 686.916 64.8848 686.689 64.7381L687.129 64.1481C687.223 64.2081 687.313 64.2581 687.399 64.2981C687.486 64.3315 687.583 64.3548 687.689 64.3681C687.796 64.3815 687.919 64.3881 688.059 64.3881H689.949V65.0981H688.059ZM689.949 65.0981V64.3881C690.036 64.3881 690.089 64.4215 690.109 64.4881C690.136 64.5481 690.149 64.6315 690.149 64.7381C690.149 64.8448 690.136 64.9315 690.109 64.9981C690.089 65.0648 690.036 65.0981 689.949 65.0981ZM684.389 69.3981V68.4981H685.169V69.3981H684.389ZM685.759 69.3981V68.4981H686.539V69.3981H685.759ZM690.347 65.0981V64.3881H691.787L691.427 64.6781V60.0981H692.207V65.0981H690.347ZM690.347 65.0981C690.261 65.0981 690.207 65.0648 690.187 64.9981C690.161 64.9315 690.147 64.8448 690.147 64.7381C690.147 64.6315 690.161 64.5481 690.187 64.4881C690.207 64.4215 690.261 64.3881 690.347 64.3881V65.0981ZM690.747 59.1981V58.2981H691.527V59.1981H690.747ZM692.117 59.1981V58.2981H692.897V59.1981H692.117ZM695.143 65.0981V64.3881H696.363V65.0981H695.143ZM694.373 65.0981V57.9281H695.143V65.0981H694.373ZM696.363 65.0981V64.3881C696.45 64.3881 696.503 64.4215 696.523 64.4881C696.55 64.5481 696.563 64.6315 696.563 64.7381C696.563 64.8448 696.55 64.9315 696.523 64.9981C696.503 65.0648 696.45 65.0981 696.363 65.0981ZM698.622 65.0981V64.3881H699.702V65.0981H698.622ZM696.762 65.0981V64.3881H698.202L697.842 64.6781V60.0981H698.622V65.0981H696.762ZM696.762 65.0981C696.676 65.0981 696.622 65.0648 696.602 64.9981C696.576 64.9315 696.562 64.8448 696.562 64.7381C696.562 64.6315 696.576 64.5481 696.602 64.4881C696.622 64.4215 696.676 64.3881 696.762 64.3881V65.0981ZM699.702 65.0981V64.3881C699.789 64.3881 699.842 64.4215 699.862 64.4881C699.889 64.5481 699.902 64.6315 699.902 64.7381C699.902 64.8448 699.889 64.9315 699.862 64.9981C699.842 65.0648 699.789 65.0981 699.702 65.0981ZM697.842 66.8981V65.9981H698.622V66.8981H697.842ZM702.092 65.0981V64.3881H703.172V65.0981H702.092ZM701.312 65.0981V57.9281H702.092V65.0981H701.312ZM700.102 65.0981V64.3881H701.312V65.0981H700.102ZM700.102 65.0981C700.015 65.0981 699.962 65.0648 699.942 64.9981C699.915 64.9315 699.902 64.8448 699.902 64.7381C699.902 64.6315 699.915 64.5481 699.942 64.4881C699.962 64.4215 700.015 64.3881 700.102 64.3881V65.0981ZM703.172 65.0981V64.3881C703.259 64.3881 703.312 64.4215 703.332 64.4881C703.359 64.5481 703.372 64.6315 703.372 64.7381C703.372 64.8448 703.359 64.9315 703.332 64.9981C703.312 65.0648 703.259 65.0981 703.172 65.0981ZM703.568 65.0981V64.3881H710.198L709.478 65.0381V62.6881C709.478 62.2681 709.418 61.9215 709.298 61.6481C709.185 61.3681 709.012 61.1581 708.778 61.0181C708.552 60.8781 708.265 60.8081 707.918 60.8081C707.625 60.8081 707.352 60.8581 707.098 60.9581C706.852 61.0515 706.622 61.1781 706.408 61.3381C706.195 61.4915 705.995 61.6648 705.808 61.8581C705.628 62.0448 705.462 62.2348 705.308 62.4281C705.155 62.6215 705.015 62.7981 704.888 62.9581L704.628 62.2481C704.835 61.9881 705.045 61.7315 705.258 61.4781C705.472 61.2248 705.705 60.9948 705.958 60.7881C706.212 60.5815 706.498 60.4148 706.818 60.2881C707.138 60.1615 707.505 60.0981 707.918 60.0981C708.392 60.0981 708.778 60.1781 709.078 60.3381C709.385 60.4981 709.622 60.7115 709.788 60.9781C709.962 61.2381 710.082 61.5181 710.148 61.8181C710.215 62.1181 710.248 62.4081 710.248 62.6881V65.0981H703.568ZM704.228 64.3881V57.9281H705.008V64.3881H704.228ZM703.568 65.0981C703.482 65.0981 703.428 65.0648 703.408 64.9981C703.382 64.9315 703.368 64.8448 703.368 64.7381C703.368 64.6315 703.382 64.5481 703.408 64.4881C703.428 64.4215 703.482 64.3881 703.568 64.3881V65.0981Z" fill="#517D2E" fill-opacity="0.6"/>
<path d="M571.005 36.4601C570.158 36.4601 569.365 36.7972 568.764 37.4132C568.167 38.0293 567.836 38.8429 567.836 39.7118C567.836 40.5806 568.167 41.3943 568.764 42.0103C569.365 42.6235 570.158 42.9634 571.005 42.9634C571.851 42.9634 572.644 42.6235 573.245 42.0103C573.842 41.3943 574.174 40.5806 574.174 39.7118C574.174 38.8429 573.842 38.0293 573.245 37.4132C572.951 37.11 572.602 36.8696 572.218 36.706C571.833 36.5424 571.421 36.4588 571.005 36.4601ZM582.681 43.3034L580.829 41.679C580.917 41.1269 580.962 40.5632 580.962 40.0024C580.962 39.4415 580.917 38.8749 580.829 38.3257L582.681 36.7013C582.821 36.5784 582.921 36.4147 582.968 36.232C583.015 36.0493 583.007 35.8562 582.944 35.6784L582.919 35.6029C582.409 34.1403 581.645 32.7846 580.665 31.6015L580.614 31.5404C580.494 31.3967 580.336 31.2935 580.158 31.2442C579.981 31.1949 579.793 31.2019 579.62 31.2644L577.32 32.1042C576.47 31.3893 575.524 30.8256 574.499 30.4333L574.055 27.9662C574.021 27.7804 573.933 27.6094 573.803 27.476C573.672 27.3426 573.505 27.2531 573.324 27.2194L573.248 27.2049C571.775 26.9317 570.223 26.9317 568.75 27.2049L568.674 27.2194C568.493 27.2531 568.326 27.3426 568.195 27.476C568.065 27.6094 567.977 27.7804 567.943 27.9662L567.496 30.4449C566.48 30.8403 565.534 31.4027 564.695 32.11L562.378 31.2644C562.205 31.2014 562.017 31.1941 561.839 31.2435C561.662 31.2928 561.503 31.3963 561.384 31.5404L561.333 31.6015C560.354 32.7859 559.591 34.1412 559.079 35.6029L559.054 35.6784C558.926 36.0416 559.031 36.4485 559.317 36.7013L561.192 38.3431C561.104 38.8894 561.061 39.4473 561.061 39.9994C561.061 40.5574 561.104 41.1153 561.192 41.6558L559.323 43.2976C559.183 43.4205 559.083 43.5842 559.035 43.7669C558.988 43.9496 558.997 44.1427 559.059 44.3205L559.085 44.396C559.597 45.8577 560.353 47.2089 561.339 48.3974L561.39 48.4585C561.509 48.6022 561.668 48.7054 561.845 48.7547C562.023 48.804 562.211 48.797 562.384 48.7345L564.701 47.8889C565.545 48.6009 566.485 49.1646 567.501 49.554L567.949 52.0327C567.982 52.2185 568.07 52.3895 568.201 52.5229C568.331 52.6563 568.498 52.7458 568.68 52.7795L568.756 52.794C570.243 53.0687 571.766 53.0687 573.253 52.794L573.33 52.7795C573.511 52.7458 573.678 52.6563 573.808 52.5229C573.939 52.3895 574.027 52.2185 574.06 52.0327L574.505 49.5656C575.53 49.1704 576.476 48.6096 577.326 47.8947L579.625 48.7345C579.799 48.7975 579.987 48.8048 580.164 48.7554C580.342 48.7061 580.5 48.6026 580.619 48.4585L580.67 48.3974C581.656 47.2031 582.412 45.8577 582.925 44.396L582.95 44.3205C583.072 43.9602 582.967 43.5562 582.681 43.3034ZM571.005 44.8203C568.255 44.8203 566.026 42.5334 566.026 39.7118C566.026 36.8902 568.255 34.6032 571.005 34.6032C573.754 34.6032 575.983 36.8902 575.983 39.7118C575.983 42.5334 573.754 44.8203 571.005 44.8203Z" fill="#517D2E" fill-opacity="0.6"/>
<path d="M554.074 65C553.081 65 552.337 64.8267 551.844 64.48C551.351 64.1333 551.104 63.5967 551.104 62.87C551.104 62.71 551.114 62.5367 551.134 62.35C551.161 62.1633 551.191 61.9833 551.224 61.81C551.257 61.63 551.287 61.4767 551.314 61.35C551.341 61.2167 551.357 61.1267 551.364 61.08L552.124 61.22C552.104 61.3267 552.074 61.4733 552.034 61.66C552.001 61.8467 551.967 62.0467 551.934 62.26C551.901 62.4733 551.884 62.6767 551.884 62.87C551.884 63.2033 551.954 63.4767 552.094 63.69C552.234 63.8967 552.464 64.05 552.784 64.15C553.104 64.2433 553.534 64.29 554.074 64.29H557.014V60H557.794V65H554.074ZM553.384 60.07V59.17H554.164V60.07H553.384ZM554.754 60.07V59.17H555.534V60.07H554.754ZM559.964 65V57.83H560.734V65H559.964ZM562.49 65V64.29H566.22L565.58 64.86V62.68C565.58 62.1867 565.523 61.7967 565.41 61.51C565.297 61.2233 565.11 61.02 564.85 60.9C564.597 60.7733 564.253 60.71 563.82 60.71H563.01V60H563.82C564.353 60 564.81 60.0833 565.19 60.25C565.57 60.4167 565.86 60.6967 566.06 61.09C566.26 61.4767 566.36 62.0067 566.36 62.68V65H562.49ZM568.284 65V57.83H569.054V65H568.284ZM574.679 65V64.29H575.759V65H574.679ZM570.809 65V64.29H574.539L573.899 64.86V62.68C573.899 62.1867 573.843 61.7967 573.729 61.51C573.616 61.2233 573.429 61.02 573.169 60.9C572.916 60.7733 572.573 60.71 572.139 60.71H571.329V60H572.139C572.673 60 573.129 60.0833 573.509 60.25C573.889 60.4167 574.179 60.6967 574.379 61.09C574.579 61.4767 574.679 62.0067 574.679 62.68V65H570.809ZM575.759 65V64.29C575.846 64.29 575.899 64.3233 575.919 64.39C575.946 64.45 575.959 64.5333 575.959 64.64C575.959 64.7467 575.946 64.8333 575.919 64.9C575.899 64.9667 575.846 65 575.759 65ZM578.331 64.97C577.971 64.6633 577.694 64.3133 577.501 63.92C577.314 63.52 577.221 63.0967 577.221 62.65C577.221 62.27 577.288 61.92 577.421 61.6C577.554 61.2733 577.738 60.99 577.971 60.75C578.204 60.51 578.481 60.3267 578.801 60.2C579.121 60.0667 579.464 60 579.831 60C580.024 60 580.231 60.02 580.451 60.06C580.678 60.1 580.894 60.1567 581.101 60.23L580.831 60.9C580.664 60.84 580.494 60.7933 580.321 60.76C580.154 60.7267 579.994 60.71 579.841 60.71C579.488 60.71 579.171 60.7933 578.891 60.96C578.611 61.1267 578.391 61.3567 578.231 61.65C578.078 61.9367 578.001 62.27 578.001 62.65C578.001 63.37 578.281 63.9633 578.841 64.43L578.331 64.97ZM576.161 65V64.29H581.221V65H576.161ZM576.161 65C576.074 65 576.021 64.9667 576.001 64.9C575.974 64.8333 575.961 64.7467 575.961 64.64C575.961 64.5333 575.974 64.45 576.001 64.39C576.021 64.3233 576.074 64.29 576.161 64.29V65ZM582.879 65V64.29H587.769L587.329 64.74V57.83H588.109V65H582.879ZM584.479 64.29V59.25H585.249V64.29H584.479ZM584.399 67.69C584.292 67.5567 584.209 67.4267 584.149 67.3C584.096 67.1733 584.069 67.04 584.069 66.9C584.069 66.7067 584.116 66.5333 584.209 66.38C584.309 66.2267 584.439 66.1067 584.599 66.02C584.759 65.9333 584.932 65.89 585.119 65.89C585.226 65.89 585.332 65.9033 585.439 65.93C585.546 65.9633 585.639 66.0067 585.719 66.06L585.459 66.51C585.406 66.4767 585.352 66.4533 585.299 66.44C585.252 66.4333 585.202 66.43 585.149 66.43C584.996 66.43 584.872 66.4733 584.779 66.56C584.692 66.6467 584.649 66.76 584.649 66.9C584.649 66.9867 584.666 67.07 584.699 67.15C584.739 67.23 584.796 67.3167 584.869 67.41L584.399 67.69ZM583.879 67.69V67.16H585.849V67.69H583.879ZM590.274 65V57.83H591.044V65H590.274Z" fill="#517D2E" fill-opacity="0.6"/>
<g>
<path d="M508 96H883V152H508V96Z" fill="white"/>
</g>
<path d="M834.421 115.787L821.699 103.285C821.607 103.194 821.498 103.123 821.378 103.074C821.259 103.025 821.13 103 821.001 103C820.871 103 820.743 103.025 820.623 103.074C820.503 103.123 820.394 103.194 820.303 103.285L807.581 115.787C807.21 116.151 807 116.647 807 117.163C807 118.235 807.886 119.107 808.977 119.107H810.317V128.028C810.317 128.566 810.759 129 811.305 129H819.024V122.196H822.483V129H830.696C831.242 129 831.684 128.566 831.684 128.028V119.107H833.024C833.55 119.107 834.053 118.903 834.424 118.536C835.193 117.777 835.193 116.546 834.421 115.787Z" fill="#517D2E" fill-opacity="0.6"/>
<path d="M806.463 141C805.883 141 805.429 140.913 805.103 140.74C804.783 140.56 804.556 140.287 804.423 139.92C804.296 139.547 804.233 139.073 804.233 138.5C804.233 137.927 804.296 137.457 804.423 137.09C804.556 136.717 804.783 136.443 805.103 136.27C805.429 136.09 805.883 136 806.463 136H808.533V140.6H807.753V136.37L808.153 136.71H806.463C806.076 136.71 805.776 136.757 805.563 136.85C805.356 136.943 805.213 137.12 805.133 137.38C805.053 137.633 805.013 138.007 805.013 138.5C805.013 138.993 805.053 139.37 805.133 139.63C805.213 139.883 805.356 140.057 805.563 140.15C805.776 140.243 806.076 140.29 806.463 140.29H809.613V141H806.463ZM809.613 141V140.29C809.699 140.29 809.753 140.323 809.773 140.39C809.799 140.45 809.813 140.533 809.813 140.64C809.813 140.747 809.799 140.833 809.773 140.9C809.753 140.967 809.699 141 809.613 141ZM805.493 135.1V134.2H806.273V135.1H805.493ZM806.863 135.1V134.2H807.643V135.1H806.863ZM811.874 141V140.29H812.954V141H811.874ZM812.954 141V140.29C813.041 140.29 813.094 140.323 813.114 140.39C813.141 140.45 813.154 140.533 813.154 140.64C813.154 140.747 813.141 140.833 813.114 140.9C813.094 140.967 813.041 141 812.954 141ZM810.014 141V140.29H811.454L811.094 140.58V136H811.874V141H810.014ZM810.014 141C809.927 141 809.874 140.967 809.854 140.9C809.827 140.833 809.814 140.747 809.814 140.64C809.814 140.533 809.827 140.45 809.854 140.39C809.874 140.323 809.927 140.29 810.014 140.29V141ZM810.414 142.8V141.9H811.194V142.8H810.414ZM811.784 142.8V141.9H812.564V142.8H811.784ZM820.874 141V140.29H821.954V141H820.874ZM818.614 141C818.387 141 818.164 140.957 817.944 140.87C817.73 140.783 817.524 140.647 817.324 140.46L817.834 139.93C817.987 140.057 818.124 140.15 818.244 140.21C818.364 140.263 818.487 140.29 818.614 140.29H820.394L820.094 140.61V138.22C820.094 138.1 820.08 137.93 820.054 137.71C820.034 137.49 820 137.243 819.954 136.97C819.914 136.69 819.864 136.41 819.804 136.13L820.564 136C820.61 136.233 820.657 136.493 820.704 136.78C820.75 137.067 820.79 137.34 820.824 137.6C820.857 137.853 820.874 138.06 820.874 138.22V141H818.614ZM813.354 141V140.29H814.814L814.614 140.49V137H815.384V141H813.354ZM815.384 141V140.29H816.514C816.74 140.29 816.91 140.257 817.024 140.19C817.144 140.123 817.227 139.99 817.274 139.79C817.32 139.59 817.344 139.297 817.344 138.91V136.5H818.124V138.91C818.124 139.43 818.067 139.843 817.954 140.15C817.847 140.457 817.677 140.677 817.444 140.81C817.21 140.937 816.9 141 816.514 141H815.384ZM813.354 141C813.267 141 813.214 140.967 813.194 140.9C813.167 140.833 813.154 140.747 813.154 140.64C813.154 140.533 813.167 140.45 813.194 140.39C813.214 140.323 813.267 140.29 813.354 140.29V141ZM821.954 141V140.29C822.04 140.29 822.094 140.323 822.114 140.39C822.14 140.45 822.154 140.533 822.154 140.64C822.154 140.747 822.14 140.833 822.114 140.9C822.094 140.967 822.04 141 821.954 141ZM824.217 141V140.29H825.297V141H824.217ZM825.297 141V140.29C825.384 140.29 825.437 140.323 825.457 140.39C825.484 140.45 825.497 140.533 825.497 140.64C825.497 140.747 825.484 140.833 825.457 140.9C825.437 140.967 825.384 141 825.297 141ZM822.357 141V140.29H823.797L823.437 140.58V136H824.217V141H822.357ZM822.357 141C822.27 141 822.217 140.967 822.197 140.9C822.17 140.833 822.157 140.747 822.157 140.64C822.157 140.533 822.17 140.45 822.197 140.39C822.217 140.323 822.27 140.29 822.357 140.29V141ZM822.757 142.8V141.9H823.537V142.8H822.757ZM824.127 142.8V141.9H824.907V142.8H824.127ZM825.696 141V140.29H827.136L826.776 140.58V136H827.556V141H825.696ZM825.696 141C825.61 141 825.556 140.967 825.536 140.9C825.51 140.833 825.496 140.747 825.496 140.64C825.496 140.533 825.51 140.45 825.536 140.39C825.556 140.323 825.61 140.29 825.696 140.29V141ZM826.696 135.1C826.59 134.967 826.506 134.837 826.446 134.71C826.393 134.583 826.366 134.45 826.366 134.31C826.366 134.117 826.413 133.943 826.506 133.79C826.606 133.637 826.736 133.517 826.896 133.43C827.056 133.343 827.23 133.3 827.416 133.3C827.523 133.3 827.63 133.317 827.736 133.35C827.843 133.377 827.936 133.417 828.016 133.47L827.756 133.92C827.703 133.887 827.65 133.867 827.596 133.86C827.55 133.847 827.5 133.84 827.446 133.84C827.293 133.84 827.17 133.883 827.076 133.97C826.99 134.057 826.946 134.17 826.946 134.31C826.946 134.397 826.963 134.48 826.996 134.56C827.036 134.64 827.093 134.727 827.166 134.82L826.696 135.1ZM826.176 135.1V134.57H828.146V135.1H826.176ZM830.483 141V140.29H831.763V141H830.483ZM828.853 143.21C828.766 143.21 828.676 143.203 828.583 143.19C828.483 143.183 828.386 143.177 828.293 143.17L828.383 142.46C828.476 142.467 828.563 142.473 828.643 142.48C828.723 142.493 828.793 142.5 828.853 142.5C829.166 142.5 829.419 142.38 829.613 142.14C829.806 141.907 829.903 141.58 829.903 141.16V136H830.683V141.16C830.683 141.567 830.603 141.923 830.443 142.23C830.289 142.543 830.076 142.783 829.803 142.95C829.529 143.123 829.213 143.21 828.853 143.21ZM831.763 141V140.29C831.849 140.29 831.903 140.323 831.923 140.39C831.949 140.45 831.963 140.533 831.963 140.64C831.963 140.747 831.949 140.833 831.923 140.9C831.903 140.967 831.849 141 831.763 141ZM833.371 141V133.83H834.151V141H833.371ZM832.161 141V140.29H833.371V141H832.161ZM832.161 141C832.074 141 832.021 140.967 832.001 140.9C831.974 140.833 831.961 140.747 831.961 140.64C831.961 140.533 831.974 140.45 832.001 140.39C832.021 140.323 832.074 140.29 832.161 140.29V141ZM836.274 141V133.83H837.044V141H836.274Z" fill="#517D2E" fill-opacity="0.6"/>
<path d="M703.368 112.562L697.594 103.576C697.471 103.394 697.307 103.247 697.116 103.147C696.925 103.046 696.714 102.996 696.5 103C696.078 103 695.656 103.192 695.406 103.589L689.632 112.562H683.318C682.593 112.562 682 113.178 682 113.932C682 114.055 682.013 114.178 682.053 114.302L685.401 127C685.704 128.151 686.719 129 687.932 129H705.068C706.281 129 707.296 128.151 707.612 127L710.96 114.302L711 113.932C711 113.178 710.407 112.562 709.682 112.562H703.368ZM692.545 112.562L696.5 106.534L700.455 112.562H692.545ZM696.5 123.521C695.05 123.521 693.864 122.288 693.864 120.781C693.864 119.274 695.05 118.041 696.5 118.041C697.95 118.041 699.136 119.274 699.136 120.781C699.136 122.288 697.95 123.521 696.5 123.521Z" fill="#517D2E"/>
<path d="M689.685 140.408H687.795C687.365 140.408 687.125 140.348 686.855 140.168L686.435 140.738C686.885 141.038 687.355 141.098 687.795 141.098H688.395V141.218C688.395 142.308 687.855 142.888 686.825 142.888H683.995C682.815 142.888 682.005 142.248 682.005 141.348C682.005 141.038 682.095 140.238 682.245 139.328L681.505 139.228C681.365 140.098 681.255 140.968 681.255 141.358C681.255 142.658 682.455 143.578 683.995 143.578H686.825C688.325 143.578 689.145 142.618 689.145 141.228V141.098H689.685C689.855 141.098 689.885 140.968 689.885 140.758C689.885 140.548 689.855 140.408 689.685 140.408ZM684.155 144.978H684.905V144.098H684.155V144.978ZM685.495 144.978H686.245V144.098H685.495V144.978ZM691.244 134.488H690.494V135.368H691.244V134.488ZM691.834 134.488V135.368H692.584V134.488H691.834ZM691.164 140.408H690.084C689.914 140.408 689.884 140.548 689.884 140.758C689.884 140.968 689.914 141.098 690.084 141.098H691.914V136.098H691.164V140.408ZM696.04 140.408H694.84V133.918H694.09V141.098H696.04C696.21 141.098 696.24 140.968 696.24 140.758C696.24 140.548 696.21 140.408 696.04 140.408ZM699.34 140.408H698.27V136.098H697.52V140.408H696.44C696.27 140.408 696.24 140.548 696.24 140.758C696.24 140.968 696.27 141.098 696.44 141.098H699.34C699.52 141.098 699.54 140.968 699.54 140.758C699.54 140.548 699.52 140.408 699.34 140.408ZM697.51 142.578H698.26V141.698H697.51V142.578ZM702.761 140.408H701.691V133.918H700.941V140.408H699.741C699.571 140.408 699.541 140.548 699.541 140.758C699.541 140.968 699.571 141.098 699.741 141.098H702.761C702.941 141.098 702.961 140.968 702.961 140.758C702.961 140.548 702.941 140.408 702.761 140.408ZM707.908 136.098C706.498 136.098 705.708 136.908 704.988 137.788V133.918H704.238V140.408H703.158C702.988 140.408 702.958 140.548 702.958 140.758C702.958 140.968 702.988 141.098 703.158 141.098H710.238V138.688C710.238 137.568 709.808 136.098 707.908 136.098ZM704.988 138.778C705.638 137.958 706.538 136.788 707.898 136.788C708.968 136.788 709.488 137.418 709.488 138.688V140.408H704.988V138.778Z" fill="#517D2E"/>
<path d="M571.005 112.46C570.158 112.46 569.365 112.797 568.764 113.413C568.167 114.029 567.836 114.843 567.836 115.712C567.836 116.581 568.167 117.394 568.764 118.01C569.365 118.623 570.158 118.963 571.005 118.963C571.851 118.963 572.644 118.623 573.245 118.01C573.842 117.394 574.174 116.581 574.174 115.712C574.174 114.843 573.842 114.029 573.245 113.413C572.951 113.11 572.602 112.87 572.218 112.706C571.833 112.542 571.421 112.459 571.005 112.46ZM582.681 119.303L580.829 117.679C580.917 117.127 580.962 116.563 580.962 116.002C580.962 115.442 580.917 114.875 580.829 114.326L582.681 112.701C582.821 112.578 582.921 112.415 582.968 112.232C583.015 112.049 583.007 111.856 582.944 111.678L582.919 111.603C582.409 110.14 581.645 108.785 580.665 107.601L580.614 107.54C580.494 107.397 580.336 107.293 580.158 107.244C579.981 107.195 579.793 107.202 579.62 107.264L577.32 108.104C576.47 107.389 575.524 106.826 574.499 106.433L574.055 103.966C574.021 103.78 573.933 103.609 573.803 103.476C573.672 103.343 573.505 103.253 573.324 103.219L573.248 103.205C571.775 102.932 570.223 102.932 568.75 103.205L568.674 103.219C568.493 103.253 568.326 103.343 568.195 103.476C568.065 103.609 567.977 103.78 567.943 103.966L567.496 106.445C566.48 106.84 565.534 107.403 564.695 108.11L562.378 107.264C562.205 107.201 562.017 107.194 561.839 107.243C561.662 107.293 561.503 107.396 561.384 107.54L561.333 107.601C560.354 108.786 559.591 110.141 559.079 111.603L559.054 111.678C558.926 112.042 559.031 112.448 559.317 112.701L561.192 114.343C561.104 114.889 561.061 115.447 561.061 115.999C561.061 116.557 561.104 117.115 561.192 117.656L559.323 119.298C559.183 119.421 559.083 119.584 559.035 119.767C558.988 119.95 558.997 120.143 559.059 120.32L559.085 120.396C559.597 121.858 560.353 123.209 561.339 124.397L561.39 124.458C561.509 124.602 561.668 124.705 561.845 124.755C562.023 124.804 562.211 124.797 562.384 124.735L564.701 123.889C565.545 124.601 566.485 125.165 567.501 125.554L567.949 128.033C567.982 128.219 568.07 128.39 568.201 128.523C568.331 128.656 568.498 128.746 568.68 128.78L568.756 128.794C570.243 129.069 571.766 129.069 573.253 128.794L573.33 128.78C573.511 128.746 573.678 128.656 573.808 128.523C573.939 128.39 574.027 128.219 574.06 128.033L574.505 125.566C575.53 125.17 576.476 124.61 577.326 123.895L579.625 124.735C579.799 124.797 579.987 124.805 580.164 124.755C580.342 124.706 580.5 124.603 580.619 124.458L580.67 124.397C581.656 123.203 582.412 121.858 582.925 120.396L582.95 120.32C583.072 119.96 582.967 119.556 582.681 119.303ZM571.005 120.82C568.255 120.82 566.026 118.533 566.026 115.712C566.026 112.89 568.255 110.603 571.005 110.603C573.754 110.603 575.983 112.89 575.983 115.712C575.983 118.533 573.754 120.82 571.005 120.82Z" fill="#517D2E" fill-opacity="0.6"/>
<path d="M554.074 141C553.081 141 552.337 140.827 551.844 140.48C551.351 140.133 551.104 139.597 551.104 138.87C551.104 138.71 551.114 138.537 551.134 138.35C551.161 138.163 551.191 137.983 551.224 137.81C551.257 137.63 551.287 137.477 551.314 137.35C551.341 137.217 551.357 137.127 551.364 137.08L552.124 137.22C552.104 137.327 552.074 137.473 552.034 137.66C552.001 137.847 551.967 138.047 551.934 138.26C551.901 138.473 551.884 138.677 551.884 138.87C551.884 139.203 551.954 139.477 552.094 139.69C552.234 139.897 552.464 140.05 552.784 140.15C553.104 140.243 553.534 140.29 554.074 140.29H557.014V136H557.794V141H554.074ZM553.384 136.07V135.17H554.164V136.07H553.384ZM554.754 136.07V135.17H555.534V136.07H554.754ZM559.964 141V133.83H560.734V141H559.964ZM562.49 141V140.29H566.22L565.58 140.86V138.68C565.58 138.187 565.523 137.797 565.41 137.51C565.297 137.223 565.11 137.02 564.85 136.9C564.597 136.773 564.253 136.71 563.82 136.71H563.01V136H563.82C564.353 136 564.81 136.083 565.19 136.25C565.57 136.417 565.86 136.697 566.06 137.09C566.26 137.477 566.36 138.007 566.36 138.68V141H562.49ZM568.284 141V133.83H569.054V141H568.284ZM574.679 141V140.29H575.759V141H574.679ZM570.809 141V140.29H574.539L573.899 140.86V138.68C573.899 138.187 573.843 137.797 573.729 137.51C573.616 137.223 573.429 137.02 573.169 136.9C572.916 136.773 572.573 136.71 572.139 136.71H571.329V136H572.139C572.673 136 573.129 136.083 573.509 136.25C573.889 136.417 574.179 136.697 574.379 137.09C574.579 137.477 574.679 138.007 574.679 138.68V141H570.809ZM575.759 141V140.29C575.846 140.29 575.899 140.323 575.919 140.39C575.946 140.45 575.959 140.533 575.959 140.64C575.959 140.747 575.946 140.833 575.919 140.9C575.899 140.967 575.846 141 575.759 141ZM578.331 140.97C577.971 140.663 577.694 140.313 577.501 139.92C577.314 139.52 577.221 139.097 577.221 138.65C577.221 138.27 577.288 137.92 577.421 137.6C577.554 137.273 577.738 136.99 577.971 136.75C578.204 136.51 578.481 136.327 578.801 136.2C579.121 136.067 579.464 136 579.831 136C580.024 136 580.231 136.02 580.451 136.06C580.678 136.1 580.894 136.157 581.101 136.23L580.831 136.9C580.664 136.84 580.494 136.793 580.321 136.76C580.154 136.727 579.994 136.71 579.841 136.71C579.488 136.71 579.171 136.793 578.891 136.96C578.611 137.127 578.391 137.357 578.231 137.65C578.078 137.937 578.001 138.27 578.001 138.65C578.001 139.37 578.281 139.963 578.841 140.43L578.331 140.97ZM576.161 141V140.29H581.221V141H576.161ZM576.161 141C576.074 141 576.021 140.967 576.001 140.9C575.974 140.833 575.961 140.747 575.961 140.64C575.961 140.533 575.974 140.45 576.001 140.39C576.021 140.323 576.074 140.29 576.161 140.29V141ZM582.879 141V140.29H587.769L587.329 140.74V133.83H588.109V141H582.879ZM584.479 140.29V135.25H585.249V140.29H584.479ZM584.399 143.69C584.292 143.557 584.209 143.427 584.149 143.3C584.096 143.173 584.069 143.04 584.069 142.9C584.069 142.707 584.116 142.533 584.209 142.38C584.309 142.227 584.439 142.107 584.599 142.02C584.759 141.933 584.932 141.89 585.119 141.89C585.226 141.89 585.332 141.903 585.439 141.93C585.546 141.963 585.639 142.007 585.719 142.06L585.459 142.51C585.406 142.477 585.352 142.453 585.299 142.44C585.252 142.433 585.202 142.43 585.149 142.43C584.996 142.43 584.872 142.473 584.779 142.56C584.692 142.647 584.649 142.76 584.649 142.9C584.649 142.987 584.666 143.07 584.699 143.15C584.739 143.23 584.796 143.317 584.869 143.41L584.399 143.69ZM583.879 143.69V143.16H585.849V143.69H583.879ZM590.274 141V133.83H591.044V141H590.274Z" fill="#517D2E" fill-opacity="0.6"/>
<g>
<path d="M508 172H883V228H508V172Z" fill="white"/>
</g>
<path d="M834.421 191.787L821.699 179.285C821.607 179.194 821.498 179.123 821.378 179.074C821.259 179.025 821.13 179 821.001 179C820.871 179 820.743 179.025 820.623 179.074C820.503 179.123 820.394 179.194 820.303 179.285L807.581 191.787C807.21 192.151 807 192.647 807 193.163C807 194.235 807.886 195.107 808.977 195.107H810.317V204.028C810.317 204.566 810.759 205 811.305 205H819.024V198.196H822.483V205H830.696C831.242 205 831.684 204.566 831.684 204.028V195.107H833.024C833.55 195.107 834.053 194.903 834.424 194.536C835.193 193.777 835.193 192.546 834.421 191.787Z" fill="#517D2E" fill-opacity="0.6"/>
<path d="M806.463 217C805.883 217 805.429 216.913 805.103 216.74C804.783 216.56 804.556 216.287 804.423 215.92C804.296 215.547 804.233 215.073 804.233 214.5C804.233 213.927 804.296 213.457 804.423 213.09C804.556 212.717 804.783 212.443 805.103 212.27C805.429 212.09 805.883 212 806.463 212H808.533V216.6H807.753V212.37L808.153 212.71H806.463C806.076 212.71 805.776 212.757 805.563 212.85C805.356 212.943 805.213 213.12 805.133 213.38C805.053 213.633 805.013 214.007 805.013 214.5C805.013 214.993 805.053 215.37 805.133 215.63C805.213 215.883 805.356 216.057 805.563 216.15C805.776 216.243 806.076 216.29 806.463 216.29H809.613V217H806.463ZM809.613 217V216.29C809.699 216.29 809.753 216.323 809.773 216.39C809.799 216.45 809.813 216.533 809.813 216.64C809.813 216.747 809.799 216.833 809.773 216.9C809.753 216.967 809.699 217 809.613 217ZM805.493 211.1V210.2H806.273V211.1H805.493ZM806.863 211.1V210.2H807.643V211.1H806.863ZM811.874 217V216.29H812.954V217H811.874ZM812.954 217V216.29C813.041 216.29 813.094 216.323 813.114 216.39C813.141 216.45 813.154 216.533 813.154 216.64C813.154 216.747 813.141 216.833 813.114 216.9C813.094 216.967 813.041 217 812.954 217ZM810.014 217V216.29H811.454L811.094 216.58V212H811.874V217H810.014ZM810.014 217C809.927 217 809.874 216.967 809.854 216.9C809.827 216.833 809.814 216.747 809.814 216.64C809.814 216.533 809.827 216.45 809.854 216.39C809.874 216.323 809.927 216.29 810.014 216.29V217ZM810.414 218.8V217.9H811.194V218.8H810.414ZM811.784 218.8V217.9H812.564V218.8H811.784ZM820.874 217V216.29H821.954V217H820.874ZM818.614 217C818.387 217 818.164 216.957 817.944 216.87C817.73 216.783 817.524 216.647 817.324 216.46L817.834 215.93C817.987 216.057 818.124 216.15 818.244 216.21C818.364 216.263 818.487 216.29 818.614 216.29H820.394L820.094 216.61V214.22C820.094 214.1 820.08 213.93 820.054 213.71C820.034 213.49 820 213.243 819.954 212.97C819.914 212.69 819.864 212.41 819.804 212.13L820.564 212C820.61 212.233 820.657 212.493 820.704 212.78C820.75 213.067 820.79 213.34 820.824 213.6C820.857 213.853 820.874 214.06 820.874 214.22V217H818.614ZM813.354 217V216.29H814.814L814.614 216.49V213H815.384V217H813.354ZM815.384 217V216.29H816.514C816.74 216.29 816.91 216.257 817.024 216.19C817.144 216.123 817.227 215.99 817.274 215.79C817.32 215.59 817.344 215.297 817.344 214.91V212.5H818.124V214.91C818.124 215.43 818.067 215.843 817.954 216.15C817.847 216.457 817.677 216.677 817.444 216.81C817.21 216.937 816.9 217 816.514 217H815.384ZM813.354 217C813.267 217 813.214 216.967 813.194 216.9C813.167 216.833 813.154 216.747 813.154 216.64C813.154 216.533 813.167 216.45 813.194 216.39C813.214 216.323 813.267 216.29 813.354 216.29V217ZM821.954 217V216.29C822.04 216.29 822.094 216.323 822.114 216.39C822.14 216.45 822.154 216.533 822.154 216.64C822.154 216.747 822.14 216.833 822.114 216.9C822.094 216.967 822.04 217 821.954 217ZM824.217 217V216.29H825.297V217H824.217ZM825.297 217V216.29C825.384 216.29 825.437 216.323 825.457 216.39C825.484 216.45 825.497 216.533 825.497 216.64C825.497 216.747 825.484 216.833 825.457 216.9C825.437 216.967 825.384 217 825.297 217ZM822.357 217V216.29H823.797L823.437 216.58V212H824.217V217H822.357ZM822.357 217C822.27 217 822.217 216.967 822.197 216.9C822.17 216.833 822.157 216.747 822.157 216.64C822.157 216.533 822.17 216.45 822.197 216.39C822.217 216.323 822.27 216.29 822.357 216.29V217ZM822.757 218.8V217.9H823.537V218.8H822.757ZM824.127 218.8V217.9H824.907V218.8H824.127ZM825.696 217V216.29H827.136L826.776 216.58V212H827.556V217H825.696ZM825.696 217C825.61 217 825.556 216.967 825.536 216.9C825.51 216.833 825.496 216.747 825.496 216.64C825.496 216.533 825.51 216.45 825.536 216.39C825.556 216.323 825.61 216.29 825.696 216.29V217ZM826.696 211.1C826.59 210.967 826.506 210.837 826.446 210.71C826.393 210.583 826.366 210.45 826.366 210.31C826.366 210.117 826.413 209.943 826.506 209.79C826.606 209.637 826.736 209.517 826.896 209.43C827.056 209.343 827.23 209.3 827.416 209.3C827.523 209.3 827.63 209.317 827.736 209.35C827.843 209.377 827.936 209.417 828.016 209.47L827.756 209.92C827.703 209.887 827.65 209.867 827.596 209.86C827.55 209.847 827.5 209.84 827.446 209.84C827.293 209.84 827.17 209.883 827.076 209.97C826.99 210.057 826.946 210.17 826.946 210.31C826.946 210.397 826.963 210.48 826.996 210.56C827.036 210.64 827.093 210.727 827.166 210.82L826.696 211.1ZM826.176 211.1V210.57H828.146V211.1H826.176ZM830.483 217V216.29H831.763V217H830.483ZM828.853 219.21C828.766 219.21 828.676 219.203 828.583 219.19C828.483 219.183 828.386 219.177 828.293 219.17L828.383 218.46C828.476 218.467 828.563 218.473 828.643 218.48C828.723 218.493 828.793 218.5 828.853 218.5C829.166 218.5 829.419 218.38 829.613 218.14C829.806 217.907 829.903 217.58 829.903 217.16V212H830.683V217.16C830.683 217.567 830.603 217.923 830.443 218.23C830.289 218.543 830.076 218.783 829.803 218.95C829.529 219.123 829.213 219.21 828.853 219.21ZM831.763 217V216.29C831.849 216.29 831.903 216.323 831.923 216.39C831.949 216.45 831.963 216.533 831.963 216.64C831.963 216.747 831.949 216.833 831.923 216.9C831.903 216.967 831.849 217 831.763 217ZM833.371 217V209.83H834.151V217H833.371ZM832.161 217V216.29H833.371V217H832.161ZM832.161 217C832.074 217 832.021 216.967 832.001 216.9C831.974 216.833 831.961 216.747 831.961 216.64C831.961 216.533 831.974 216.45 832.001 216.39C832.021 216.323 832.074 216.29 832.161 216.29V217ZM836.274 217V209.83H837.044V217H836.274Z" fill="#517D2E" fill-opacity="0.6"/>
<path d="M703.368 188.562L697.594 179.576C697.471 179.394 697.307 179.247 697.116 179.147C696.925 179.046 696.714 178.996 696.5 179C696.078 179 695.656 179.192 695.406 179.589L689.632 188.562H683.318C682.593 188.562 682 189.178 682 189.932C682 190.055 682.013 190.178 682.053 190.302L685.401 203C685.704 204.151 686.719 205 687.932 205H705.068C706.281 205 707.296 204.151 707.612 203L710.96 190.302L711 189.932C711 189.178 710.407 188.562 709.682 188.562H703.368ZM692.545 188.562L696.5 182.534L700.455 188.562H692.545ZM696.5 199.521C695.05 199.521 693.864 198.288 693.864 196.781C693.864 195.274 695.05 194.041 696.5 194.041C697.95 194.041 699.136 195.274 699.136 196.781C699.136 198.288 697.95 199.521 696.5 199.521Z" fill="#517D2E" fill-opacity="0.6"/>
<path d="M684.259 219.578C683.873 219.578 683.513 219.521 683.179 219.408C682.846 219.301 682.553 219.148 682.299 218.948C682.053 218.755 681.859 218.521 681.719 218.248C681.579 217.975 681.509 217.675 681.509 217.348C681.509 217.215 681.519 217.038 681.539 216.818C681.566 216.598 681.596 216.351 681.629 216.078C681.669 215.798 681.713 215.515 681.759 215.228L682.529 215.338C682.456 215.785 682.396 216.191 682.349 216.558C682.309 216.925 682.289 217.185 682.289 217.338C682.289 217.638 682.373 217.901 682.539 218.128C682.706 218.361 682.936 218.541 683.229 218.668C683.529 218.801 683.873 218.868 684.259 218.868H687.089C687.596 218.868 687.979 218.728 688.239 218.448C688.506 218.168 688.639 217.758 688.639 217.218V216.888H689.409V217.228C689.409 217.688 689.319 218.095 689.139 218.448C688.959 218.801 688.696 219.078 688.349 219.278C688.009 219.478 687.589 219.578 687.089 219.578H684.259ZM688.059 217.098C687.833 217.098 687.603 217.075 687.369 217.028C687.143 216.981 686.916 216.885 686.689 216.738L687.129 216.148C687.223 216.208 687.313 216.258 687.399 216.298C687.486 216.331 687.583 216.355 687.689 216.368C687.796 216.381 687.919 216.388 688.059 216.388H689.949V217.098H688.059ZM689.949 217.098V216.388C690.036 216.388 690.089 216.421 690.109 216.488C690.136 216.548 690.149 216.631 690.149 216.738C690.149 216.845 690.136 216.931 690.109 216.998C690.089 217.065 690.036 217.098 689.949 217.098ZM684.389 221.398V220.498H685.169V221.398H684.389ZM685.759 221.398V220.498H686.539V221.398H685.759ZM690.347 217.098V216.388H691.787L691.427 216.678V212.098H692.207V217.098H690.347ZM690.347 217.098C690.261 217.098 690.207 217.065 690.187 216.998C690.161 216.931 690.147 216.845 690.147 216.738C690.147 216.631 690.161 216.548 690.187 216.488C690.207 216.421 690.261 216.388 690.347 216.388V217.098ZM690.747 211.198V210.298H691.527V211.198H690.747ZM692.117 211.198V210.298H692.897V211.198H692.117ZM695.143 217.098V216.388H696.363V217.098H695.143ZM694.373 217.098V209.928H695.143V217.098H694.373ZM696.363 217.098V216.388C696.45 216.388 696.503 216.421 696.523 216.488C696.55 216.548 696.563 216.631 696.563 216.738C696.563 216.845 696.55 216.931 696.523 216.998C696.503 217.065 696.45 217.098 696.363 217.098ZM698.622 217.098V216.388H699.702V217.098H698.622ZM696.762 217.098V216.388H698.202L697.842 216.678V212.098H698.622V217.098H696.762ZM696.762 217.098C696.676 217.098 696.622 217.065 696.602 216.998C696.576 216.931 696.562 216.845 696.562 216.738C696.562 216.631 696.576 216.548 696.602 216.488C696.622 216.421 696.676 216.388 696.762 216.388V217.098ZM699.702 217.098V216.388C699.789 216.388 699.842 216.421 699.862 216.488C699.889 216.548 699.902 216.631 699.902 216.738C699.902 216.845 699.889 216.931 699.862 216.998C699.842 217.065 699.789 217.098 699.702 217.098ZM697.842 218.898V217.998H698.622V218.898H697.842ZM702.092 217.098V216.388H703.172V217.098H702.092ZM701.312 217.098V209.928H702.092V217.098H701.312ZM700.102 217.098V216.388H701.312V217.098H700.102ZM700.102 217.098C700.015 217.098 699.962 217.065 699.942 216.998C699.915 216.931 699.902 216.845 699.902 216.738C699.902 216.631 699.915 216.548 699.942 216.488C699.962 216.421 700.015 216.388 700.102 216.388V217.098ZM703.172 217.098V216.388C703.259 216.388 703.312 216.421 703.332 216.488C703.359 216.548 703.372 216.631 703.372 216.738C703.372 216.845 703.359 216.931 703.332 216.998C703.312 217.065 703.259 217.098 703.172 217.098ZM703.568 217.098V216.388H710.198L709.478 217.038V214.688C709.478 214.268 709.418 213.921 709.298 213.648C709.185 213.368 709.012 213.158 708.778 213.018C708.552 212.878 708.265 212.808 707.918 212.808C707.625 212.808 707.352 212.858 707.098 212.958C706.852 213.051 706.622 213.178 706.408 213.338C706.195 213.491 705.995 213.665 705.808 213.858C705.628 214.045 705.462 214.235 705.308 214.428C705.155 214.621 705.015 214.798 704.888 214.958L704.628 214.248C704.835 213.988 705.045 213.731 705.258 213.478C705.472 213.225 705.705 212.995 705.958 212.788C706.212 212.581 706.498 212.415 706.818 212.288C707.138 212.161 707.505 212.098 707.918 212.098C708.392 212.098 708.778 212.178 709.078 212.338C709.385 212.498 709.622 212.711 709.788 212.978C709.962 213.238 710.082 213.518 710.148 213.818C710.215 214.118 710.248 214.408 710.248 214.688V217.098H703.568ZM704.228 216.388V209.928H705.008V216.388H704.228ZM703.568 217.098C703.482 217.098 703.428 217.065 703.408 216.998C703.382 216.931 703.368 216.845 703.368 216.738C703.368 216.631 703.382 216.548 703.408 216.488C703.428 216.421 703.482 216.388 703.568 216.388V217.098Z" fill="#517D2E" fill-opacity="0.6"/>
<path d="M571.005 188.46C570.158 188.46 569.365 188.797 568.764 189.413C568.167 190.029 567.836 190.843 567.836 191.712C567.836 192.581 568.167 193.394 568.764 194.01C569.365 194.623 570.158 194.963 571.005 194.963C571.851 194.963 572.644 194.623 573.245 194.01C573.842 193.394 574.174 192.581 574.174 191.712C574.174 190.843 573.842 190.029 573.245 189.413C572.951 189.11 572.602 188.87 572.218 188.706C571.833 188.542 571.421 188.459 571.005 188.46ZM582.681 195.303L580.829 193.679C580.917 193.127 580.962 192.563 580.962 192.002C580.962 191.442 580.917 190.875 580.829 190.326L582.681 188.701C582.821 188.578 582.921 188.415 582.968 188.232C583.015 188.049 583.007 187.856 582.944 187.678L582.919 187.603C582.409 186.14 581.645 184.785 580.665 183.601L580.614 183.54C580.494 183.397 580.336 183.293 580.158 183.244C579.981 183.195 579.793 183.202 579.62 183.264L577.32 184.104C576.47 183.389 575.524 182.826 574.499 182.433L574.055 179.966C574.021 179.78 573.933 179.609 573.803 179.476C573.672 179.343 573.505 179.253 573.324 179.219L573.248 179.205C571.775 178.932 570.223 178.932 568.75 179.205L568.674 179.219C568.493 179.253 568.326 179.343 568.195 179.476C568.065 179.609 567.977 179.78 567.943 179.966L567.496 182.445C566.48 182.84 565.534 183.403 564.695 184.11L562.378 183.264C562.205 183.201 562.017 183.194 561.839 183.243C561.662 183.293 561.503 183.396 561.384 183.54L561.333 183.601C560.354 184.786 559.591 186.141 559.079 187.603L559.054 187.678C558.926 188.042 559.031 188.448 559.317 188.701L561.192 190.343C561.104 190.889 561.061 191.447 561.061 191.999C561.061 192.557 561.104 193.115 561.192 193.656L559.323 195.298C559.183 195.421 559.083 195.584 559.035 195.767C558.988 195.95 558.997 196.143 559.059 196.32L559.085 196.396C559.597 197.858 560.353 199.209 561.339 200.397L561.39 200.458C561.509 200.602 561.668 200.705 561.845 200.755C562.023 200.804 562.211 200.797 562.384 200.735L564.701 199.889C565.545 200.601 566.485 201.165 567.501 201.554L567.949 204.033C567.982 204.219 568.07 204.39 568.201 204.523C568.331 204.656 568.498 204.746 568.68 204.78L568.756 204.794C570.243 205.069 571.766 205.069 573.253 204.794L573.33 204.78C573.511 204.746 573.678 204.656 573.808 204.523C573.939 204.39 574.027 204.219 574.06 204.033L574.505 201.566C575.53 201.17 576.476 200.61 577.326 199.895L579.625 200.735C579.799 200.797 579.987 200.805 580.164 200.755C580.342 200.706 580.5 200.603 580.619 200.458L580.67 200.397C581.656 199.203 582.412 197.858 582.925 196.396L582.95 196.32C583.072 195.96 582.967 195.556 582.681 195.303ZM571.005 196.82C568.255 196.82 566.026 194.533 566.026 191.712C566.026 188.89 568.255 186.603 571.005 186.603C573.754 186.603 575.983 188.89 575.983 191.712C575.983 194.533 573.754 196.82 571.005 196.82Z" fill="#517D2E"/>
<path d="M554.242 211.2H553.492V212.08H554.242V211.2ZM555.582 211.2H554.832V212.08H555.582V211.2ZM557.112 212V216.31H554.172C552.532 216.31 551.952 215.89 551.952 214.87C551.952 214.32 552.112 213.63 552.192 213.22L551.462 213.08C551.382 213.49 551.202 214.25 551.202 214.87C551.202 216.33 552.182 217 554.172 217H557.862V212H557.112ZM560.042 217H560.792V209.82H560.042V217ZM563.878 212H563.068V212.69H563.878C565.188 212.69 565.668 213.19 565.668 214.68V216.31H562.548V217H566.418V214.68C566.418 212.67 565.478 212 563.878 212ZM568.342 217H569.092V209.82H568.342V217ZM575.798 216.31H574.718V214.68C574.718 212.67 573.778 212 572.178 212H571.368V212.69H572.178C573.488 212.69 573.968 213.19 573.968 214.68V216.31H570.848V217H575.798C575.968 217 575.998 216.87 575.998 216.66C575.998 216.45 575.968 216.31 575.798 216.31ZM578.72 216.31C578.26 215.86 578.01 215.29 578.01 214.65C578.01 213.51 578.79 212.69 579.88 212.69C580.2 212.69 580.55 212.76 580.88 212.88L581.14 212.23C580.73 212.08 580.26 212 579.87 212C578.39 212 577.26 213.12 577.26 214.65C577.26 215.26 577.44 215.82 577.77 216.31H576.2C576.03 216.31 576 216.45 576 216.66C576 216.87 576.03 217 576.2 217H581.26V216.31H578.72ZM587.368 209.82V216.31H585.268V211.24H584.518V216.31H582.918V217H588.118V209.82H587.368ZM584.688 218.59C584.688 218.31 584.878 218.12 585.148 218.12C585.248 218.12 585.338 218.14 585.438 218.2L585.738 217.76C585.578 217.66 585.348 217.6 585.148 217.6C584.588 217.6 584.118 218.01 584.118 218.58C584.118 218.67 584.128 218.76 584.148 218.84H583.928V219.37H585.858V218.84H584.748C584.708 218.76 584.688 218.68 584.688 218.59ZM590.294 217H591.044V209.82H590.294V217Z" fill="#517D2E"/>
<defs>




























































</defs>
</svg>