<svg xmlns="http://www.w3.org/2000/svg" width="537" height="272" viewBox="0 0 537 272" fill="none">
<path d="M98.5764 131.712C98.5122 131.801 98.4262 131.873 98.326 131.924C98.2257 131.974 98.1142 132 98.0009 132C97.8877 132 97.7762 131.974 97.6759 131.924C97.5757 131.873 97.4897 131.801 97.4255 131.712L91.125 123.046C91.0521 122.946 91.0093 122.829 91.0014 122.707C90.9934 122.586 91.0206 122.465 91.0799 122.357C91.1392 122.249 91.2284 122.159 91.3378 122.096C91.4472 122.033 91.5726 122 91.7005 122H104.301C104.429 122.001 104.554 122.034 104.663 122.097C104.772 122.16 104.861 122.25 104.92 122.358C104.979 122.466 105.006 122.586 104.999 122.708C104.991 122.829 104.949 122.946 104.877 123.046L98.5764 131.712Z" fill="#517D2E"/>
<path d="M412.333 17.8755H409.625V16.6254C409.625 16.4597 409.559 16.3006 409.442 16.1834C409.325 16.0661 409.166 16.0001 409 16C408.835 15.9999 408.676 16.0656 408.558 16.1828C408.441 16.2999 408.375 16.4588 408.375 16.6246V17.8755H404.625V16.6254C404.625 16.5434 404.609 16.4621 404.578 16.3862C404.546 16.3104 404.5 16.2414 404.442 16.1834C404.384 16.1253 404.315 16.0792 404.24 16.0477C404.164 16.0163 404.082 16.0001 404 16C403.835 15.9999 403.676 16.0656 403.558 16.1828C403.441 16.2999 403.375 16.4588 403.375 16.6246V17.8755H399.625V16.6254C399.625 16.5434 399.609 16.4621 399.578 16.3862C399.546 16.3104 399.5 16.2414 399.442 16.1834C399.384 16.1253 399.315 16.0792 399.24 16.0477C399.164 16.0163 399.082 16.0001 399 16C398.835 15.9999 398.676 16.0656 398.558 16.1828C398.441 16.2999 398.375 16.4588 398.375 16.6246V17.8755H395.667C395.225 17.8755 394.801 18.0509 394.488 18.3633C394.176 18.6757 394 19.0994 394 19.5413V34.3333C394 34.7753 394.176 35.1993 394.488 35.5118C394.801 35.8244 395.225 36 395.667 36H412.333C412.775 36 413.199 35.8244 413.512 35.5118C413.824 35.1993 414 34.7753 414 34.3333V19.5413C414 19.0994 413.824 18.6757 413.512 18.3633C413.199 18.0509 412.775 17.8755 412.333 17.8755ZM412.75 34.3341C412.75 34.4445 412.706 34.5504 412.628 34.6285C412.55 34.7066 412.445 34.7506 412.334 34.7508H395.667C395.556 34.7508 395.45 34.7069 395.372 34.6288C395.294 34.5506 395.25 34.4446 395.25 34.3341V19.5422C395.25 19.4318 395.294 19.326 395.372 19.2481C395.45 19.1701 395.556 19.1263 395.667 19.1263H398.375V20.3763C398.375 20.5421 398.441 20.7011 398.558 20.8184C398.675 20.9357 398.834 21.0017 399 21.0018C399.165 21.0019 399.324 20.9361 399.442 20.819C399.559 20.7019 399.625 20.5429 399.625 20.3772V19.1263H403.375V20.3763C403.375 20.5421 403.441 20.7011 403.558 20.8184C403.675 20.9357 403.834 21.0017 404 21.0018C404.165 21.0019 404.324 20.9361 404.442 20.819C404.559 20.7019 404.625 20.5429 404.625 20.3772V19.1263H408.375V20.3763C408.375 20.5421 408.441 20.7011 408.558 20.8184C408.675 20.9357 408.834 21.0017 409 21.0018C409.165 21.0019 409.324 20.9361 409.442 20.819C409.559 20.7019 409.625 20.5429 409.625 20.3772V19.1263H412.333C412.444 19.1265 412.549 19.1704 412.627 19.2484C412.705 19.3263 412.749 19.4319 412.749 19.5422L412.75 34.3341Z" fill="#517D2E"/>
<path d="M398.375 23.5006H400.875V25.3756H398.375V23.5006ZM398.375 26.6256H400.875V28.5007H398.375V26.6256ZM398.375 29.7507H400.875V31.6257H398.375V29.7507ZM402.75 29.7507H405.25V31.6257H402.75V29.7507ZM402.75 26.6256H405.25V28.5007H402.75V26.6256ZM402.75 23.5006H405.25V25.3756H402.75V23.5006ZM407.125 29.7507H409.625V31.6257H407.125V29.7507ZM407.125 26.6256H409.625V28.5007H407.125V26.6256ZM407.125 23.5006H409.625V25.3756H407.125V23.5006Z" fill="#517D2E"/>
<path d="M44.4444 77H5.55556C4.08213 77 2.66905 77.59 1.62718 78.6402C0.585316 79.6904 0 81.1148 0 82.6V119C0 120.485 0.585316 121.91 1.62718 122.96C2.66905 124.01 4.08213 124.6 5.55556 124.6H16.6667L25 133L33.3333 124.6H44.4444C45.9179 124.6 47.3309 124.01 48.3728 122.96C49.4147 121.91 50 120.485 50 119V82.6C50 81.1148 49.4147 79.6904 48.3728 78.6402C47.3309 77.59 45.9179 77 44.4444 77ZM25 85.4C29.7972 85.4 33.3333 88.9616 33.3333 93.8C33.3333 98.6384 29.7972 102.2 25 102.2C20.2056 102.2 16.6667 98.6384 16.6667 93.8C16.6667 88.9616 20.2056 85.4 25 85.4ZM11.6028 116.2C13.1528 111.376 18.5361 107.8 25 107.8C31.4639 107.8 36.85 111.376 38.3972 116.2H11.6028Z" fill="#517D2E"/>
<path fill-rule="evenodd" clip-rule="evenodd" d="M0 15C0 11.6863 2.68629 9 6 9H44C47.3137 9 50 11.6863 50 15V50.5752C50 53.8889 47.3137 56.5752 44 56.5752H6C2.68629 56.5752 0 53.8889 0 50.5752V15ZM33.2812 27.928C36.4802 26.8893 35.9125 25.1528 34.8542 23.8673H15.4365C14.1125 25.2043 13.2375 27.027 16.7062 28.0479C16.593 29.1538 16.7253 30.2701 17.0946 31.3242C17.4639 32.3783 18.0619 33.3468 18.8498 34.1669C19.6378 34.987 20.5981 35.6404 21.6685 36.0846C22.7388 36.5289 23.8954 36.7541 25.0632 36.7458C26.2309 36.7374 27.3838 36.4956 28.447 36.036C29.5102 35.5764 30.46 34.9094 31.2349 34.078C32.0098 33.2467 32.5923 32.2698 32.9449 31.2104C33.2974 30.1511 33.412 29.0322 33.2812 27.928ZM31.2375 28.4424C29.6021 28.6842 27.4688 28.823 24.7167 28.823C22.2354 28.823 20.2823 28.711 18.7583 28.5108C18.7144 29.3194 18.8444 30.1281 19.1405 30.8872C19.4366 31.6463 19.8925 32.3399 20.4802 32.9255C21.068 33.5111 21.7752 33.9762 22.5586 34.2925C23.342 34.6088 24.185 34.7696 25.036 34.7649C25.887 34.7602 26.728 34.5903 27.5075 34.2654C28.287 33.9405 28.9885 33.4676 29.5692 32.8757C30.1498 32.2837 30.5973 31.5852 30.8841 30.8229C31.171 30.0605 31.2913 29.2505 31.2375 28.4424ZM23.9583 40.7783V44.8509C23.4915 45.0085 23.0706 45.2691 22.7302 45.6115C22.3898 45.9538 22.1395 46.3681 22 46.8203L17.2948 45.621C17.8573 44.3258 18.7701 43.1954 19.9405 42.3447C21.1109 41.4939 22.4971 40.9541 23.9583 40.7783ZM26.0417 40.7783V44.8509C26.9833 45.1681 27.7187 45.9015 28 46.8203L32.7052 45.621C32.1427 44.3258 31.2299 43.1954 30.0595 42.3447C28.8891 41.4939 27.5029 40.9541 26.0417 40.7783ZM33.2521 47.533L27.8312 48.9156C27.5796 49.4281 27.1796 49.8616 26.6781 50.1654C26.1766 50.4691 25.5945 50.6305 25 50.6305C24.4055 50.6305 23.8234 50.4691 23.3219 50.1654C22.8204 49.8616 22.4204 49.4281 22.1687 48.9156L16.7479 47.533C16.6936 47.9017 16.6665 48.2737 16.6667 48.646V49.6372C16.6667 49.9 16.5569 50.1521 16.3616 50.338C16.1662 50.5239 15.9013 50.6283 15.625 50.6283C15.3487 50.6283 15.0838 50.5239 14.8884 50.338C14.6931 50.1521 14.5833 49.9 14.5833 49.6372V49.0355C14.3267 49.242 14.0214 49.3863 13.6934 49.456C13.3654 49.5257 13.0246 49.5189 12.7 49.436L10.6875 48.9225C10.4232 48.8552 10.1754 48.7389 9.95837 48.5804C9.7413 48.4218 9.55918 48.2242 9.4224 47.9987C9.28562 47.7732 9.19687 47.5243 9.16121 47.2661C9.12555 47.008 9.14369 46.7457 9.21458 46.4942L10.0229 43.6229C10.0937 43.3714 10.2159 43.1356 10.3825 42.9291C10.5491 42.7226 10.7569 42.5493 10.9939 42.4191C11.2308 42.289 11.4925 42.2045 11.7638 42.1706C12.0351 42.1367 12.3107 42.1539 12.575 42.2214L14.5875 42.7338C14.8759 42.8072 15.1442 42.9389 15.3743 43.1198C15.6044 43.3008 15.7908 43.5268 15.9208 43.7824C16.8273 42.2502 18.1461 40.9751 19.7416 40.088C21.3371 39.2009 23.152 38.7337 25 38.7345C26.847 38.7339 28.661 39.2006 30.2559 40.087C31.8508 40.9734 33.1693 42.2474 34.076 43.7785C34.2066 43.5239 34.3932 43.299 34.623 43.1189C34.8529 42.9388 35.1207 42.8079 35.4083 42.7348L37.4208 42.2214C37.6852 42.1539 37.9609 42.1367 38.2323 42.1707C38.5036 42.2047 38.7653 42.2892 39.0023 42.4195C39.2393 42.5497 39.447 42.7231 39.6135 42.9298C39.7801 43.1364 39.9022 43.3723 39.9729 43.6239L40.7812 46.4952C40.8521 46.7468 40.8702 47.0091 40.8345 47.2673C40.7988 47.5255 40.7099 47.7745 40.573 48C40.4362 48.2255 40.2539 48.4231 40.0367 48.5816C39.8196 48.7401 39.5717 48.8563 39.3073 48.9235L37.2958 49.437C36.9722 49.5197 36.6324 49.5269 36.3052 49.4578C35.978 49.3888 35.6732 49.2456 35.4167 49.0405V49.6372C35.4167 49.9 35.3069 50.1521 35.1116 50.338C34.9162 50.5239 34.6513 50.6283 34.375 50.6283C34.0987 50.6283 33.8338 50.5239 33.6384 50.338C33.4431 50.1521 33.3333 49.9 33.3333 49.6372V48.646C33.3333 48.2684 33.3052 47.8967 33.2521 47.533ZM25 48.646C25.2763 48.646 25.5412 48.5416 25.7366 48.3557C25.9319 48.1698 26.0417 47.9177 26.0417 47.6549C26.0417 47.392 25.9319 47.1399 25.7366 46.954C25.5412 46.7681 25.2763 46.6637 25 46.6637C24.7237 46.6637 24.4588 46.7681 24.2634 46.954C24.0681 47.1399 23.9583 47.392 23.9583 47.6549C23.9583 47.9177 24.0681 48.1698 24.2634 48.3557C24.4588 48.5416 24.7237 48.646 25 48.646ZM15.625 18.4159C15.625 17.9818 20.3292 14.9469 25 14.9469C29.6708 14.9469 34.375 17.9828 34.375 18.4159C34.375 19.9621 34.2021 20.8779 34.0562 21.3765C33.9594 21.7036 33.6375 21.885 33.2802 21.885H16.7198C16.3625 21.885 16.0406 21.7036 15.9437 21.3765C15.7979 20.8779 15.625 19.9621 15.625 18.4159ZM23.4375 17.9204C23.1612 17.9204 22.8963 18.0248 22.7009 18.2107C22.5056 18.3965 22.3958 18.6486 22.3958 18.9115C22.3958 19.1744 22.5056 19.4265 22.7009 19.6124C22.8963 19.7982 23.1612 19.9027 23.4375 19.9027H26.5625C26.8388 19.9027 27.1037 19.7982 27.2991 19.6124C27.4944 19.4265 27.6042 19.1744 27.6042 18.9115C27.6042 18.6486 27.4944 18.3965 27.2991 18.2107C27.1037 18.0248 26.8388 17.9204 26.5625 17.9204H23.4375Z" fill="#517D2E"/>
<path d="M25.5208 65L16.6667 56.5752H34.375L25.5208 65Z" fill="#517D2E"/>
<path fill-rule="evenodd" clip-rule="evenodd" d="M100 20.1667C95.8333 20.1667 92.275 22.7583 90.8333 26.4167C92.275 30.075 95.8333 32.6667 100 32.6667C104.167 32.6667 107.725 30.075 109.167 26.4167C107.725 22.7583 104.167 20.1667 100 20.1667ZM100 30.5833C97.7 30.5833 95.8333 28.7167 95.8333 26.4167C95.8333 24.1167 97.7 22.25 100 22.25C102.3 22.25 104.167 24.1167 104.167 26.4167C104.167 28.7167 102.3 30.5833 100 30.5833ZM100 23.9167C98.6166 23.9167 97.5 25.0333 97.5 26.4167C97.5 27.8 98.6166 28.9167 100 28.9167C101.383 28.9167 102.5 27.8 102.5 26.4167C102.5 25.0333 101.383 23.9167 100 23.9167Z" fill="#517D2E"/>
<path d="M139.005 20.7895C141.515 20.7895 143.552 22.9116 143.552 25.5263C143.552 26.1421 143.434 26.72 143.225 27.26L145.88 30.0263C147.254 28.8326 148.336 27.2884 149 25.5263C147.427 21.3674 143.543 18.4211 138.995 18.4211C137.722 18.4211 136.503 18.6579 135.376 19.0842L137.34 21.1305C137.859 20.9126 138.413 20.7895 139.005 20.7895ZM129.91 18.2032L131.983 20.3632L132.402 20.7989C130.881 22.0286 129.707 23.6614 129 25.5263C130.573 29.6853 134.457 32.6316 139.005 32.6316C140.414 32.6316 141.76 32.3474 142.988 31.8358L143.37 32.2337L146.035 35L147.19 33.7968L131.065 17L129.91 18.2032ZM134.939 23.4421L136.349 24.9105C136.303 25.1095 136.276 25.3179 136.276 25.5263C136.276 27.0989 137.495 28.3684 139.005 28.3684C139.205 28.3684 139.405 28.34 139.596 28.2926L141.005 29.7611C140.396 30.0737 139.723 30.2632 139.005 30.2632C136.494 30.2632 134.457 28.1411 134.457 25.5263C134.457 24.7779 134.639 24.0768 134.939 23.4421ZM138.859 22.7032L141.724 25.6874L141.742 25.5358C141.742 23.9632 140.523 22.6937 139.014 22.6937L138.859 22.7032Z" fill="#517D2E"/>
<path d="M120 174C120 176.761 118.419 179 115.312 179H94.6875C91.5811 179 90 176.761 90 174V164C90 161.239 91.5811 159 94.6875 159H115.312C118.419 159 120 161.239 120 164V174Z" fill="#137A08"/>
<path fill-rule="evenodd" clip-rule="evenodd" d="M104.34 168.691C104.307 168.24 104.381 168.126 104.914 167.827C104.763 167.693 104.58 167.662 104.392 167.648C104.168 167.632 103.944 167.625 103.722 167.604C103.607 167.595 103.586 167.551 103.607 167.441C103.667 167.141 103.828 166.933 104.143 166.838C104.449 166.745 104.749 166.63 105.06 166.52C105.05 166.494 105.037 166.469 105.026 166.442C104.991 166.378 104.972 166.307 104.969 166.234C104.967 166.161 104.983 166.089 105.014 166.023C105.039 165.971 105.067 165.92 105.097 165.872C105.29 165.574 105.476 165.519 105.803 165.668C105.906 165.715 106.006 165.772 106.096 165.84C106.356 166.036 106.379 166.312 106.147 166.541C106.05 166.634 105.919 166.698 105.802 166.775C105.735 166.818 105.627 166.806 105.604 166.911C105.602 166.92 105.563 166.92 105.541 166.924C105.483 166.927 105.419 166.915 105.366 166.935C105.115 167.025 104.868 167.123 104.621 167.221C104.583 167.235 104.55 167.26 104.512 167.279L104.519 167.309C104.74 167.309 104.964 167.312 105.185 167.308C105.681 167.295 106.177 167.28 106.672 167.265C106.834 167.261 106.853 167.29 106.805 167.44C106.793 167.472 106.783 167.504 106.773 167.537C106.725 167.705 106.607 167.781 106.432 167.807C105.901 167.88 105.394 168.044 104.896 168.236C104.782 168.281 104.663 168.343 104.658 168.478C104.654 168.61 104.754 168.693 104.864 168.751C104.975 168.809 105.093 168.851 105.209 168.895C105.341 168.943 105.365 168.981 105.33 169.11C105.255 169.38 105.248 169.396 104.949 169.365C104.351 169.302 103.829 169.092 103.477 168.587C103.405 168.484 103.351 168.369 103.281 168.245C103.252 168.28 103.224 168.312 103.196 168.346C102.971 168.646 102.727 168.93 102.417 169.154C102.193 169.317 101.956 169.445 101.661 169.439C101.313 169.43 101.095 169.259 101.028 168.924C101.02 168.883 101.01 168.842 101.002 168.803C100.676 168.92 100.357 169.036 100.037 169.146C99.8808 169.198 99.7233 169.246 99.5639 169.287C99.5081 169.302 99.4472 169.297 99.3886 169.3C99.382 169.286 99.375 169.273 99.3703 169.258C99.4144 169.228 99.4566 169.194 99.503 169.168C99.9764 168.901 100.445 168.634 100.919 168.369C100.992 168.328 101.026 168.27 101.051 168.193C101.124 167.988 101.205 167.787 101.287 167.584C101.302 167.546 101.329 167.515 101.367 167.456C101.458 167.65 101.371 167.83 101.416 168.011C101.444 167.997 101.471 167.984 101.491 167.966C101.665 167.827 101.842 167.693 102.007 167.546C102.238 167.34 102.272 167.168 102.148 166.89C102.078 166.736 101.999 166.586 101.92 166.437C101.905 166.407 101.88 166.382 101.849 166.367C101.754 166.314 101.726 166.237 101.761 166.144C101.802 166.04 101.849 165.941 101.902 165.844C101.943 165.771 102.014 165.76 102.068 165.822C102.189 165.956 102.303 166.097 102.409 166.241C102.472 166.326 102.437 166.393 102.343 166.421C102.39 166.605 102.444 166.785 102.482 166.968C102.555 167.331 102.44 167.644 102.189 167.916C101.955 168.171 101.697 168.398 101.392 168.573C101.354 168.594 101.324 168.655 101.326 168.7C101.327 168.799 101.37 168.9 101.477 168.919C101.602 168.941 101.738 168.952 101.858 168.924C102.144 168.861 102.373 168.687 102.562 168.48C102.75 168.27 102.909 168.031 103.08 167.806C103.132 167.738 103.133 167.67 103.108 167.589C102.95 167.115 102.799 166.638 102.643 166.165C102.567 165.936 102.645 165.631 102.824 165.499C102.855 165.548 102.884 165.593 102.91 165.643C103.231 166.282 103.424 166.958 103.519 167.662C103.552 167.924 103.604 168.185 103.796 168.393C103.941 168.55 104.128 168.638 104.34 168.691M105.811 166.323C105.812 166.312 105.812 166.3 105.812 166.29C105.676 166.231 105.569 166.112 105.376 166.112C105.39 166.219 105.403 166.312 105.415 166.423L105.811 166.323ZM109.88 174.708C109.632 174.708 109.413 174.705 109.192 174.71C108.739 174.72 108.288 174.741 107.833 174.744C105.284 174.763 102.733 174.779 100.182 174.788C99.7158 174.789 99.247 174.758 98.7928 174.633C98.5795 174.574 98.3798 174.484 98.2219 174.324C98.1844 174.285 98.1525 174.237 98.0991 174.17H98.303C101.106 174.187 103.909 174.21 106.711 174.222C107.715 174.228 108.718 174.216 109.722 174.21C109.762 174.21 109.834 174.197 109.836 174.184C109.843 174.134 109.845 174.065 109.815 174.035C109.676 173.886 109.755 173.765 109.862 173.64C109.906 173.59 109.952 173.582 110 173.637C110.132 173.791 110.172 173.871 110.054 174.018C110.02 174.06 110.023 174.129 110.005 174.197C110.057 174.201 110.088 174.207 110.117 174.206C110.595 174.198 111.069 174.188 111.546 174.178C111.636 174.178 111.727 174.184 111.817 174.195C112.033 174.219 112.147 174.32 112.194 174.529C112.235 174.703 112.235 174.879 112.165 175.047C112.072 175.275 111.858 175.322 111.667 175.16C111.634 175.136 111.595 175.122 111.554 175.119C111.432 175.115 111.309 175.119 111.187 175.12C111.097 175.121 111.007 175.108 110.941 175.207C110.898 175.271 110.819 175.244 110.751 175.202C110.702 175.17 110.646 175.15 110.587 175.143C110.49 175.135 110.39 175.148 110.293 175.141C110.178 175.136 110.085 175.155 110.033 175.27C110.004 175.333 109.952 175.33 109.9 175.283C109.759 175.16 109.747 175.06 109.841 174.896C109.869 174.848 109.865 174.784 109.88 174.708ZM111.555 174.958L111.584 174.665C111.56 174.663 111.541 174.655 111.523 174.655C111.064 174.667 110.605 174.676 110.145 174.69C110.037 174.693 109.996 174.765 110.049 174.859C110.096 174.939 110.151 175.005 110.272 174.984C110.379 174.967 110.491 174.98 110.6 174.97C110.65 174.964 110.697 174.943 110.734 174.91C110.808 174.842 110.878 174.844 110.954 174.899C110.985 174.923 111.017 174.954 111.049 174.955C111.217 174.963 111.386 174.958 111.555 174.958Z" fill="white"/>
<path fill-rule="evenodd" clip-rule="evenodd" d="M98.9718 166.99C98.8453 167.027 98.7192 167.063 98.5931 167.104C98.4633 167.143 98.3423 167.113 98.2293 167.057C98.1928 167.041 98.152 167 98.1468 166.968C98.1037 166.661 98.0859 166.359 98.3161 166.099C98.4764 165.916 98.6376 165.885 98.82 166.047C98.9597 166.169 99.074 166.317 99.21 166.465C99.2531 166.44 99.3211 166.41 99.3806 166.369C99.3938 166.357 99.4045 166.343 99.412 166.327C99.4195 166.312 99.4237 166.295 99.4242 166.277C99.3904 165.891 99.3525 165.502 99.314 165.115C99.2709 164.679 99.2259 164.244 99.1809 163.807C99.1784 163.777 99.1727 163.747 99.164 163.718C99.1054 163.544 99.2072 163.32 99.3876 163.249C99.4101 163.24 99.4701 163.265 99.4828 163.29C99.5259 163.375 99.5554 163.467 99.5892 163.556C99.6515 163.72 99.7134 163.886 99.7743 164.05C99.7919 164.093 99.8027 164.137 99.8062 164.182C99.8193 164.34 99.7551 164.39 99.5995 164.349C99.6408 164.943 99.6848 165.536 99.7303 166.152C99.8006 166.097 99.8498 166.05 99.9056 166.012C99.9426 165.988 99.9881 165.976 100.03 165.959C100.048 166.003 100.077 166.045 100.081 166.089C100.092 166.165 100.072 166.247 100.095 166.317C100.122 166.39 100.169 166.485 100.231 166.509C100.292 166.531 100.416 166.496 100.457 166.445C100.559 166.324 100.631 166.179 100.711 166.041C100.732 166.006 100.744 165.968 100.76 165.931H100.797C100.812 166.007 100.822 166.088 100.846 166.161C100.875 166.247 100.904 166.34 100.957 166.408C101.049 166.524 101.177 166.496 101.209 166.358C101.228 166.272 101.22 166.176 101.206 166.09C101.188 165.993 101.227 165.899 101.325 165.881C101.353 165.877 101.407 165.909 101.415 165.935C101.482 166.174 101.476 166.414 101.374 166.641C101.291 166.819 100.965 166.83 100.797 166.672C100.767 166.643 100.739 166.608 100.7 166.566C100.572 166.694 100.44 166.809 100.247 166.826C100.055 166.843 99.8995 166.794 99.7936 166.607C99.7804 166.646 99.7673 166.666 99.7673 166.686C99.7753 166.885 99.7861 167.083 99.7936 167.281C99.8081 167.638 99.7875 167.99 99.6384 168.325C99.5176 168.598 99.3004 168.82 99.0258 168.952C98.5762 169.174 98.1018 169.318 97.5918 169.32C97.5028 169.32 97.4104 169.305 97.3237 169.288C96.9843 169.22 96.8142 168.994 96.7303 168.688C96.5986 168.209 96.6295 167.738 96.795 167.271C96.809 167.232 96.8358 167.195 96.8559 167.158C96.8674 167.162 96.8794 167.164 96.8915 167.165C96.8915 167.291 96.9061 167.419 96.8901 167.54C96.8484 167.839 96.8611 168.127 96.9693 168.408C97.0683 168.669 97.2698 168.815 97.5562 168.832C98.1136 168.863 98.5898 168.657 99.0328 168.349C99.3393 168.136 99.4612 167.843 99.4612 167.491C99.4598 167.262 99.4612 167.032 99.4612 166.787C99.3726 166.824 99.27 166.827 99.2845 166.949C99.3595 167.621 98.9676 168.009 98.4122 168.293C98.2622 168.37 98.0967 168.435 97.9298 168.468C97.5028 168.551 97.1193 168.271 97.0537 167.852C97.0073 167.553 97.0589 167.261 97.1348 166.971C97.1479 166.925 97.185 166.885 97.2103 166.84C97.2201 166.845 97.2305 166.848 97.2412 166.85C97.2412 166.909 97.2468 166.966 97.2412 167.023C97.2187 167.254 97.2173 167.482 97.3172 167.698C97.4498 167.99 97.665 168.082 97.9762 167.983C98.3629 167.859 98.6611 167.613 98.9118 167.313C98.9765 167.235 98.9812 167.114 99.0136 167.011C99.0018 167.004 98.9859 166.997 98.9718 166.99ZM98.8312 166.615C98.775 166.549 98.7436 166.49 98.6953 166.459C98.6414 166.423 98.5697 166.411 98.5078 166.39C98.4923 166.452 98.459 166.518 98.4693 166.577C98.4736 166.614 98.542 166.665 98.5837 166.669C98.6583 166.671 98.7328 166.639 98.8312 166.615ZM112.275 165.636C112.288 165.895 112.304 166.152 112.316 166.411C112.337 166.843 112.371 167.273 112.369 167.703C112.366 167.878 112.322 168.05 112.239 168.206C112.037 168.586 111.682 168.636 111.302 168.407C111.185 168.337 111.095 168.222 111.005 168.116C110.953 168.058 110.915 168.042 110.868 168.104C110.8 168.191 110.737 168.283 110.681 168.379C110.535 168.632 110.398 168.89 110.254 169.144C110.225 169.198 110.185 169.246 110.136 169.284C110.092 169.315 110.026 169.341 109.976 169.335C109.726 169.295 109.368 168.902 109.372 168.654C109.373 168.443 109.401 168.23 109.434 168.019C109.454 167.882 109.5 167.75 109.534 167.616C109.552 167.618 109.568 167.618 109.584 167.619C109.594 167.685 109.612 167.752 109.612 167.819C109.609 168.109 109.632 168.389 109.754 168.658C109.769 168.689 109.783 168.722 109.802 168.75C109.893 168.89 110.01 168.895 110.107 168.758C110.159 168.682 110.197 168.598 110.244 168.518C110.416 168.223 110.582 167.923 110.763 167.634C110.88 167.446 110.993 167.446 111.146 167.613C111.246 167.724 111.334 167.85 111.444 167.95C111.61 168.099 111.844 168.044 111.922 167.838C111.964 167.717 111.995 167.584 111.99 167.458C111.968 166.846 111.935 166.231 111.902 165.619C111.894 165.485 111.873 165.351 111.875 165.218C111.878 165.1 111.836 164.985 111.755 164.896C111.523 164.618 111.299 164.331 111.067 164.053C110.948 163.913 110.874 163.77 110.902 163.584C110.916 163.498 110.899 163.407 110.906 163.32C110.91 163.282 110.926 163.227 110.954 163.214C110.982 163.201 111.042 163.221 111.067 163.245C111.249 163.41 111.426 163.577 111.6 163.748C111.675 163.821 111.661 163.865 111.55 163.935C111.619 164.033 111.689 164.13 111.756 164.227C111.768 164.224 111.78 164.222 111.792 164.22C111.77 164.062 111.775 163.894 111.721 163.75C111.637 163.527 111.725 163.363 111.85 163.201C111.916 163.116 111.968 163.172 111.996 163.24C112.066 163.414 112.132 163.587 112.196 163.765C112.236 163.872 112.268 163.984 112.309 164.113C112.243 164.109 112.208 164.105 112.176 164.102C112.175 164.11 112.17 164.115 112.17 164.123C112.185 164.351 112.198 164.582 112.215 164.809C112.217 164.835 112.219 164.864 112.235 164.885C112.396 165.107 112.563 165.329 112.747 165.543C112.721 165.377 112.689 165.21 112.672 165.043C112.622 164.591 112.592 164.138 112.527 163.689C112.5 163.497 112.541 163.345 112.656 163.201C112.745 163.089 112.82 163.091 112.863 163.225C112.953 163.5 113.031 163.78 113.105 164.061C113.132 164.163 113.085 164.202 112.966 164.207C112.992 164.569 113.019 164.93 113.048 165.29C113.068 165.52 113.085 165.749 113.113 165.975C113.122 166.039 113.143 166.109 113.18 166.164C113.402 166.492 113.634 166.816 113.854 167.145C113.999 167.361 114.075 167.599 114.056 167.86C114.054 167.895 114.046 167.93 114.039 168.001C113.748 167.587 113.478 167.205 113.209 166.82C113.177 167.231 113.281 167.641 113.077 168.02C113.064 168.02 113.049 168.02 113.036 168.02C113.029 167.964 113.012 167.909 113.015 167.85C113.033 167.4 112.998 166.951 112.913 166.509C112.907 166.479 112.903 166.445 112.884 166.423C112.693 166.157 112.499 165.895 112.305 165.631C112.295 165.632 112.285 165.635 112.276 165.636" fill="white"/>
<path fill-rule="evenodd" clip-rule="evenodd" d="M97.8356 163.544C98.0438 163.698 98.1389 163.88 98.1155 164.103C98.0846 164.381 98.1516 164.641 98.2261 164.902C98.281 165.09 98.3981 165.168 98.5871 165.174C98.7422 165.176 98.8041 165.116 98.7713 164.97C98.7136 164.726 98.6433 164.485 98.5781 164.243C98.5656 164.194 98.5466 164.147 98.5214 164.103C98.4178 163.92 98.4717 163.772 98.6185 163.637C98.6808 163.579 98.7352 163.572 98.7872 163.633C98.8674 163.727 98.9517 163.82 99.0131 163.926C99.0905 164.054 99.0666 164.109 98.9292 164.185C98.9738 164.371 99.0356 164.558 99.0567 164.749C99.0783 164.923 99.0821 165.108 99.0464 165.279C98.993 165.529 98.6363 165.716 98.3864 165.658C98.2397 165.622 98.1516 165.527 98.0953 165.397C98.0714 165.342 98.0522 165.284 98.0236 165.209C97.9903 165.253 97.9641 165.279 97.9435 165.31C97.9017 165.369 97.8755 165.445 97.8206 165.489C97.6796 165.599 97.7011 165.737 97.7133 165.882C97.7428 166.279 97.7728 166.674 97.7897 167.07C97.7967 167.231 97.755 167.385 97.6106 167.507C97.5835 167.225 97.5572 166.945 97.5267 166.664C97.4963 166.38 97.4616 166.095 97.4269 165.805C97.4096 165.801 97.3936 165.794 97.3744 165.793C97.0617 165.762 96.8756 165.607 96.7927 165.31C96.7261 165.074 96.736 164.834 96.7608 164.596C96.7706 164.496 96.7744 164.397 96.7824 164.296C96.7631 164.293 96.7472 164.289 96.7289 164.286C96.683 164.447 96.6347 164.608 96.5944 164.771C96.5344 165 96.4871 165.231 96.4271 165.459C96.4084 165.513 96.3784 165.562 96.3389 165.605C96.2194 165.754 96.0717 165.751 95.9831 165.585C95.9044 165.436 95.8428 165.279 95.7994 165.117C95.6958 164.771 95.6892 164.404 95.7802 164.055C95.7905 164.011 95.8163 163.969 95.8336 163.926C95.8444 163.927 95.8566 163.93 95.8692 163.93C95.8739 163.979 95.88 164.031 95.8852 164.08C95.9156 164.359 95.9386 164.64 95.9836 164.92C95.9981 165.017 96.053 165.113 96.1097 165.197C96.1683 165.288 96.2508 165.281 96.2841 165.182C96.3338 165.026 96.3731 164.865 96.3938 164.705C96.4275 164.408 96.5091 164.129 96.6774 163.878C96.7252 163.81 96.7838 163.742 96.8527 163.698C96.9713 163.622 97.095 163.684 97.0903 163.819C97.0845 163.959 97.0636 164.099 97.028 164.235C96.9497 164.519 96.9572 164.793 97.095 165.058C97.1644 165.183 97.2361 165.227 97.3842 165.239C97.3753 165.116 97.3735 164.995 97.3575 164.876C97.3158 164.526 97.2699 164.174 97.2216 163.824C97.2064 163.724 97.1843 163.626 97.1555 163.529C97.133 163.435 97.2056 163.235 97.2933 163.195C97.3191 163.183 97.3847 163.202 97.3978 163.225C97.4874 163.393 97.5764 163.563 97.6486 163.739C97.6652 163.778 97.6678 163.822 97.656 163.863C97.6442 163.904 97.6187 163.94 97.5835 163.965C97.5628 163.98 97.5506 164.016 97.5521 164.043C97.5867 164.415 97.6252 164.787 97.6617 165.157C97.6627 165.165 97.6702 165.169 97.6758 165.175C97.8324 165.077 97.9228 164.875 97.89 164.708C97.8427 164.48 97.793 164.253 97.7522 164.023C97.7227 163.865 97.7653 163.716 97.8356 163.544ZM101.977 163.632C101.973 163.669 101.971 163.705 101.964 163.739C101.912 164.012 101.902 164.287 101.961 164.559C101.986 164.673 102.046 164.787 102.109 164.889C102.138 164.935 102.214 164.983 102.266 164.98C102.308 164.978 102.365 164.91 102.386 164.859C102.507 164.6 102.611 164.332 102.739 164.074C102.818 163.913 102.919 163.759 103.024 163.614C103.063 163.562 103.161 163.495 103.204 163.511C103.298 163.543 103.339 163.64 103.326 163.748C103.309 163.868 103.28 163.989 103.275 164.109C103.265 164.357 103.252 164.605 103.265 164.853C103.277 165.119 103.485 165.231 103.741 165.124C104.13 164.963 104.228 164.728 104.202 164.349C104.183 164.06 104.108 163.77 104.054 163.483C104.021 163.296 104.144 163.174 104.23 163.012C104.371 163.172 104.411 163.344 104.435 163.514C104.477 163.797 104.493 164.083 104.538 164.366C104.57 164.575 104.643 164.773 104.787 164.939C104.85 165.012 104.924 165.071 105.031 165.038C105.141 165.005 105.175 164.915 105.185 164.815C105.209 164.556 105.153 164.306 105.074 164.062C105.025 163.91 104.971 163.758 104.914 163.609C104.882 163.527 104.89 163.464 104.951 163.4C104.996 163.353 105.023 163.291 105.058 163.236C105.119 163.133 105.158 163.124 105.252 163.194C105.436 163.335 105.546 163.522 105.606 163.736C105.616 163.771 105.592 163.819 105.583 163.859C105.543 163.851 105.501 163.848 105.465 163.833C105.429 163.819 105.399 163.792 105.346 163.757C105.391 163.926 105.432 164.069 105.465 164.216C105.516 164.451 105.551 164.69 105.48 164.928C105.469 164.969 105.459 165.01 105.445 165.05C105.285 165.465 104.94 165.55 104.595 165.258C104.521 165.195 104.445 165.136 104.382 165.085C104.261 165.195 104.123 165.328 103.976 165.449C103.922 165.496 103.849 165.523 103.779 165.55C103.464 165.672 103.185 165.553 103.064 165.247C102.964 165.001 102.982 164.745 102.998 164.489C103.002 164.43 102.998 164.37 102.998 164.311C102.985 164.308 102.972 164.305 102.959 164.302C102.931 164.355 102.899 164.408 102.878 164.466C102.789 164.694 102.711 164.926 102.62 165.154C102.49 165.482 102.292 165.505 102.063 165.233C101.666 164.752 101.684 164.23 101.901 163.69C101.91 163.668 101.93 163.646 101.944 163.625C101.954 163.63 101.965 163.633 101.977 163.634M106.816 164.468C106.794 164.253 106.808 164.024 106.737 163.826C106.708 163.752 106.695 163.673 106.699 163.595C106.703 163.516 106.724 163.438 106.759 163.367C106.783 163.322 106.835 163.263 106.876 163.26C106.918 163.258 106.984 163.31 107.003 163.353C107.122 163.627 107.236 163.901 107.337 164.183C107.387 164.325 107.34 164.375 107.191 164.363C107.203 164.619 107.213 164.873 107.231 165.127C107.232 165.161 107.264 165.195 107.283 165.229C107.623 165.787 107.971 166.34 108.298 166.905C108.461 167.183 108.587 167.482 108.634 167.805C108.644 167.869 108.642 167.937 108.644 168.004C108.632 168.011 108.619 168.017 108.606 168.023C108.577 167.985 108.541 167.951 108.522 167.91C108.21 167.194 107.783 166.541 107.356 165.885C107.335 165.854 107.313 165.825 107.271 165.768C107.293 166.022 107.313 166.245 107.331 166.466C107.373 166.955 107.472 167.443 107.411 167.935C107.381 168.169 107.307 168.395 107.245 168.622C107.232 168.677 107.188 168.724 107.157 168.773C107.14 168.769 107.121 168.767 107.106 168.763C107.106 168.705 107.094 168.643 107.108 168.586C107.225 168.147 107.183 167.701 107.13 167.258C107.063 166.67 106.979 166.085 106.912 165.499C106.885 165.271 106.832 165.065 106.678 164.88C106.452 164.605 106.253 164.312 106.035 164.031C105.97 163.949 105.879 163.886 105.809 163.807C105.769 163.765 105.728 163.708 105.721 163.655C105.707 163.514 105.702 163.373 105.706 163.232C105.706 163.192 105.73 163.135 105.759 163.119C105.79 163.105 105.855 163.12 105.885 163.145C106.115 163.348 106.343 163.553 106.565 163.764C106.603 163.799 106.608 163.869 106.629 163.925C106.568 163.937 106.508 163.951 106.438 163.967C106.552 164.129 106.672 164.303 106.795 164.477C106.802 164.473 106.808 164.47 106.816 164.467M114.321 164.059C114.345 164.345 114.369 164.641 114.395 164.935C114.446 165.518 114.501 166.098 114.553 166.68C114.595 167.086 114.578 167.496 114.503 167.898C114.394 168.454 114.147 168.92 113.572 169.146C113.404 169.213 113.22 169.247 113.041 169.292C112.992 169.302 112.937 169.293 112.884 169.293C112.88 169.279 112.873 169.268 112.868 169.255C112.92 169.207 112.968 169.156 113.023 169.115C113.211 168.975 113.406 168.847 113.59 168.704C114.03 168.355 114.238 167.899 114.208 167.356C114.177 166.797 114.132 166.237 114.075 165.68C114.018 165.111 113.947 164.544 113.879 163.977C113.861 163.829 113.835 163.683 113.813 163.536C113.795 163.43 113.933 163.16 114.033 163.129C114.057 163.123 114.115 163.152 114.128 163.18C114.25 163.428 114.365 163.677 114.479 163.928C114.493 163.967 114.484 164.014 114.486 164.059H114.321Z" fill="white"/>
<path fill-rule="evenodd" clip-rule="evenodd" d="M107.297 169.385C107.36 169.355 107.421 169.313 107.486 169.296C107.922 169.18 108.229 168.896 108.524 168.589C108.794 168.309 108.869 167.977 108.839 167.606C108.804 167.147 108.79 166.685 108.75 166.225C108.702 165.655 108.636 165.088 108.574 164.519C108.552 164.319 108.524 164.119 108.492 163.92C108.483 163.859 108.469 163.8 108.449 163.742C108.414 163.63 108.429 163.534 108.517 163.449C108.6 163.374 108.677 163.294 108.77 163.201C108.802 163.251 108.839 163.289 108.853 163.33C108.927 163.57 109 163.812 109.066 164.055C109.101 164.181 109.069 164.206 108.915 164.177C108.915 164.3 108.907 164.421 108.916 164.54C108.987 165.517 109.141 166.488 109.129 167.471C109.124 167.838 109.119 168.206 108.944 168.544C108.787 168.848 108.55 169.094 108.269 169.297C108.193 169.351 108.106 169.387 108.014 169.403C107.823 169.431 107.631 169.442 107.439 169.455C107.395 169.458 107.35 169.438 107.305 169.43C107.303 169.415 107.3 169.4 107.297 169.385ZM109.795 164.273C109.817 164.502 109.834 164.71 109.859 164.92C109.925 165.487 109.993 166.055 110.064 166.621C110.099 166.896 110.15 167.171 110.189 167.446C110.238 167.795 110.165 168.122 109.998 168.429C109.968 168.483 109.913 168.523 109.869 168.569C109.856 168.566 109.843 168.562 109.83 168.56C109.818 168.511 109.792 168.459 109.802 168.417C109.904 168.013 109.836 167.614 109.781 167.213C109.702 166.663 109.636 166.11 109.556 165.56C109.472 164.99 109.387 164.421 109.289 163.854C109.247 163.606 109.291 163.395 109.451 163.2C109.539 163.093 109.615 163.099 109.67 163.223C109.722 163.343 109.755 163.466 109.807 163.587C109.879 163.756 109.964 163.919 110.035 164.089C110.062 164.151 110.064 164.223 110.077 164.289C110.01 164.292 109.942 164.296 109.874 164.296C109.856 164.295 109.838 164.286 109.795 164.273ZM100.117 164.835C100.167 164.795 100.218 164.75 100.269 164.71C100.488 164.536 100.709 164.366 100.925 164.187C101.008 164.116 101.072 164.023 101.146 163.943C100.97 163.689 100.988 163.417 101.185 163.254C101.27 163.184 101.364 163.145 101.477 163.195C101.586 163.246 101.617 163.339 101.605 163.444C101.594 163.541 101.563 163.638 101.545 163.732C101.533 163.8 101.536 163.871 101.518 163.937C101.5 163.982 101.472 164.022 101.435 164.055C101.393 164.095 101.329 164.119 101.293 164.163C101.019 164.5 100.657 164.711 100.25 164.86C100.216 164.872 100.177 164.871 100.139 164.875C100.132 164.863 100.125 164.849 100.117 164.835ZM101.362 163.476C101.341 163.473 101.321 163.466 101.302 163.464C101.289 163.527 101.274 163.592 101.263 163.655L101.311 163.664C101.33 163.6 101.344 163.539 101.362 163.476ZM96.1776 167.625C96.2184 167.785 96.2175 167.92 96.1828 168.065C96.141 168.243 96.1218 168.425 96.0965 168.604C96.0928 168.632 96.0965 168.668 96.112 168.692C96.1429 168.74 96.1743 168.804 96.2207 168.824C96.2484 168.835 96.3103 168.771 96.3506 168.737C96.3745 168.717 96.3862 168.68 96.4129 168.669C96.434 168.661 96.4842 168.67 96.4907 168.687C96.554 168.822 96.4368 169.111 96.2967 169.176C96.1471 169.245 95.9868 169.185 95.9507 169.013C95.9123 168.84 95.8842 168.652 95.9123 168.48C95.9573 168.213 96.0501 167.953 96.1251 167.689C96.1312 167.67 96.1528 167.655 96.1776 167.625ZM110.97 165.735L110.669 165.22C110.5 165.301 110.46 165.278 110.469 165.113C110.472 165.071 110.457 165.026 110.467 164.988C110.481 164.946 110.506 164.888 110.541 164.875C110.575 164.864 110.646 164.892 110.667 164.923C110.735 165.025 110.787 165.135 110.845 165.244C110.869 165.289 110.892 165.338 110.939 165.381C110.939 165.298 110.938 165.217 110.939 165.133C110.943 165.029 110.932 164.919 110.961 164.82C110.98 164.756 111.052 164.701 111.11 164.655C111.128 164.639 111.198 164.647 111.209 164.665C111.253 164.728 111.293 164.797 111.31 164.869C111.326 164.928 111.294 164.981 111.217 164.942C111.105 164.888 111.069 164.945 111.066 165.035C111.059 165.204 111.062 165.37 111.055 165.538C111.054 165.6 111.033 165.661 111.02 165.725C111.003 165.73 110.986 165.732 110.97 165.735ZM95.8757 166.988C96.0417 166.731 96.2625 166.533 96.5278 166.385C96.696 166.291 96.8789 166.22 97.0603 166.145C97.1137 166.122 97.1868 166.071 97.2229 166.174C97.26 166.277 97.2285 166.354 97.1353 166.39C97.0185 166.434 96.8939 166.463 96.7832 166.518C96.501 166.658 96.225 166.808 95.9456 166.955C95.9226 166.967 95.8996 166.977 95.8757 166.988ZM106.787 168.903C106.594 169.064 106.416 169.25 106.14 169.284C105.96 169.308 105.865 169.199 105.906 169.026C105.921 168.966 105.933 168.905 105.95 168.83C105.859 168.844 105.789 168.856 105.711 168.87C105.75 168.775 106.023 168.592 106.107 168.605C106.135 168.608 106.171 168.665 106.17 168.694C106.168 168.762 106.137 168.828 106.13 168.895C106.124 168.945 106.136 168.996 106.138 169.046C106.191 169.042 106.249 169.046 106.296 169.031C106.402 168.993 106.503 168.94 106.609 168.899C106.658 168.879 106.715 168.87 106.767 168.856C106.772 168.872 106.781 168.889 106.787 168.903ZM112.036 168.641C112.076 168.645 112.117 168.642 112.153 168.654C112.223 168.673 112.258 168.72 112.227 168.792C112.214 168.824 112.196 168.854 112.178 168.883C112.139 168.959 112.123 169.015 112.247 169.012C112.275 169.012 112.325 169.034 112.328 169.055C112.335 169.086 112.326 169.137 112.3 169.157C112.176 169.253 112.037 169.325 111.873 169.32C111.84 169.319 111.787 169.293 111.783 169.268C111.773 169.235 111.789 169.185 111.812 169.157C111.851 169.11 111.908 169.076 111.95 169.032C111.997 168.984 112.003 168.928 111.94 168.886C111.878 168.845 111.788 168.808 111.842 168.723C111.876 168.673 111.959 168.652 112.022 168.617C112.026 168.625 112.032 168.632 112.036 168.641ZM104.288 166.225C104.302 166.211 104.296 166.216 104.291 166.222C104.254 166.288 104.216 166.384 104.127 166.352C104.09 166.335 104.056 166.311 104.029 166.281C104.001 166.252 103.98 166.217 103.966 166.179C103.936 166.075 103.948 165.958 103.943 165.847C103.957 165.845 103.97 165.843 103.984 165.84C104.031 165.945 104.078 166.05 104.123 166.155C104.14 166.154 104.158 166.152 104.174 166.151C104.201 166.04 104.227 165.927 104.255 165.816L104.287 165.813C104.344 165.909 104.401 166.006 104.459 166.105C104.475 166.104 104.489 166.1 104.504 166.099L104.559 165.69C104.656 165.81 104.672 165.918 104.673 166.033C104.673 166.127 104.649 166.223 104.552 166.25C104.483 166.269 104.397 166.237 104.288 166.225ZM110.58 166.689C110.609 166.643 110.628 166.585 110.669 166.549C110.794 166.444 110.927 166.349 111.054 166.248C111.194 166.135 111.328 166.02 111.47 165.909C111.497 165.888 111.546 165.862 111.569 165.872C111.596 165.885 111.61 165.934 111.617 165.967C111.636 166.063 111.607 166.135 111.517 166.189C111.25 166.35 110.988 166.518 110.722 166.68C110.69 166.698 110.654 166.709 110.617 166.724C110.605 166.711 110.593 166.7 110.58 166.689ZM113.512 164.659C113.501 164.578 113.499 164.496 113.477 164.417C113.427 164.232 113.38 164.042 113.303 163.867C113.257 163.757 113.255 163.673 113.323 163.582C113.388 163.497 113.436 163.494 113.474 163.589C113.536 163.745 113.599 163.903 113.62 164.065C113.643 164.225 113.615 164.39 113.604 164.551C113.602 164.59 113.572 164.625 113.557 164.661C113.542 164.66 113.527 164.659 113.512 164.659ZM107.859 164.21C107.859 164.135 107.849 164.078 107.862 164.027C107.912 163.83 107.843 163.677 107.702 163.542C107.594 163.437 107.591 163.322 107.704 163.227C107.732 163.205 107.807 163.198 107.833 163.218C108.065 163.396 108.113 163.962 107.923 164.181C107.916 164.189 107.903 164.19 107.859 164.21ZM101.399 165.014C101.437 165.19 101.25 165.425 101.046 165.435C100.926 165.441 100.807 165.325 100.807 165.185C100.802 164.962 100.933 164.8 101.092 164.659C101.101 164.65 101.122 164.655 101.168 164.65C101.124 164.738 101.085 164.807 101.057 164.875C101.028 164.941 100.997 165.009 100.989 165.079C100.983 165.118 101.009 165.19 101.04 165.202C101.08 165.218 101.148 165.207 101.189 165.183C101.261 165.14 101.321 165.079 101.399 165.014Z" fill="white"/>
<path fill-rule="evenodd" clip-rule="evenodd" d="M108.127 164.757C108.165 164.662 108.205 164.567 108.247 164.466C108.327 164.56 108.342 164.818 108.279 164.895C108.229 164.956 108.163 164.962 108.101 164.915C108.03 164.861 107.976 164.86 107.903 164.915C107.817 164.984 107.757 164.966 107.729 164.865C107.707 164.783 107.71 164.697 107.703 164.615C107.717 164.61 107.733 164.606 107.746 164.602C107.782 164.66 107.817 164.718 107.866 164.8C107.907 164.698 107.935 164.621 107.977 164.514C108.021 164.615 108.054 164.683 108.085 164.754C108.099 164.754 108.113 164.756 108.127 164.757ZM100.595 167.949C100.614 167.789 100.632 167.646 100.648 167.504C100.43 167.475 100.381 167.405 100.459 167.251C100.481 167.208 100.544 167.143 100.579 167.15C100.644 167.16 100.727 167.199 100.757 167.253C100.851 167.417 100.781 167.784 100.647 167.922C100.641 167.93 100.627 167.932 100.595 167.949ZM98.0531 163.118C98.0667 163.205 98.069 163.263 98.0868 163.316C98.0985 163.355 98.1318 163.388 98.1534 163.425C98.1885 163.403 98.2317 163.388 98.256 163.36C98.2931 163.308 98.3179 163.249 98.3742 163.192C98.3803 163.239 98.3803 163.287 98.3957 163.327C98.4149 163.37 98.4515 163.405 98.4792 163.443C98.5064 163.41 98.5368 163.381 98.5617 163.346C98.5757 163.326 98.5818 163.302 98.5959 163.275C98.6714 163.374 98.6634 163.495 98.5799 163.565C98.4759 163.65 98.4112 163.57 98.3484 163.504C98.1764 163.61 98.1079 163.614 98.0259 163.524C97.9312 163.417 97.9298 163.263 98.0531 163.118ZM111.466 167.3C111.46 167.242 111.447 167.208 111.454 167.179C111.508 167.005 111.435 166.885 111.293 166.787C111.19 166.717 111.19 166.632 111.295 166.562C111.329 166.54 111.398 166.532 111.431 166.55C111.645 166.671 111.706 167.062 111.545 167.24C111.532 167.256 111.511 167.268 111.466 167.3ZM103.72 164.244C103.72 164.192 103.718 164.141 103.72 164.09C103.735 163.865 103.691 163.655 103.559 163.462C103.537 163.431 103.517 163.375 103.53 163.346C103.554 163.301 103.593 163.265 103.641 163.245C103.663 163.238 103.722 163.289 103.739 163.324C103.841 163.534 103.861 163.756 103.834 163.981C103.824 164.073 103.797 164.162 103.777 164.252C103.758 164.25 103.739 164.246 103.72 164.244ZM96.3749 163.837C96.3848 163.645 96.487 163.487 96.4082 163.315C96.3787 163.327 96.3618 163.338 96.3426 163.343C96.2981 163.349 96.2507 163.353 96.2053 163.357C96.2156 163.31 96.2114 163.252 96.2399 163.218C96.2981 163.151 96.359 163.055 96.4706 163.099C96.5718 163.14 96.5765 163.243 96.5699 163.336C96.5606 163.512 96.487 163.663 96.3749 163.837Z" fill="white"/>
<g>
<path d="M286.942 37.7185C286.863 37.8682 286.763 38.0034 286.644 38.117C286.391 38.3598 286.074 38.4904 285.751 38.4988C285.42 38.5031 285.091 38.3788 284.828 38.1355C284.701 38.0182 284.594 37.8766 284.51 37.7185H286.942Z" fill="white" stroke="#517D2E"/>
<path d="M278.495 24.0537C278.491 22.1244 279.13 20.2641 280.287 18.8154C281.443 17.3677 283.036 16.4308 284.766 16.166L285.189 16.1016V14.6484C285.189 14.4919 285.247 14.3493 285.339 14.25C285.429 14.1521 285.542 14.1055 285.65 14.1055C285.759 14.1055 285.873 14.1521 285.963 14.25C286.054 14.3493 286.111 14.492 286.111 14.6484V16.0684L286.543 16.1279C287.218 16.2222 287.878 16.4215 288.502 16.7207V16.9053C288.5 18.361 288.96 19.7775 289.813 20.915C290.594 21.9559 291.661 22.705 292.864 23.0547C292.905 23.3871 292.927 23.722 292.929 24.0576V27.9307L292.93 27.9482C293.024 29.3195 293.37 30.6578 293.948 31.8848L293.959 31.9072L293.971 31.9277C294.498 32.8126 295.133 33.6175 295.86 34.3203L295.861 34.3223L295.952 34.4082V35.8984H275.5V34.4082L275.591 34.3223L275.596 34.3174C276.312 33.6124 276.936 32.8073 277.454 31.9248L277.466 31.9053L277.476 31.8848C278.054 30.6579 278.399 29.3195 278.493 27.9482L278.495 27.9307V24.0537Z" fill="white" stroke="#517D2E"/>
<path d="M294.401 13.5C296.075 13.5001 297.5 14.9858 297.5 16.9062C297.5 18.8266 296.075 20.3124 294.401 20.3125C292.727 20.3125 291.301 18.8267 291.301 16.9062C291.301 14.9858 292.727 13.5 294.401 13.5Z" fill="#517D2E" stroke="#517D2E"/>
</g>
<g>
<path d="M320.711 23.6953C320.707 21.7207 321.394 19.814 322.641 18.3281C323.887 16.8427 325.608 15.8788 327.482 15.6104L327.912 15.5488V14.0674C327.912 13.9114 327.972 13.7653 328.073 13.6602C328.174 13.5556 328.308 13.5 328.442 13.5C328.577 13.5001 328.71 13.5557 328.811 13.6602C328.912 13.7653 328.973 13.9113 328.973 14.0674V15.5371L329.407 15.5947C331.298 15.8451 333.04 16.8028 334.303 18.293C335.566 19.7838 336.264 21.7054 336.259 23.6953V27.665L336.26 27.6826C336.361 29.0879 336.732 30.459 337.352 31.7148L337.363 31.7363L337.376 31.7578C337.941 32.6631 338.621 33.4862 339.398 34.2041L339.4 34.2051L339.5 34.2959V35.8311H317.5V34.2959L317.6 34.2051L317.604 34.2002C318.37 33.48 319.04 32.6578 319.595 31.7549L319.606 31.7354L319.617 31.7148C320.237 30.459 320.608 29.0879 320.709 27.6826L320.711 27.665V23.6953Z" fill="white" stroke="#517D2E"/>
<path d="M329.844 37.6711C329.757 37.8354 329.642 37.9836 329.504 38.1077C329.222 38.3621 328.864 38.5002 328.497 38.5002C328.129 38.5002 327.77 38.3623 327.488 38.1077C327.35 37.9836 327.236 37.8354 327.148 37.6711H329.844Z" fill="white" stroke="#517D2E"/>
</g>
<path d="M178.486 26.0388C181.089 26.0388 183.2 23.9281 183.2 21.3245C183.2 18.7209 181.089 16.6102 178.486 16.6102C175.882 16.6102 173.771 18.7209 173.771 21.3245C173.771 23.9281 175.882 26.0388 178.486 26.0388Z" stroke="#517D2E" stroke-width="2" stroke-linecap="round" stroke-linejoin="round"/>
<path d="M187.914 25.3214C184.378 33.5714 178.485 43 178.485 43C178.485 43 172.593 33.5714 169.057 25.3214C165.521 17.0714 171.414 10 178.485 10C185.557 10 191.45 17.0714 187.914 25.3214Z" stroke="#517D2E" stroke-width="2" stroke-linecap="round" stroke-linejoin="round"/>
<path d="M197.839 78.2396L200.081 76L204 79.9201L201.76 82.1597M197.839 78.2396L190.232 85.8478C190.084 85.9963 190 86.1977 190 86.4077V90H193.592C193.802 90 194.004 89.9165 194.152 89.768L201.76 82.1597M197.839 78.2396L201.76 82.1597" stroke="#517D2E" stroke-linecap="round" stroke-linejoin="round"/>
<path d="M172.5 156H157.5C156.125 156 155 157.125 155 158.5V173.5C155 174.875 156.125 176 157.5 176H172.5C173.875 176 175 174.875 175 173.5V158.5C175 157.125 173.875 156 172.5 156ZM163.088 171L158.75 166.625L160.5 164.863L163.088 167.462L169.5 161L171.25 162.762L163.088 171ZM152.5 161H150V178.5C150 179.875 151.125 181 152.5 181H170V178.5H152.5V161Z" fill="#679632"/>
<path d="M186.295 135.775L182.9 137.837C182.395 138.155 181.825 138.167 181.303 138.042C179.009 137.418 177.097 135.759 175.584 134.163C173.154 131.315 171.091 128.011 170.167 124.396C169.84 122.894 169.489 120.994 169.922 119.51C170.065 118.946 170.35 118.429 170.835 118.16L174.235 116.078C174.921 115.73 175.431 116.03 175.66 116.681L176.861 121.394C176.975 121.945 176.714 122.444 176.283 122.715L175.03 123.482C174.947 123.553 174.884 123.64 174.858 123.746C174.885 125.338 175.727 127.002 176.535 128.202C177.343 129.402 178.148 130.958 179.522 131.61C179.688 131.703 179.903 131.773 180.06 131.685L181.522 130.772C182 130.562 182.621 130.553 182.994 130.908L183.014 130.913L186.429 134.217C186.925 134.723 186.816 135.445 186.295 135.775Z" fill="#517D2E"/>
<g>
<rect x="87" y="216" width="130" height="50" rx="6" fill="#517D2E" fill-opacity="0.15"/>
<rect x="87.5" y="216.5" width="129" height="49" rx="5.5" stroke="#517D2E" stroke-opacity="0.15"/>
<path d="M125.548 237.394C125.513 240.18 127.993 241.735 129.862 242.659C131.781 243.607 132.426 244.216 132.418 245.064C132.404 246.362 130.887 246.935 129.468 246.957C126.991 246.996 125.551 246.278 124.407 245.735L123.514 249.973C124.663 250.511 126.79 250.979 128.995 251C134.172 251 137.558 248.406 137.577 244.383C137.597 239.278 130.622 238.995 130.669 236.713C130.686 236.021 131.336 235.283 132.761 235.095C133.466 235 135.413 234.928 137.621 235.96L138.487 231.859C137.3 231.42 135.774 231 133.875 231C129.002 231 125.575 233.63 125.548 237.394ZM146.812 231.353C145.867 231.353 145.07 231.913 144.715 232.772L137.32 250.699H142.493L143.522 247.81H149.844L150.441 250.699H155L151.021 231.353H146.812ZM147.536 236.579L149.029 243.844H144.94L147.536 236.579ZM119.276 231.353L115.198 250.699H120.128L124.203 231.353L119.276 231.353ZM111.984 231.353L106.853 244.521L104.778 233.325C104.534 232.075 103.572 231.353 102.504 231.353H94.1175L94 231.915C95.7218 232.294 97.6781 232.906 98.8633 233.561C99.5886 233.961 99.7955 234.31 100.034 235.261L103.965 250.699H109.174L117.16 231.353L111.984 231.353Z" fill="url(#paint0_linear_1_3)"/>
<path d="M180.419 229.156H193.329V252.353H180.419V229.156Z" fill="#FF5F00"/>
<path d="M181.238 240.755C181.238 236.041 183.451 231.861 186.853 229.156C184.353 227.189 181.197 226 177.755 226C169.598 226 163 232.598 163 240.755C163 248.91 169.598 255.509 177.755 255.509C181.197 255.509 184.353 254.321 186.853 252.353C183.451 249.689 181.238 245.468 181.238 240.755Z" fill="#EB001B"/>
<path d="M210.747 240.755C210.747 248.91 204.149 255.509 195.992 255.509C192.55 255.509 189.394 254.321 186.894 252.353C190.337 249.648 192.509 245.468 192.509 240.755C192.509 236.041 190.296 231.861 186.894 229.156C189.394 227.189 192.55 226 195.992 226C204.149 226 210.747 232.64 210.747 240.755H210.747Z" fill="#F79E1B"/>
<path d="M168.06 237.602H169.084L169.471 242.22L171.444 237.602H172.538L169.62 244H168.763L168.06 237.602ZM167.471 237.602H168.526L167.919 242.312L167.621 244H166.368L167.471 237.602ZM172.033 237.602H173.092L171.984 244H170.728L171.044 242.198L172.033 237.602ZM175.157 242.906L175.509 240.7C175.518 240.615 175.519 240.528 175.513 240.44C175.507 240.353 175.482 240.278 175.438 240.216C175.397 240.152 175.323 240.118 175.214 240.115C175.097 240.112 175.003 240.137 174.933 240.19C174.863 240.243 174.809 240.312 174.771 240.396C174.732 240.481 174.705 240.571 174.687 240.665L173.483 240.673C173.498 240.433 173.558 240.219 173.663 240.032C173.771 239.841 173.911 239.68 174.081 239.548C174.25 239.417 174.441 239.317 174.652 239.25C174.866 239.182 175.087 239.15 175.315 239.153C175.632 239.159 175.9 239.228 176.12 239.359C176.339 239.491 176.5 239.673 176.603 239.904C176.706 240.136 176.741 240.41 176.708 240.726L176.37 242.849C176.344 243.021 176.32 243.202 176.3 243.389C176.282 243.574 176.303 243.752 176.361 243.925L176.357 244L175.184 244.004C175.131 243.826 175.107 243.644 175.113 243.459C175.119 243.272 175.134 243.087 175.157 242.906ZM175.619 241.095L175.496 241.833L175.104 241.829C174.99 241.832 174.885 241.854 174.788 241.895C174.694 241.933 174.609 241.989 174.533 242.062C174.46 242.132 174.4 242.214 174.353 242.308C174.309 242.399 174.281 242.501 174.27 242.616C174.258 242.692 174.256 242.77 174.265 242.849C174.277 242.925 174.305 242.989 174.349 243.042C174.396 243.095 174.466 243.123 174.56 243.125C174.662 243.125 174.763 243.105 174.863 243.064C174.962 243.02 175.046 242.958 175.113 242.879C175.181 242.8 175.22 242.708 175.232 242.603L175.452 243.095C175.402 243.227 175.339 243.354 175.263 243.477C175.189 243.597 175.102 243.706 174.999 243.802C174.899 243.896 174.785 243.969 174.656 244.022C174.53 244.075 174.387 244.1 174.226 244.097C173.971 244.094 173.751 244.028 173.566 243.899C173.385 243.767 173.249 243.597 173.158 243.389C173.067 243.181 173.027 242.953 173.039 242.704C173.051 242.422 173.115 242.181 173.232 241.979C173.35 241.773 173.5 241.605 173.685 241.473C173.873 241.341 174.085 241.245 174.322 241.183C174.562 241.122 174.813 241.091 175.074 241.091L175.619 241.095ZM179.328 242.695C179.345 242.578 179.316 242.481 179.24 242.405C179.164 242.326 179.071 242.258 178.963 242.203C178.857 242.147 178.764 242.1 178.682 242.062C178.526 241.983 178.38 241.899 178.242 241.812C178.104 241.724 177.983 241.624 177.877 241.513C177.775 241.401 177.696 241.272 177.64 241.126C177.584 240.979 177.562 240.812 177.574 240.625C177.586 240.391 177.642 240.183 177.741 240.001C177.841 239.819 177.971 239.666 178.132 239.54C178.293 239.414 178.475 239.317 178.677 239.25C178.882 239.182 179.095 239.15 179.314 239.153C179.613 239.159 179.878 239.222 180.11 239.342C180.341 239.462 180.52 239.633 180.646 239.856C180.775 240.079 180.838 240.342 180.835 240.647H179.635C179.638 240.553 179.632 240.462 179.618 240.375C179.606 240.284 179.571 240.209 179.512 240.15C179.457 240.092 179.369 240.064 179.249 240.067C179.155 240.07 179.07 240.093 178.994 240.137C178.92 240.181 178.859 240.241 178.809 240.317C178.759 240.391 178.724 240.471 178.704 240.559C178.689 240.644 178.702 240.719 178.743 240.783C178.784 240.845 178.84 240.899 178.91 240.946C178.98 240.993 179.055 241.035 179.134 241.073C179.213 241.108 179.281 241.138 179.336 241.161C179.556 241.264 179.755 241.378 179.934 241.504C180.116 241.63 180.256 241.784 180.356 241.965C180.456 242.144 180.497 242.368 180.479 242.638C180.467 242.881 180.407 243.095 180.299 243.279C180.19 243.461 180.05 243.613 179.877 243.736C179.704 243.856 179.512 243.946 179.301 244.004C179.09 244.066 178.874 244.094 178.651 244.088C178.343 244.079 178.071 244.009 177.833 243.877C177.599 243.745 177.416 243.563 177.284 243.332C177.152 243.101 177.088 242.833 177.091 242.528L178.229 242.532C178.229 242.649 178.241 242.758 178.264 242.857C178.288 242.957 178.336 243.035 178.409 243.09C178.485 243.146 178.591 243.174 178.726 243.174C178.828 243.174 178.922 243.156 179.007 243.121C179.092 243.086 179.162 243.033 179.218 242.963C179.273 242.89 179.31 242.8 179.328 242.695ZM183.85 239.245L183.683 240.172H181.323L181.49 239.245H183.85ZM182.237 238.072H183.432L182.667 242.559C182.659 242.638 182.654 242.712 182.654 242.783C182.654 242.853 182.67 242.912 182.703 242.958C182.738 243.005 182.802 243.03 182.896 243.033C182.946 243.033 182.994 243.03 183.041 243.024C183.091 243.019 183.141 243.011 183.19 243.002L183.094 243.974C182.991 244.012 182.887 244.04 182.782 244.057C182.676 244.075 182.568 244.082 182.457 244.079C182.184 244.076 181.972 244.009 181.819 243.877C181.667 243.742 181.563 243.571 181.507 243.363C181.452 243.152 181.436 242.925 181.459 242.682L182.237 238.072ZM185.612 244.088C185.295 244.082 185.024 244.021 184.799 243.903C184.573 243.786 184.393 243.626 184.258 243.424C184.124 243.219 184.031 242.988 183.981 242.73C183.932 242.469 183.921 242.191 183.951 241.895L183.995 241.504C184.036 241.199 184.107 240.905 184.21 240.621C184.312 240.336 184.45 240.083 184.623 239.86C184.799 239.635 185.014 239.459 185.269 239.333C185.524 239.207 185.823 239.147 186.166 239.153C186.494 239.162 186.759 239.235 186.961 239.373C187.166 239.507 187.32 239.686 187.422 239.909C187.528 240.131 187.592 240.379 187.616 240.651C187.639 240.921 187.633 241.193 187.598 241.469L187.519 242.031H184.421L184.575 241.166L186.451 241.17L186.473 241.047C186.494 240.924 186.501 240.796 186.495 240.665C186.489 240.53 186.454 240.417 186.39 240.326C186.325 240.232 186.214 240.181 186.056 240.172C185.883 240.164 185.742 240.203 185.634 240.291C185.528 240.376 185.446 240.489 185.388 240.629C185.329 240.77 185.287 240.918 185.26 241.073C185.237 241.226 185.218 241.369 185.203 241.504L185.155 241.899C185.14 242.031 185.134 242.165 185.137 242.299C185.14 242.431 185.158 242.554 185.19 242.668C185.225 242.783 185.287 242.876 185.375 242.95C185.465 243.023 185.594 243.061 185.761 243.064C185.966 243.07 186.155 243.032 186.328 242.95C186.504 242.868 186.668 242.762 186.82 242.633L187.229 243.385C187.106 243.549 186.957 243.685 186.781 243.793C186.605 243.899 186.415 243.975 186.209 244.022C186.007 244.069 185.808 244.091 185.612 244.088ZM189.694 240.37L189.066 244H187.866L188.692 239.245H189.826L189.694 240.37ZM190.956 239.206L190.793 240.432C190.729 240.417 190.663 240.407 190.595 240.401C190.531 240.392 190.468 240.388 190.406 240.388C190.251 240.385 190.118 240.41 190.006 240.462C189.898 240.515 189.807 240.59 189.734 240.687C189.661 240.78 189.599 240.887 189.549 241.007C189.502 241.127 189.466 241.252 189.439 241.381L189.229 241.293C189.252 241.108 189.289 240.893 189.338 240.647C189.391 240.401 189.466 240.164 189.562 239.935C189.662 239.707 189.794 239.518 189.958 239.368C190.122 239.219 190.329 239.144 190.578 239.144C190.645 239.147 190.708 239.154 190.767 239.166C190.828 239.178 190.891 239.191 190.956 239.206ZM194.128 241.873L195.337 241.855C195.29 242.301 195.166 242.693 194.963 243.033C194.764 243.373 194.493 243.637 194.15 243.824C193.811 244.012 193.409 244.1 192.946 244.088C192.56 244.079 192.242 243.996 191.993 243.837C191.744 243.676 191.552 243.465 191.417 243.205C191.282 242.941 191.199 242.649 191.167 242.33C191.134 242.008 191.139 241.68 191.18 241.346L191.347 240.26C191.399 239.906 191.489 239.563 191.615 239.232C191.741 238.898 191.908 238.601 192.116 238.34C192.324 238.076 192.579 237.87 192.88 237.72C193.185 237.571 193.537 237.5 193.935 237.509C194.395 237.518 194.758 237.625 195.025 237.83C195.294 238.032 195.488 238.303 195.605 238.643C195.722 238.983 195.782 239.359 195.785 239.772L194.528 239.768C194.54 239.569 194.537 239.38 194.52 239.201C194.502 239.02 194.443 238.872 194.344 238.757C194.247 238.64 194.079 238.577 193.838 238.568C193.604 238.56 193.411 238.606 193.258 238.709C193.109 238.812 192.989 238.948 192.898 239.118C192.81 239.288 192.743 239.472 192.696 239.671C192.652 239.871 192.617 240.064 192.59 240.251L192.437 241.35C192.416 241.502 192.397 241.672 192.379 241.86C192.365 242.047 192.369 242.229 192.393 242.405C192.416 242.581 192.476 242.727 192.573 242.844C192.669 242.961 192.826 243.026 193.043 243.038C193.298 243.046 193.497 243 193.641 242.897C193.784 242.794 193.891 242.654 193.961 242.475C194.035 242.293 194.09 242.093 194.128 241.873ZM197.965 242.906L198.316 240.7C198.325 240.615 198.327 240.528 198.321 240.44C198.315 240.353 198.29 240.278 198.246 240.216C198.205 240.152 198.13 240.118 198.022 240.115C197.905 240.112 197.811 240.137 197.741 240.19C197.67 240.243 197.616 240.312 197.578 240.396C197.54 240.481 197.512 240.571 197.495 240.665L196.291 240.673C196.305 240.433 196.365 240.219 196.471 240.032C196.579 239.841 196.718 239.68 196.888 239.548C197.058 239.417 197.249 239.317 197.459 239.25C197.673 239.182 197.895 239.15 198.123 239.153C198.439 239.159 198.708 239.228 198.927 239.359C199.147 239.491 199.308 239.673 199.411 239.904C199.513 240.136 199.548 240.41 199.516 240.726L199.178 242.849C199.151 243.021 199.128 243.202 199.107 243.389C199.09 243.574 199.11 243.752 199.169 243.925L199.165 244L197.991 244.004C197.938 243.826 197.915 243.644 197.921 243.459C197.927 243.272 197.941 243.087 197.965 242.906ZM198.426 241.095L198.303 241.833L197.912 241.829C197.798 241.832 197.692 241.854 197.596 241.895C197.502 241.933 197.417 241.989 197.341 242.062C197.268 242.132 197.208 242.214 197.161 242.308C197.117 242.399 197.089 242.501 197.077 242.616C197.065 242.692 197.064 242.77 197.073 242.849C197.084 242.925 197.112 242.989 197.156 243.042C197.203 243.095 197.273 243.123 197.367 243.125C197.47 243.125 197.571 243.105 197.67 243.064C197.77 243.02 197.854 242.958 197.921 242.879C197.988 242.8 198.028 242.708 198.04 242.603L198.259 243.095C198.209 243.227 198.146 243.354 198.07 243.477C197.997 243.597 197.909 243.706 197.807 243.802C197.707 243.896 197.593 243.969 197.464 244.022C197.338 244.075 197.194 244.1 197.033 244.097C196.778 244.094 196.559 244.028 196.374 243.899C196.192 243.767 196.056 243.597 195.965 243.389C195.875 243.181 195.835 242.953 195.847 242.704C195.858 242.422 195.923 242.181 196.04 241.979C196.157 241.773 196.308 241.605 196.493 241.473C196.68 241.341 196.893 241.245 197.13 241.183C197.37 241.122 197.621 241.091 197.881 241.091L198.426 241.095ZM201.674 240.37L201.045 244H199.846L200.672 239.245H201.806L201.674 240.37ZM202.935 239.206L202.772 240.432C202.708 240.417 202.642 240.407 202.575 240.401C202.51 240.392 202.447 240.388 202.386 240.388C202.23 240.385 202.097 240.41 201.986 240.462C201.877 240.515 201.787 240.59 201.713 240.687C201.64 240.78 201.579 240.887 201.529 241.007C201.482 241.127 201.445 241.252 201.419 241.381L201.208 241.293C201.231 241.108 201.268 240.893 201.318 240.647C201.371 240.401 201.445 240.164 201.542 239.935C201.642 239.707 201.773 239.518 201.938 239.368C202.102 239.219 202.308 239.144 202.557 239.144C202.625 239.147 202.688 239.154 202.746 239.166C202.808 239.178 202.871 239.191 202.935 239.206ZM205.08 242.893L206.055 237.25H207.259L206.09 244L205.005 244.004L205.08 242.893ZM202.878 241.79L202.913 241.482C202.948 241.224 203.002 240.958 203.076 240.682C203.149 240.404 203.254 240.147 203.392 239.913C203.533 239.676 203.711 239.488 203.928 239.351C204.145 239.21 204.413 239.146 204.732 239.157C204.993 239.166 205.203 239.25 205.361 239.408C205.519 239.566 205.636 239.764 205.712 240.001C205.789 240.238 205.835 240.484 205.853 240.739C205.874 240.991 205.878 241.218 205.866 241.42L205.809 241.877C205.768 242.091 205.705 242.327 205.62 242.585C205.538 242.843 205.427 243.087 205.286 243.319C205.146 243.55 204.976 243.739 204.776 243.886C204.58 244.032 204.347 244.101 204.078 244.092C203.776 244.086 203.539 244.009 203.366 243.859C203.193 243.707 203.067 243.514 202.988 243.279C202.912 243.045 202.868 242.796 202.856 242.532C202.847 242.269 202.854 242.021 202.878 241.79ZM204.126 241.473L204.095 241.798C204.086 241.898 204.075 242.018 204.06 242.159C204.048 242.296 204.05 242.434 204.064 242.572C204.082 242.709 204.125 242.825 204.192 242.919C204.262 243.01 204.372 243.057 204.521 243.06C204.703 243.065 204.853 243.017 204.97 242.915C205.087 242.812 205.178 242.685 205.242 242.532C205.307 242.377 205.349 242.223 205.37 242.071L205.488 241.231C205.497 241.132 205.499 241.023 205.493 240.906C205.49 240.789 205.474 240.676 205.444 240.568C205.418 240.459 205.367 240.37 205.291 240.3C205.217 240.229 205.115 240.191 204.983 240.186C204.813 240.171 204.674 240.206 204.565 240.291C204.46 240.373 204.378 240.483 204.319 240.621C204.261 240.758 204.217 240.903 204.188 241.056C204.158 241.208 204.138 241.347 204.126 241.473Z" fill="white"/>
</g>
<path d="M291.938 240.052L292.496 236.812H294.17C295.394 236.812 295.808 237.46 295.628 238.432C295.448 239.404 294.836 240.052 293.594 240.052H291.938ZM298.76 238.432C299.174 236.11 297.932 234.364 294.836 234.364H289.85L287.618 247H290.696L291.506 242.464H293.414C296.636 242.464 298.4 240.52 298.76 238.432ZM299.538 241.96C298.98 245.128 300.582 247.144 303.03 247.144C304.524 247.144 305.712 246.46 306.432 245.578L306.162 247H309.24L311.022 236.956H307.944L307.692 238.378C307.296 237.496 306.36 236.812 304.866 236.812C302.4 236.812 300.096 238.792 299.538 241.96ZM307.062 241.978C306.774 243.58 305.586 244.462 304.416 244.462C303.264 244.462 302.382 243.562 302.67 241.96C302.94 240.358 304.146 239.494 305.298 239.494C306.468 239.494 307.35 240.376 307.062 241.978ZM314.891 246.658L311.687 251.77H314.999L323.909 236.956H320.579L317.159 243.238L315.935 236.956H312.515L314.891 246.658Z" fill="#27346A"/>
<path d="M327.96 240.052L328.518 236.812H330.192C331.416 236.812 331.83 237.46 331.65 238.432C331.47 239.404 330.858 240.052 329.616 240.052H327.96ZM334.782 238.432C335.196 236.11 333.954 234.364 330.858 234.364H325.872L323.64 247H326.718L327.528 242.464H329.436C332.658 242.464 334.422 240.52 334.782 238.432ZM335.561 241.96C335.003 245.128 336.605 247.144 339.053 247.144C340.547 247.144 341.735 246.46 342.455 245.578L342.185 247H345.263L347.045 236.956H343.967L343.715 238.378C343.319 237.496 342.383 236.812 340.889 236.812C338.423 236.812 336.119 238.792 335.561 241.96ZM343.085 241.978C342.797 243.58 341.609 244.462 340.439 244.462C339.287 244.462 338.405 243.562 338.693 241.96C338.963 240.358 340.169 239.494 341.321 239.494C342.491 239.494 343.373 240.376 343.085 241.978ZM347.889 247H350.967L353.325 233.68H350.247L347.889 247Z" fill="#2790C3"/>
<path d="M279.434 229.135C278.123 227.641 275.753 227 272.72 227H263.919C263.619 227 263.329 227.107 263.101 227.302C262.872 227.497 262.721 227.767 262.674 228.063L259.01 251.305C258.937 251.763 259.292 252.178 259.756 252.178H265.19L266.554 243.523L266.512 243.794C266.609 243.182 267.132 242.731 267.752 242.731H270.334C275.406 242.731 279.378 240.671 280.538 234.711C280.573 234.534 280.603 234.363 280.628 234.195C280.482 234.118 280.482 234.118 280.628 234.195C280.974 231.992 280.626 230.493 279.434 229.135Z" fill="#27346A"/>
<path d="M268.633 233.402C268.782 233.331 268.944 233.294 269.109 233.294H276.009C276.826 233.294 277.588 233.348 278.284 233.46C278.479 233.491 278.673 233.528 278.866 233.571C279.139 233.631 279.409 233.705 279.674 233.792C280.017 233.906 280.335 234.039 280.628 234.195C280.974 231.992 280.626 230.493 279.434 229.135C278.122 227.641 275.753 227 272.72 227H263.918C263.298 227 262.771 227.451 262.674 228.063L259.01 251.304C258.937 251.763 259.292 252.178 259.755 252.178H265.19L268.021 234.224C268.049 234.048 268.119 233.881 268.226 233.737C268.332 233.594 268.472 233.479 268.633 233.402Z" fill="#27346A"/>
<path d="M280.538 234.711C279.378 240.67 275.406 242.731 270.334 242.731H267.751C267.132 242.731 266.608 243.182 266.512 243.794L264.814 254.556C264.751 254.957 265.061 255.321 265.467 255.321H270.047C270.31 255.321 270.563 255.227 270.763 255.056C270.962 254.886 271.094 254.65 271.135 254.391L271.18 254.157L272.043 248.686L272.099 248.384C272.14 248.125 272.272 247.889 272.472 247.718C272.671 247.548 272.925 247.454 273.187 247.454H273.873C278.31 247.454 281.784 245.651 282.799 240.438C283.223 238.259 283.004 236.44 281.883 235.163C281.543 234.776 281.12 234.456 280.628 234.195C280.602 234.364 280.573 234.535 280.538 234.711Z" fill="#2790C3"/>
<path d="M279.415 233.711C279.234 233.658 279.051 233.611 278.867 233.571C278.675 233.528 278.481 233.492 278.286 233.46C277.589 233.348 276.827 233.294 276.01 233.294H269.11C268.946 233.294 268.783 233.331 268.635 233.402C268.474 233.479 268.334 233.595 268.227 233.738C268.12 233.881 268.05 234.048 268.022 234.225L266.556 243.523L266.513 243.794C266.61 243.182 267.133 242.731 267.753 242.731H270.336C275.408 242.731 279.38 240.671 280.54 234.711C280.574 234.534 280.603 234.364 280.63 234.195C280.336 234.04 280.018 233.906 279.676 233.792C279.589 233.764 279.502 233.737 279.415 233.711" fill="#1F264F"/>
<rect x="241.5" y="216.5" width="129" height="49" rx="5.5" stroke="#517D2E" stroke-opacity="0.15"/>
<path d="M268.118 140C268.038 140 267.957 139.96 267.876 139.921C267.715 139.802 267.675 139.644 267.715 139.486L269.287 134.74L265.176 131.774C265.015 131.655 264.974 131.497 265.015 131.339C265.055 131.181 265.216 131.062 265.418 131.062H270.537L272.068 126.277C272.109 126.119 272.27 126 272.471 126C272.673 126 272.794 126.119 272.874 126.277L274.446 131.062H279.565C279.727 131.062 279.888 131.141 279.968 131.299C280.049 131.458 279.968 131.655 279.807 131.734L275.696 134.661L277.268 139.407C277.308 139.565 277.268 139.763 277.107 139.842C276.945 139.921 276.784 139.96 276.623 139.842L272.471 136.994L268.36 139.921C268.279 139.96 268.199 140 268.118 140ZM272.471 136.085C272.552 136.085 272.633 136.124 272.713 136.164L276.059 138.576L274.769 134.701C274.728 134.542 274.769 134.345 274.93 134.266L278.275 131.853H274.124C273.963 131.853 273.801 131.734 273.721 131.576L272.471 127.701L271.181 131.576C271.141 131.734 270.98 131.853 270.778 131.853H266.627L269.972 134.266C270.134 134.384 270.174 134.542 270.134 134.701L268.884 138.576L272.229 136.164C272.31 136.124 272.391 136.085 272.471 136.085Z" fill="#263238" fill-opacity="0.6"/>
<path d="M287.118 140C287.038 140 286.957 139.96 286.876 139.921C286.715 139.802 286.675 139.644 286.715 139.486L288.287 134.74L284.176 131.774C284.015 131.655 283.974 131.497 284.015 131.339C284.055 131.181 284.216 131.062 284.418 131.062H289.537L291.068 126.277C291.109 126.119 291.27 126 291.471 126C291.673 126 291.794 126.119 291.874 126.277L293.446 131.062H298.565C298.727 131.062 298.888 131.141 298.968 131.299C299.049 131.458 298.968 131.655 298.807 131.734L294.696 134.661L296.268 139.407C296.308 139.565 296.268 139.763 296.107 139.842C295.945 139.921 295.784 139.96 295.623 139.842L291.471 136.994L287.36 139.921C287.279 139.96 287.199 140 287.118 140ZM291.471 136.085C291.552 136.085 291.633 136.124 291.713 136.164L295.059 138.576L293.769 134.701C293.728 134.542 293.769 134.345 293.93 134.266L297.275 131.853H293.124C292.963 131.853 292.801 131.734 292.721 131.576L291.471 127.701L290.181 131.576C290.141 131.734 289.98 131.853 289.778 131.853H285.627L288.972 134.266C289.134 134.384 289.174 134.542 289.134 134.701L287.884 138.576L291.229 136.164C291.31 136.124 291.391 136.085 291.471 136.085Z" fill="#263238" fill-opacity="0.6"/>
<path d="M306.118 140C306.038 140 305.957 139.96 305.876 139.921C305.715 139.802 305.675 139.644 305.715 139.486L307.287 134.74L303.176 131.774C303.015 131.655 302.974 131.497 303.015 131.339C303.055 131.181 303.216 131.062 303.418 131.062H308.537L310.068 126.277C310.109 126.119 310.27 126 310.471 126C310.673 126 310.794 126.119 310.874 126.277L312.446 131.062H317.565C317.727 131.062 317.888 131.141 317.968 131.299C318.049 131.458 317.968 131.655 317.807 131.734L313.696 134.661L315.268 139.407C315.308 139.565 315.268 139.763 315.107 139.842C314.945 139.921 314.784 139.96 314.623 139.842L310.471 136.994L306.36 139.921C306.279 139.96 306.199 140 306.118 140ZM310.471 136.085C310.552 136.085 310.633 136.124 310.713 136.164L314.059 138.576L312.769 134.701C312.728 134.542 312.769 134.345 312.93 134.266L316.275 131.853H312.124C311.963 131.853 311.801 131.734 311.721 131.576L310.471 127.701L309.181 131.576C309.141 131.734 308.98 131.853 308.778 131.853H304.627L307.972 134.266C308.134 134.384 308.174 134.542 308.134 134.701L306.884 138.576L310.229 136.164C310.31 136.124 310.391 136.085 310.471 136.085Z" fill="#263238" fill-opacity="0.6"/>
<path d="M325.118 140C325.038 140 324.957 139.96 324.876 139.921C324.715 139.802 324.675 139.644 324.715 139.486L326.287 134.74L322.176 131.774C322.015 131.655 321.974 131.497 322.015 131.339C322.055 131.181 322.216 131.062 322.418 131.062H327.537L329.068 126.277C329.109 126.119 329.27 126 329.471 126C329.673 126 329.794 126.119 329.874 126.277L331.446 131.062H336.565C336.727 131.062 336.888 131.141 336.968 131.299C337.049 131.458 336.968 131.655 336.807 131.734L332.696 134.661L334.268 139.407C334.308 139.565 334.268 139.763 334.107 139.842C333.945 139.921 333.784 139.96 333.623 139.842L329.471 136.994L325.36 139.921C325.279 139.96 325.199 140 325.118 140ZM329.471 136.085C329.552 136.085 329.633 136.124 329.713 136.164L333.059 138.576L331.769 134.701C331.728 134.542 331.769 134.345 331.93 134.266L335.275 131.853H331.124C330.963 131.853 330.801 131.734 330.721 131.576L329.471 127.701L328.181 131.576C328.141 131.734 327.98 131.853 327.778 131.853H323.627L326.972 134.266C327.134 134.384 327.174 134.542 327.134 134.701L325.884 138.576L329.229 136.164C329.31 136.124 329.391 136.085 329.471 136.085Z" fill="#263238" fill-opacity="0.6"/>
<path d="M344.118 140C344.038 140 343.957 139.96 343.876 139.921C343.715 139.802 343.675 139.644 343.715 139.486L345.287 134.74L341.176 131.774C341.015 131.655 340.974 131.497 341.015 131.339C341.055 131.181 341.216 131.062 341.418 131.062H346.537L348.068 126.277C348.109 126.119 348.27 126 348.471 126C348.673 126 348.794 126.119 348.874 126.277L350.446 131.062H355.565C355.727 131.062 355.888 131.141 355.968 131.299C356.049 131.458 355.968 131.655 355.807 131.734L351.696 134.661L353.268 139.407C353.308 139.565 353.268 139.763 353.107 139.842C352.945 139.921 352.784 139.96 352.623 139.842L348.471 136.994L344.36 139.921C344.279 139.96 344.199 140 344.118 140ZM348.471 136.085C348.552 136.085 348.633 136.124 348.713 136.164L352.059 138.576L350.769 134.701C350.728 134.542 350.769 134.345 350.93 134.266L354.275 131.853H350.124C349.963 131.853 349.801 131.734 349.721 131.576L348.471 127.701L347.181 131.576C347.141 131.734 346.98 131.853 346.778 131.853H342.627L345.972 134.266C346.134 134.384 346.174 134.542 346.134 134.701L344.884 138.576L348.229 136.164C348.31 136.124 348.391 136.085 348.471 136.085Z" fill="#263238" fill-opacity="0.6"/>
<path d="M300 75C295.582 75 292 78.5816 292 83C292 87.4184 295.582 91 300 91C304.418 91 308 87.4184 308 83C308 78.5816 304.418 75 300 75Z" stroke="#517D2E" stroke-linecap="round" stroke-linejoin="round"/>
<path d="M293.817 88.0768C293.817 88.0768 295.6 85.8 300 85.8C304.4 85.8 306.184 88.0768 306.184 88.0768M300 83C300.636 83 301.247 82.7472 301.697 82.2971C302.147 81.847 302.4 81.2365 302.4 80.6C302.4 79.9635 302.147 79.353 301.697 78.903C301.247 78.4529 300.636 78.2 300 78.2C299.363 78.2 298.753 78.4529 298.303 78.903C297.853 79.353 297.6 79.9635 297.6 80.6C297.6 81.2365 297.853 81.847 298.303 82.2971C298.753 82.7472 299.363 83 300 83V83Z" stroke="#517D2E" stroke-linecap="round" stroke-linejoin="round"/>
<path d="M334.002 83.1235C333.658 83.1249 333.324 83.2405 333.052 83.4526C332.779 83.6647 332.583 83.9615 332.493 84.2975C332.403 84.6334 332.425 84.9899 332.555 85.3121C332.685 85.6342 332.916 85.9043 333.213 86.0807V88.3461H334.811V86.0807C335.046 85.9403 335.24 85.7409 335.376 85.5019C335.512 85.2629 335.584 84.9923 335.586 84.7166V84.7166C335.586 84.5066 335.545 84.2986 335.466 84.1047C335.386 83.9108 335.269 83.7347 335.122 83.5867C334.975 83.4386 334.8 83.3215 334.608 83.242C334.416 83.1625 334.21 83.1222 334.002 83.1235V83.1235Z" stroke="#517D2E" stroke-linecap="round" stroke-linejoin="round"/>
<path d="M339.92 79.4649H328.08C326.931 79.4649 326 80.4071 326 81.5695V89.8954C326 91.0577 326.931 92 328.08 92H339.92C341.069 92 342 91.0577 342 89.8954V81.5695C342 80.4071 341.069 79.4649 339.92 79.4649Z" stroke="#517D2E" stroke-linecap="round" stroke-linejoin="round"/>
<path d="M328.874 79.4649V78.1933C328.874 76.816 329.415 75.495 330.378 74.5211C331.34 73.5472 332.646 73 334.007 73C335.368 73 336.674 73.5472 337.637 74.5211C338.599 75.495 339.14 76.816 339.14 78.1933V79.4649" stroke="#517D2E" stroke-linecap="round" stroke-linejoin="round"/>
<path d="M375.367 31.475C374.831 30.9974 374.362 30.4499 373.972 29.8472C373.547 29.0153 373.292 28.1068 373.222 27.175V24.4306C373.226 22.967 372.695 21.5525 371.729 20.4528C370.764 19.353 369.43 18.6438 367.978 18.4583V17.7417C367.978 17.545 367.9 17.3563 367.761 17.2172C367.621 17.0781 367.433 17 367.236 17C367.039 17 366.851 17.0781 366.712 17.2172C366.573 17.3563 366.494 17.545 366.494 17.7417V18.4694C365.056 18.6683 363.738 19.3818 362.785 20.4778C361.832 21.5739 361.308 22.9781 361.311 24.4306V27.175C361.242 28.1068 360.987 29.0153 360.561 29.8472C360.178 30.4485 359.717 30.996 359.189 31.475C359.13 31.5271 359.082 31.5911 359.05 31.663C359.017 31.7348 359 31.8128 359 31.8917V32.6472C359 32.7946 359.059 32.9359 359.163 33.0401C359.267 33.1442 359.408 33.2028 359.556 33.2028H375C375.147 33.2028 375.289 33.1442 375.393 33.0401C375.497 32.9359 375.556 32.7946 375.556 32.6472V31.8917C375.555 31.8128 375.539 31.7348 375.506 31.663C375.473 31.5911 375.426 31.5271 375.367 31.475ZM360.156 32.0917C360.672 31.5923 361.128 31.0328 361.511 30.425C362.047 29.4203 362.36 28.3117 362.428 27.175V24.4306C362.406 23.7795 362.515 23.1306 362.749 22.5226C362.983 21.9146 363.337 21.3599 363.79 20.8915C364.242 20.4231 364.785 20.0506 365.385 19.7963C365.984 19.5419 366.629 19.4108 367.281 19.4108C367.932 19.4108 368.577 19.5419 369.177 19.7963C369.776 20.0506 370.319 20.4231 370.772 20.8915C371.224 21.3599 371.578 21.9146 371.812 22.5226C372.046 23.1306 372.155 23.7795 372.133 24.4306V27.175C372.201 28.3117 372.514 29.4203 373.05 30.425C373.434 31.0328 373.889 31.5923 374.406 32.0917H360.156Z" fill="#517D2E"/>
<path d="M367.306 35.0583C367.656 35.0502 367.992 34.9187 368.254 34.6869C368.516 34.455 368.688 34.1379 368.739 33.7916H365.817C365.869 34.1474 366.049 34.4719 366.323 34.7049C366.597 34.9379 366.946 35.0635 367.306 35.0583Z" fill="#517D2E"/>
<path d="M365.5 83.2857C367.236 83.2857 368.643 81.8786 368.643 80.1429C368.643 78.4071 367.236 77 365.5 77C363.764 77 362.357 78.4071 362.357 80.1429C362.357 81.8786 363.764 83.2857 365.5 83.2857Z" stroke="#517D2E" stroke-linecap="round" stroke-linejoin="round"/>
<path d="M371 88C371 85.3961 368.538 83.2857 365.5 83.2857C362.462 83.2857 360 85.3961 360 88M370.214 83.2857C370.739 83.2857 371.256 83.1541 371.717 82.9029C372.179 82.6517 372.569 82.2889 372.854 81.8477C373.139 81.4066 373.309 80.901 373.348 80.3773C373.387 79.8536 373.295 79.3285 373.079 78.8498C372.863 78.3712 372.53 77.9543 372.111 77.6373C371.693 77.3202 371.201 77.1132 370.682 77.035C370.163 76.9568 369.632 77.0101 369.139 77.1898C368.645 77.3695 368.205 77.67 367.857 78.0639" stroke="#517D2E" stroke-linecap="round" stroke-linejoin="round"/>
<path d="M375.714 88C375.714 85.3962 373.252 83.2857 370.214 83.2857C369.58 83.2857 368.562 83.0555 367.857 82.3154" stroke="#517D2E" stroke-linecap="round" stroke-linejoin="round"/>
<path d="M268.323 73L274 78.641M260.818 78.3846H265.308M260.818 89.6769H263.724M260.818 81.2051H269.783M260.818 84.0308H269.783M260.818 86.8564H269.783M274 78.641H269.355C269.081 78.641 268.819 78.533 268.625 78.3406C268.431 78.1483 268.323 77.8874 268.323 77.6154V73H259.032C258.758 73 258.496 73.1081 258.302 73.3004C258.109 73.4927 258 73.7536 258 74.0256V91.9744C258 92.2464 258.109 92.5073 258.302 92.6996C258.496 92.8919 258.758 93 259.032 93H272.968C273.242 93 273.504 92.8919 273.698 92.6996C273.891 92.5073 274 92.2464 274 91.9744V78.641Z" stroke="#517D2E" stroke-linecap="round" stroke-linejoin="round"/>
<path d="M405.798 74C406.331 73.9999 406.856 74.1302 407.325 74.3791C407.794 74.6279 408.192 74.9873 408.482 75.4247C408.773 75.8622 408.948 76.3637 408.99 76.8839C409.032 77.404 408.941 77.9263 408.725 78.4032C408.508 78.8801 408.174 79.2966 407.751 79.6148C407.328 79.933 406.831 80.1429 406.305 80.2254C405.778 80.3079 405.239 80.2604 404.736 80.0871C404.233 79.9139 403.782 79.6205 403.424 79.2335L399.257 81.5627C399.452 82.1721 399.452 82.8253 399.257 83.4348L403.423 85.7657C403.953 85.1931 404.68 84.8321 405.465 84.7521C406.25 84.672 407.038 84.8786 407.677 85.3322C408.316 85.7858 408.761 86.4543 408.927 87.2094C409.093 87.9645 408.968 88.7529 408.576 89.4233C408.184 90.0936 407.552 90.5987 406.803 90.8413C406.053 91.084 405.239 91.0473 404.515 90.7381C403.792 90.429 403.211 89.8693 402.884 89.1664C402.556 88.4636 402.506 87.6673 402.742 86.9303L398.576 84.5985C398.142 85.0679 397.573 85.3977 396.944 85.5444C396.315 85.6912 395.655 85.6479 395.051 85.4205C394.447 85.193 393.928 84.792 393.562 84.2702C393.196 83.7484 393 83.1303 393 82.4974C393 81.8645 393.196 81.2464 393.562 80.7246C393.928 80.2028 394.447 79.8017 395.051 79.5743C395.655 79.3468 396.315 79.3036 396.944 79.4503C397.573 79.5971 398.142 79.9269 398.576 80.3963L402.742 78.0671C402.592 77.5981 402.557 77.1011 402.64 76.6164C402.723 76.1317 402.921 75.6729 403.218 75.2769C403.516 74.881 403.904 74.5591 404.352 74.3373C404.801 74.1155 405.296 73.9999 405.798 74ZM405.798 86.0752C405.313 86.0752 404.847 86.2639 404.504 86.5997C404.161 86.9355 403.968 87.391 403.968 87.8659C403.968 88.3408 404.161 88.7963 404.504 89.1321C404.847 89.468 405.313 89.6566 405.798 89.6566C406.284 89.6566 406.749 89.468 407.092 89.1321C407.436 88.7963 407.628 88.3408 407.628 87.8659C407.628 87.391 407.436 86.9355 407.092 86.5997C406.749 86.2639 406.284 86.0752 405.798 86.0752ZM396.201 80.7085C395.716 80.7085 395.25 80.8971 394.907 81.2329C394.564 81.5688 394.371 82.0242 394.371 82.4992C394.371 82.9741 394.564 83.4296 394.907 83.7654C395.25 84.1012 395.716 84.2899 396.201 84.2899C396.686 84.2899 397.152 84.1012 397.495 83.7654C397.838 83.4296 398.031 82.9741 398.031 82.4992C398.031 82.0242 397.838 81.5688 397.495 81.2329C397.152 80.8971 396.686 80.7085 396.201 80.7085ZM405.798 75.3417C405.313 75.3417 404.847 75.5304 404.504 75.8662C404.161 76.202 403.968 76.6575 403.968 77.1324C403.968 77.6073 404.161 78.0628 404.504 78.3986C404.847 78.7344 405.313 78.9231 405.798 78.9231C406.284 78.9231 406.749 78.7344 407.092 78.3986C407.436 78.0628 407.628 77.6073 407.628 77.1324C407.628 76.6575 407.436 76.202 407.092 75.8662C406.749 75.5304 406.284 75.3417 405.798 75.3417Z" fill="#517D2E"/>
<path d="M412.483 129.282L407.686 128.598L405.542 124.33C405.484 124.213 405.387 124.119 405.268 124.061C404.97 123.917 404.607 124.037 404.458 124.33L402.314 128.598L397.517 129.282C397.385 129.3 397.264 129.362 397.172 129.454C397.06 129.567 396.998 129.719 397 129.877C397.002 130.034 397.068 130.185 397.183 130.295L400.653 133.616L399.833 138.306C399.814 138.416 399.826 138.528 399.869 138.63C399.911 138.733 399.982 138.822 400.073 138.887C400.165 138.952 400.273 138.991 400.385 138.998C400.498 139.006 400.61 138.983 400.71 138.931L405 136.717L409.29 138.931C409.407 138.993 409.543 139.013 409.674 138.991C410.002 138.935 410.223 138.629 410.167 138.306L409.347 133.616L412.817 130.295C412.912 130.204 412.974 130.085 412.993 129.955C413.044 129.631 412.813 129.33 412.483 129.282ZM407.887 133.149L408.569 137.049L405 135.209L401.431 137.051L402.113 133.151L399.227 130.387L403.217 129.818L405 126.27L406.783 129.818L410.773 130.387L407.887 133.149Z" fill="#517D2E"/>
<path d="M442.805 83.475L439.305 86.975C439.178 87.0973 439.008 87.1659 438.831 87.1667C438.698 87.1664 438.569 87.1269 438.46 87.0531C438.35 86.9793 438.265 86.8746 438.215 86.7522C438.165 86.6299 438.152 86.4954 438.179 86.3659C438.205 86.2364 438.27 86.1178 438.364 86.025L440.722 83.6667H432.999C432.822 83.6667 432.652 83.5964 432.527 83.4714C432.402 83.3464 432.332 83.1768 432.332 83C432.332 82.8232 432.402 82.6536 432.527 82.5286C432.652 82.4036 432.822 82.3333 432.999 82.3333H440.722L438.364 79.975C438.238 79.8501 438.167 79.6803 438.166 79.5029C438.165 79.3256 438.235 79.1551 438.36 79.0292C438.485 78.9032 438.654 78.832 438.832 78.8312C439.009 78.8304 439.18 78.9001 439.305 79.025L442.805 82.525C442.93 82.6514 443 82.8221 443 83C443 83.1779 442.93 83.3486 442.805 83.475ZM432.999 89.6667H428.333V76.3333H432.999C433.175 76.3333 433.345 76.2631 433.47 76.1381C433.595 76.013 433.665 75.8435 433.665 75.6667C433.665 75.4899 433.595 75.3203 433.47 75.1953C433.345 75.0702 433.175 75 432.999 75H428.333C427.979 75 427.64 75.1405 427.39 75.3905C427.14 75.6406 427 75.9797 427 76.3333V89.6667C427 90.0203 427.14 90.3594 427.39 90.6095C427.64 90.8595 427.979 91 428.333 91H432.999C433.175 91 433.345 90.9298 433.47 90.8047C433.595 90.6797 433.665 90.5101 433.665 90.3333C433.665 90.1565 433.595 89.987 433.47 89.8619C433.345 89.7369 433.175 89.6667 432.999 89.6667Z" fill="#517D2E"/>
<path d="M171.694 76.3082C171.89 76.5055 172 76.7732 172 77.0523C172 77.3314 171.89 77.599 171.694 77.7964L166.522 83.0064L171.694 88.2163C171.884 88.4148 171.99 88.6807 171.987 88.9566C171.985 89.2326 171.875 89.4966 171.681 89.6917C171.488 89.8869 171.226 89.9976 170.952 90C170.678 90.0024 170.414 89.8963 170.217 89.7045L164.306 83.7505C164.11 83.5531 164 83.2854 164 83.0064C164 82.7273 164.11 82.4596 164.306 82.2622L170.217 76.3082C170.413 76.1108 170.678 76 170.955 76C171.232 76 171.498 76.1108 171.694 76.3082Z" fill="#517D2E"/>
<path d="M213.5 26.2624C214.866 26.2624 215.973 25.1751 215.973 23.8338C215.973 22.4926 214.866 21.4052 213.5 21.4052C212.134 21.4052 211.027 22.4926 211.027 23.8338C211.027 25.1751 212.134 26.2624 213.5 26.2624Z" stroke="#517D2E" stroke-linecap="round" stroke-linejoin="round"/>
<path d="M218.446 25.8929C216.591 30.1429 213.5 35 213.5 35C213.5 35 210.409 30.1429 208.554 25.8929C206.7 21.6429 209.791 18 213.5 18C217.209 18 220.3 21.6429 218.446 25.8929Z" stroke="#517D2E" stroke-linecap="round" stroke-linejoin="round"/>
<path d="M100.5 90V82.5M100.5 82.5V75M100.5 82.5H108M100.5 82.5H93" stroke="#517D2E" stroke-width="2" stroke-linecap="round"/>
<path d="M227.21 180.877L206.14 170.8C205.927 170.699 205.747 170.539 205.621 170.339C205.495 170.139 205.428 169.908 205.428 169.672C205.428 169.436 205.495 169.205 205.621 169.005C205.747 168.806 205.927 168.646 206.14 168.544L227.21 158.467C227.426 158.364 227.667 158.325 227.905 158.354C228.142 158.384 228.366 158.481 228.55 158.635C228.734 158.788 228.87 158.991 228.942 159.219C229.014 159.448 229.019 159.692 228.956 159.923L226.848 167.651C226.822 167.746 226.769 167.831 226.695 167.896C226.621 167.96 226.53 168.002 226.433 168.015L216.223 169.402C216.18 169.408 216.14 169.425 216.105 169.452C216.071 169.478 216.045 169.513 216.028 169.552L216.01 169.614C216.002 169.67 216.013 169.727 216.042 169.776C216.07 169.824 216.114 169.862 216.167 169.882L216.222 169.897L226.422 171.284C226.519 171.298 226.61 171.339 226.683 171.404C226.757 171.469 226.81 171.554 226.836 171.648L228.956 179.42C229.019 179.651 229.014 179.896 228.943 180.124C228.871 180.353 228.735 180.556 228.551 180.71C228.367 180.863 228.143 180.961 227.905 180.99C227.667 181.02 227.426 180.981 227.21 180.877Z" fill="#517D2E"/>
<path d="M136 93V83M136 83V73M136 83H146M136 83H126" stroke="#517D2E" stroke-width="2" stroke-linecap="round"/>
<g>
<path d="M522.7 6H493.3C491.629 6 490.027 6.66541 488.845 7.84985C487.664 9.03429 487 10.6407 487 12.3158V43.8947C487.001 44.2678 487.1 44.634 487.288 44.9558C487.477 45.2776 487.747 45.5435 488.071 45.7263C488.385 45.9046 488.739 45.9989 489.1 46C489.477 45.9999 489.847 45.8981 490.171 45.7053L499.6 39.9789C499.949 39.7709 500.35 39.6686 500.755 39.6842H522.7C524.371 39.6842 525.973 39.0188 527.155 37.8344C528.336 36.6499 529 35.0435 529 33.3684V12.3158C529 10.6407 528.336 9.03429 527.155 7.84985C525.973 6.66541 524.371 6 522.7 6ZM499.6 24.9474C499.185 24.9474 498.779 24.8239 498.433 24.5926C498.088 24.3612 497.819 24.0324 497.66 23.6478C497.501 23.2631 497.459 22.8398 497.54 22.4314C497.621 22.023 497.821 21.6479 498.115 21.3535C498.409 21.059 498.783 20.8585 499.19 20.7773C499.598 20.6961 500.02 20.7378 500.404 20.8971C500.787 21.0564 501.115 21.3263 501.346 21.6725C501.577 22.0187 501.7 22.4257 501.7 22.8421C501.7 23.4005 501.479 23.9359 501.085 24.3308C500.691 24.7256 500.157 24.9474 499.6 24.9474ZM508 24.9474C507.585 24.9474 507.179 24.8239 506.833 24.5926C506.488 24.3612 506.219 24.0324 506.06 23.6478C505.901 23.2631 505.859 22.8398 505.94 22.4314C506.021 22.023 506.221 21.6479 506.515 21.3535C506.809 21.059 507.183 20.8585 507.59 20.7773C507.998 20.6961 508.42 20.7378 508.804 20.8971C509.187 21.0564 509.515 21.3263 509.746 21.6725C509.977 22.0187 510.1 22.4257 510.1 22.8421C510.1 23.4005 509.879 23.9359 509.485 24.3308C509.091 24.7256 508.557 24.9474 508 24.9474ZM516.4 24.9474C515.985 24.9474 515.579 24.8239 515.233 24.5926C514.888 24.3612 514.619 24.0324 514.46 23.6478C514.301 23.2631 514.259 22.8398 514.34 22.4314C514.421 22.023 514.621 21.6479 514.915 21.3535C515.209 21.059 515.583 20.8585 515.99 20.7773C516.398 20.6961 516.82 20.7378 517.204 20.8971C517.587 21.0564 517.915 21.3263 518.146 21.6725C518.377 22.0187 518.5 22.4257 518.5 22.8421C518.5 23.4005 518.279 23.9359 517.885 24.3308C517.491 24.7256 516.957 24.9474 516.4 24.9474Z" fill="white"/>
<path d="M493.3 6.5H522.7C524.238 6.50005 525.713 7.11264 526.801 8.20312C527.888 9.29361 528.5 10.7728 528.5 12.3154V33.3682C528.5 34.911 527.889 36.3909 526.801 37.4814C525.713 38.5719 524.238 39.1845 522.7 39.1846H500.586C500.211 39.1973 499.844 39.2907 499.509 39.459L499.344 39.5498L499.341 39.5518L489.915 45.2754C489.668 45.4222 489.386 45.4989 489.1 45.499C488.826 45.4979 488.557 45.4273 488.318 45.292L488.316 45.291L488.14 45.1748C487.971 45.0475 487.827 44.8873 487.72 44.7031C487.612 44.519 487.543 44.3157 487.515 44.1055L487.5 43.8936V12.3154C487.5 10.7728 488.112 9.29361 489.199 8.20312C490.287 7.11264 491.762 6.50005 493.3 6.5ZM500.596 20.4355C500.121 20.2382 499.597 20.1865 499.093 20.2871C498.588 20.3877 498.124 20.6356 497.761 21C497.397 21.3644 497.15 21.8289 497.05 22.334C496.95 22.8391 497.001 23.363 497.197 23.8389C497.394 24.3148 497.728 24.7214 498.155 25.0078C498.583 25.2941 499.085 25.4472 499.6 25.4473C500.29 25.4473 500.951 25.1723 501.438 24.6836C501.926 24.1949 502.2 23.5324 502.2 22.8418C502.2 22.3269 502.047 21.8238 501.762 21.3955C501.476 20.9672 501.071 20.6329 500.596 20.4355ZM508.995 20.4355C508.52 20.2383 507.997 20.1865 507.492 20.2871C506.988 20.3878 506.525 20.6358 506.161 21C505.798 21.3644 505.55 21.8289 505.45 22.334C505.35 22.8391 505.401 23.363 505.598 23.8389C505.794 24.3146 506.127 24.7214 506.555 25.0078C506.982 25.2942 507.485 25.4473 508 25.4473C508.69 25.4473 509.351 25.1723 509.839 24.6836C510.326 24.1949 510.6 23.5323 510.6 22.8418C510.6 22.327 510.447 21.8238 510.162 21.3955C509.877 20.9671 509.47 20.6329 508.995 20.4355ZM517.396 20.4355C516.92 20.2382 516.397 20.1865 515.893 20.2871C515.388 20.3877 514.925 20.6358 514.562 21C514.198 21.3644 513.95 21.8289 513.85 22.334C513.749 22.8391 513.801 23.363 513.998 23.8389C514.195 24.3146 514.528 24.7214 514.955 25.0078C515.383 25.2942 515.886 25.4473 516.4 25.4473C517.09 25.4472 517.752 25.1722 518.239 24.6836C518.727 24.1949 519 23.5322 519 22.8418C519 22.3271 518.848 21.8237 518.562 21.3955C518.277 20.9671 517.871 20.6329 517.396 20.4355Z" stroke="#517D2E"/>
</g>
<path opacity="0.9" d="M135.953 130.798C135.902 130.861 135.835 130.911 135.756 130.947C135.677 130.982 135.59 131 135.501 131C135.412 131 135.324 130.982 135.245 130.947C135.167 130.911 135.099 130.861 135.049 130.798L130.098 124.732C130.041 124.662 130.007 124.58 130.001 124.495C129.995 124.41 130.016 124.325 130.063 124.25C130.109 124.174 130.179 124.111 130.265 124.067C130.351 124.023 130.45 124 130.55 124H140.451C140.551 124 140.65 124.024 140.735 124.068C140.821 124.112 140.891 124.175 140.937 124.251C140.984 124.326 141.005 124.41 140.999 124.495C140.993 124.58 140.96 124.662 140.903 124.732L135.953 130.798Z" fill="#517D2E"/>
<path d="M476.2 77H461.8C461.358 77 461 77.3582 461 77.8V87.4C461 87.8418 461.358 88.2 461.8 88.2H476.2C476.642 88.2 477 87.8418 477 87.4V77.8C477 77.3582 476.642 77 476.2 77Z" stroke="#517D2E" stroke-linejoin="round"/>
<path d="M461 81H477M461 79.8V82.2M477 79.8V82.2M471 84.6H474.2" stroke="#517D2E" stroke-linecap="round" stroke-linejoin="round"/>
<g>
<rect x="5" y="149" width="40" height="40" rx="20" fill="#517D2E"/>
<path fill-rule="evenodd" clip-rule="evenodd" d="M32 170H26V176H24V170H18V168H24V162H26V168H32V170Z" fill="white"/>
</g>
<path d="M377.166 134.495L376.566 132.65L375.006 133.82L374.466 133.1L376.041 131.945L374.496 130.835L375.036 130.085L376.581 131.24L377.166 129.38L378.036 129.68L377.451 131.525L379.356 131.51V132.41L377.436 132.395L378.036 134.225L377.166 134.495Z" fill="#FF0000"/>
<path d="M435.5 14.5V34.5C435.5 35.163 435.763 35.7989 436.232 36.2678C436.701 36.7366 437.337 37 438 37H463C463.663 37 464.299 36.7366 464.768 36.2678C465.237 35.7989 465.5 35.163 465.5 34.5V14.5H435.5ZM435.5 12H465.5C466.163 12 466.799 12.2634 467.268 12.7322C467.737 13.2011 468 13.837 468 14.5V34.5C468 35.8261 467.473 37.0979 466.536 38.0355C465.598 38.9732 464.326 39.5 463 39.5H438C436.674 39.5 435.402 38.9732 434.464 38.0355C433.527 37.0979 433 35.8261 433 34.5V14.5C433 13.837 433.263 13.2011 433.732 12.7322C434.201 12.2634 434.837 12 435.5 12Z" fill="#517D2E"/>
<path d="M465.812 14.5L456.145 25.55C455.441 26.3547 454.573 26.9997 453.6 27.4415C452.626 27.8834 451.569 28.112 450.5 28.112C449.431 28.112 448.374 27.8834 447.4 27.4415C446.427 26.9997 445.559 26.3547 444.855 25.55L435.188 14.5H465.812ZM438.51 14.5L446.735 23.9025C447.204 24.4391 447.783 24.8692 448.432 25.1639C449.081 25.4585 449.786 25.611 450.499 25.611C451.212 25.611 451.916 25.4585 452.565 25.1639C453.215 24.8692 453.793 24.4391 454.263 23.9025L462.49 14.5H438.51Z" fill="#517D2E"/>
<path d="M239.71 89.29L236.31 85.9C237.407 84.5025 238.002 82.7767 238 81C238 79.4178 237.531 77.871 236.652 76.5554C235.773 75.2398 234.523 74.2145 233.061 73.609C231.6 73.0035 229.991 72.845 228.439 73.1537C226.887 73.4624 225.462 74.2243 224.343 75.3431C223.224 76.462 222.462 77.8874 222.154 79.4393C221.845 80.9911 222.003 82.5997 222.609 84.0615C223.214 85.5233 224.24 86.7727 225.555 87.6518C226.871 88.5308 228.418 89 230 89C231.777 89.0022 233.502 88.407 234.9 87.31L238.29 90.71C238.383 90.8037 238.494 90.8781 238.615 90.9289C238.737 90.9797 238.868 91.0058 239 91.0058C239.132 91.0058 239.263 90.9797 239.385 90.9289C239.506 90.8781 239.617 90.8037 239.71 90.71C239.804 90.617 239.878 90.5064 239.929 90.3846C239.98 90.2627 240.006 90.132 240.006 90C240.006 89.868 239.98 89.7373 239.929 89.6154C239.878 89.4936 239.804 89.383 239.71 89.29ZM224 81C224 79.8133 224.352 78.6533 225.011 77.6666C225.67 76.6799 226.608 75.9109 227.704 75.4567C228.8 75.0026 230.007 74.8838 231.171 75.1153C232.334 75.3468 233.404 75.9182 234.243 76.7574C235.082 77.5965 235.653 78.6656 235.885 79.8295C236.116 80.9933 235.997 82.1997 235.543 83.2961C235.089 84.3925 234.32 85.3295 233.333 85.9888C232.347 86.6481 231.187 87 230 87C228.409 87 226.883 86.3679 225.757 85.2426C224.632 84.1174 224 82.5913 224 81Z" fill="#99C169"/>
<path d="M501.316 76.7625V76.975H504.684V76.7625C504.684 76.3116 504.507 75.8792 504.191 75.5604C503.875 75.2416 503.447 75.0625 503 75.0625C502.553 75.0625 502.125 75.2416 501.809 75.5604C501.493 75.8792 501.316 76.3116 501.316 76.7625ZM500.263 76.975V76.7625C500.263 76.0298 500.552 75.3272 501.065 74.8091C501.578 74.291 502.274 74 503 74C503.726 74 504.422 74.291 504.935 74.8091C505.448 75.3272 505.737 76.0298 505.737 76.7625V76.975H510.474C510.613 76.975 510.747 77.031 510.846 77.1306C510.945 77.2302 511 77.3654 511 77.5063C511 77.6471 510.945 77.7823 510.846 77.8819C510.747 77.9815 510.613 78.0375 510.474 78.0375H509.245L508.403 88.1763C508.339 88.9462 507.991 89.6638 507.428 90.1868C506.864 90.7098 506.127 91 505.361 91H500.639C499.873 90.9999 499.136 90.7096 498.573 90.1867C498.009 89.6637 497.661 88.9462 497.597 88.1763L496.755 78.0375H495.526C495.387 78.0375 495.253 77.9815 495.154 77.8819C495.055 77.7823 495 77.6471 495 77.5063C495 77.3654 495.055 77.2302 495.154 77.1306C495.253 77.031 495.387 76.975 495.526 76.975H500.263ZM498.646 88.0875C498.688 88.5919 498.916 89.062 499.285 89.4046C499.654 89.7473 500.137 89.9375 500.639 89.9375H505.361C505.863 89.9376 506.346 89.7474 506.715 89.4048C507.084 89.0621 507.313 88.5919 507.355 88.0875L508.189 78.0375H497.811L498.646 88.0875ZM501.947 80.9062C501.947 80.8365 501.934 80.7674 501.907 80.703C501.881 80.6385 501.842 80.5799 501.793 80.5306C501.744 80.4813 501.686 80.4421 501.622 80.4154C501.559 80.3887 501.49 80.375 501.421 80.375C501.352 80.375 501.283 80.3887 501.22 80.4154C501.156 80.4421 501.098 80.4813 501.049 80.5306C501 80.5799 500.961 80.6385 500.935 80.703C500.908 80.7674 500.895 80.8365 500.895 80.9062V87.0688C500.895 87.1385 500.908 87.2076 500.935 87.2721C500.961 87.3365 501 87.3951 501.049 87.4444C501.098 87.4937 501.156 87.5329 501.22 87.5596C501.283 87.5863 501.352 87.6 501.421 87.6C501.49 87.6 501.559 87.5863 501.622 87.5596C501.686 87.5329 501.744 87.4937 501.793 87.4444C501.842 87.3951 501.881 87.3365 501.907 87.2721C501.934 87.2076 501.947 87.1385 501.947 87.0688V80.9062ZM504.579 80.375C504.869 80.375 505.105 80.613 505.105 80.9062V87.0688C505.105 87.2096 505.05 87.3448 504.951 87.4444C504.852 87.544 504.719 87.6 504.579 87.6C504.439 87.6 504.305 87.544 504.207 87.4444C504.108 87.3448 504.053 87.2096 504.053 87.0688V80.9062C504.053 80.613 504.288 80.375 504.579 80.375Z" fill="#517D2E"/>
<path d="M234.167 130.334H217.5L218.75 128.667H230.834C231.193 128.667 231.51 128.438 231.624 128.097L234.124 120.597C234.21 120.343 234.166 120.064 234.01 119.846C233.853 119.629 233.601 119.5 233.334 119.5H218.679L216.423 117.244C216.097 116.919 215.57 116.919 215.245 117.244C214.919 117.57 214.919 118.097 215.245 118.423L217.5 120.679V127.555L215.167 130.667C214.977 130.919 214.947 131.257 215.088 131.539C215.23 131.822 215.518 132 215.834 132H234.167C234.628 132 235 131.627 235 131.167C235 130.707 234.628 130.334 234.167 130.334Z" fill="#679632"/>
<path d="M218.334 137C219.254 137 220 136.254 220 135.334C220 134.413 219.254 133.667 218.334 133.667C217.413 133.667 216.667 134.413 216.667 135.334C216.667 136.254 217.413 137 218.334 137Z" fill="#679632"/>
<path d="M231.667 137C232.588 137 233.334 136.254 233.334 135.334C233.334 134.413 232.588 133.667 231.667 133.667C230.747 133.667 230 134.413 230 135.334C230 136.254 230.747 137 231.667 137Z" fill="#679632"/>
<path d="M246.939 25.6728C249.158 25.6728 250.958 23.8735 250.958 21.6539C250.958 19.4344 249.158 17.6351 246.939 17.6351C244.719 17.6351 242.92 19.4344 242.92 21.6539C242.92 23.8735 244.719 25.6728 246.939 25.6728Z" stroke="#517D2E" stroke-width="2" stroke-linecap="round" stroke-linejoin="round"/>
<path d="M254.976 25.0613C251.962 32.0942 246.939 40.1319 246.939 40.1319C246.939 40.1319 241.915 32.0942 238.901 25.0613C235.887 18.0283 240.91 12 246.939 12C252.967 12 257.99 18.0283 254.976 25.0613Z" stroke="#517D2E" stroke-width="2" stroke-linecap="round" stroke-linejoin="round"/>
<defs>

















































<linearGradient id="paint0_linear_1_3" x1="122.044" y1="251.401" x2="122.632" y2="230.861" gradientUnits="userSpaceOnUse">
<stop stop-color="#222357"/>
<stop offset="1" stop-color="#254AA5"/>
</linearGradient>
</defs>
</svg>